SplineFontDB: 3.0
FontName: nyu-classes-icons
FullName: nyu-classes-icons
FamilyName: nyu-classes-icons
Weight: Regular
ItalicAngle: 0
UnderlinePosition: 0
UnderlineWidth: 0
Ascent: 960
Descent: 64
InvalidEm: 0
LayerCount: 2
Layer: 0 0 "Back" 1
Layer: 1 0 "Fore" 0
XUID: [1021 772 -668590397 7940277]
OS2Version: 0
OS2_WeightWidthSlopeOnly: 0
OS2_UseTypoMetrics: 0
CreationTime: 1480052777
ModificationTime: 1499039566
PfmFamily: 17
TTFWeight: 400
TTFWidth: 5
LineGap: 92
VLineGap: 92
OS2TypoAscent: 0
OS2TypoAOffset: 1
OS2TypoDescent: 0
OS2TypoDOffset: 1
OS2TypoLinegap: 92
OS2WinAscent: 0
OS2WinAOffset: 1
OS2WinDescent: 0
OS2WinDOffset: 1
HheadAscent: 0
HheadAOffset: 1
HheadDescent: 0
HheadDOffset: 1
OS2Vendor: 'PfEd'
DEI: 91125
Encoding: Custom
UnicodeInterp: none
NameList: Adobe Glyph List
DisplaySize: -48
AntiAlias: 1
FitToEm: 0
WinInfo: 0 32 14
Grid
510 1472 m 0
 510 -576 l 1024
568 1472 m 0
 568 -576 l 1024
EndSplineSet
BeginChars: 169 156

StartChar: uniE000
Encoding: 2 57344 2
Width: 3614
Flags: W
LayerCount: 2
Fore
SplineSet
241.228 641.46 m 1
 303.03 641.46 l 1
 506.294 379.106 l 1
 506.292 641.46 l 1
 571.874 641.46 l 1
 571.874 262.024 l 1
 516.036 262.024 l 1
 306.824 531.968 l 1
 306.824 262.024 l 1
 241.242 262.024 l 1
 241.242 641.46 l 1
 241.228 641.46 l 1
792.004 411.618 m 1
 641.31 641.46 l 1
 720.444 641.46 l 1
 826.142 473.96 l 1
 933.466 641.46 l 1
 1009.9 641.46 l 1
 859.212 413.26 l 1
 859.212 262.024 l 1
 792.004 262.024 l 1
 792.004 411.618 l 1
1073.36 423.002 m 2
 1073.36 641.46 l 1
 1140.03 641.46 l 1
 1140.03 425.728 l 2
 1140.03 355.268 1176.35 317.862 1235.97 317.862 c 0
 1295.06 317.862 1331.37 353.1 1331.37 423.018 c 2
 1331.37 641.46 l 1
 1398.03 641.46 l 1
 1398.03 426.27 l 2
 1398.03 312.982 1334.06 256.06 1234.88 256.06 c 0
 1136.25 256.06 1073.36 312.982 1073.36 423.002 c 2
1480.48 450.65 m 2
 1480.48 451.734 l 2
 1480.48 559.058 1560.71 647.95 1670.2 647.95 c 0
 1737.97 647.95 1778.61 623.012 1817.64 587.232 c 1
 1797.59 566.632 l 1
 1764.52 598.616 1726.58 622.47 1669.66 622.47 c 0
 1578.6 622.47 1509.75 548.214 1509.75 452.802 c 2
 1509.75 451.718 l 2
 1509.75 355.764 1579.69 280.966 1670.2 280.966 c 0
 1724.96 280.966 1762.35 302.108 1800.84 340.056 c 1
 1819.81 321.624 l 1
 1779.7 282.064 1736.34 255.486 1669.14 255.486 c 0
 1560.71 255.518 1480.48 341.7 1480.48 450.65 c 2
1895.21 657.724 m 1
 1921.78 657.724 l 1
 1921.78 262.024 l 1
 1895.21 262.024 l 1
 1895.21 657.724 l 1
2003.64 342.242 m 2
 2003.64 343.326 l 2
 2003.64 400.776 2052.95 433.302 2124.51 433.302 c 0
 2163 433.302 2189.55 428.422 2216.12 421.376 c 1
 2216.12 433.302 l 2
 2216.12 489.14 2181.96 517.858 2125.06 517.858 c 0
 2091.44 517.858 2063.8 508.642 2038.33 495.632 c 1
 2028.57 518.944 l 1
 2058.93 533.04 2088.75 542.782 2126.68 542.782 c 0
 2164.07 542.782 2193.89 532.482 2213.95 512.424 c 0
 2232.38 493.992 2242.14 468.512 2242.14 434.374 c 2
 2242.14 262.024 l 1
 2216.12 262.024 l 1
 2216.12 308.104 l 1
 2197.14 281.54 2163 255.518 2110.42 255.518 c 0
 2058.92 255.518 2003.64 284.792 2003.64 342.242 c 2
2216.66 365.552 m 2
 2216.66 396.994 l 1
 2193.35 402.958 2162.45 409.462 2122.89 409.462 c 0
 2064.34 409.462 2031.83 383.44 2031.83 344.95 c 2
 2031.83 343.866 l 2
 2031.83 303.75 2069.77 280.438 2112.04 280.438 c 0
 2168.41 280.456 2216.66 315.136 2216.66 365.552 c 2
2313.71 296.72 m 1
 2329.43 317.862 l 1
 2359.79 294.55 2393.4 281.54 2428.63 281.54 c 0
 2466.02 281.54 2495.29 302.14 2495.29 334.126 c 2
 2495.29 335.21 l 2
 2495.29 367.738 2460.6 379.664 2422.12 390.49 c 0
 2377.13 403.5 2327.27 417.054 2327.27 466.386 c 2
 2327.27 467.47 l 2
 2327.27 511.924 2364.67 543.908 2418.33 543.908 c 0
 2451.4 543.908 2488.79 531.982 2516.43 513.55 c 1
 2502.34 491.324 l 1
 2476.87 508.13 2446.5 518.972 2417.24 518.972 c 0
 2379.29 518.972 2354.35 498.372 2354.35 470.724 c 2
 2354.35 469.64 l 2
 2354.35 438.74 2391.76 427.354 2431.32 415.986 c 0
 2475.77 403.518 2522.38 387.254 2522.38 338.478 c 2
 2522.38 337.394 l 2
 2522.38 288.062 2480.09 256.634 2426.98 256.634 c 0
 2386.88 256.602 2342.99 272.866 2313.71 296.72 c 1
2577.72 296.72 m 1
 2593.45 317.862 l 1
 2623.8 294.55 2657.42 281.54 2692.64 281.54 c 0
 2730.03 281.54 2759.3 302.14 2759.3 334.126 c 2
 2759.3 335.21 l 2
 2759.3 367.738 2724.61 379.664 2686.13 390.49 c 0
 2641.14 403.5 2591.28 417.054 2591.28 466.386 c 2
 2591.28 467.47 l 2
 2591.28 511.924 2628.68 543.908 2682.34 543.908 c 0
 2715.41 543.908 2752.8 531.982 2780.45 513.55 c 1
 2766.35 491.324 l 1
 2740.89 508.13 2710.51 518.972 2681.25 518.972 c 0
 2643.3 518.972 2618.38 498.372 2618.38 470.724 c 2
 2618.38 469.64 l 2
 2618.38 438.74 2655.79 427.354 2695.35 415.986 c 0
 2739.8 403.518 2786.41 387.254 2786.41 338.478 c 2
 2786.41 337.394 l 2
 2786.41 288.062 2744.12 256.634 2691.01 256.634 c 0
 2650.9 256.602 2607 272.866 2577.72 296.72 c 1
2852.04 399.706 m 2
 2852.04 400.79 l 2
 2852.04 481.008 2908.4 544.978 2983.21 544.978 c 0
 3060.72 544.978 3110.05 482.108 3110.05 400.248 c 0
 3110.05 395.368 3110.05 393.742 3109.51 389.406 c 1
 2880.23 389.406 l 1
 2885.11 320.572 2934.44 280.456 2988.63 280.456 c 0
 3031.46 280.456 3060.72 299.43 3083.49 323.826 c 1
 3101.92 307.562 l 1
 3073.73 277.204 3040.68 255.518 2987.55 255.518 c 0
 2914.91 255.518 2852.04 313.51 2852.04 399.706 c 2
3081.32 413.26 m 0
 3077.53 469.098 3045.54 520.584 2982.13 520.584 c 0
 2927.39 520.584 2885.11 474.504 2880.23 413.26 c 1
 3081.32 413.26 l 0
3163.75 296.72 m 1
 3179.48 317.862 l 1
 3209.83 294.55 3243.45 281.54 3278.67 281.54 c 0
 3316.06 281.54 3345.33 302.14 3345.33 334.126 c 2
 3345.33 335.21 l 2
 3345.33 367.738 3310.64 379.664 3272.16 390.49 c 0
 3227.17 403.5 3177.31 417.054 3177.31 466.386 c 2
 3177.31 467.47 l 2
 3177.31 511.924 3214.71 543.908 3268.37 543.908 c 0
 3301.44 543.908 3338.83 531.982 3366.48 513.55 c 1
 3352.38 491.324 l 1
 3326.92 508.13 3296.54 518.972 3267.28 518.972 c 0
 3229.33 518.972 3204.41 498.372 3204.41 470.724 c 2
 3204.41 469.64 l 2
 3204.41 438.74 3241.82 427.354 3281.38 415.986 c 0
 3325.83 403.518 3372.44 387.254 3372.44 338.478 c 2
 3372.44 337.394 l 2
 3372.44 288.062 3330.15 256.634 3277.04 256.634 c 0
 3236.92 256.602 3193.03 272.866 3163.75 296.72 c 1
EndSplineSet
Validated: 37
EndChar

StartChar: uniE001
Encoding: 3 57345 3
Width: 1792
Flags: W
LayerCount: 2
Fore
SplineSet
885.274 571.636 m 1
 937.204 571.636 l 1
 1057.02 414.12 l 1
 1057.02 571.636 l 1
 1112.55 571.636 l 1
 1112.55 315.904 l 1
 1064.78 315.904 l 1
 940.876 478.502 l 1
 940.876 315.904 l 1
 885.272 315.904 l 1
 885.274 571.636 l 1
1242.38 416.704 m 1
 1144.04 571.636 l 1
 1209.86 571.636 l 1
 1270.89 468.992 l 1
 1332.99 571.636 l 1
 1396.93 571.636 l 1
 1298.59 417.844 l 1
 1298.59 315.892 l 1
 1242.38 315.892 l 1
 1242.38 416.704 l 1
1427.96 425.524 m 2
 1427.96 571.636 l 1
 1484.29 571.636 l 1
 1484.29 426.996 l 2
 1484.29 385.344 1505.02 363.7 1539.43 363.7 c 0
 1573.82 363.7 1594.61 384.576 1594.61 425.114 c 2
 1594.61 571.636 l 1
 1650.88 571.636 l 1
 1650.88 427.392 l 2
 1650.88 349.888 1607.41 311.884 1538.62 311.884 c 0
 1469.98 311.884 1427.96 350.17 1427.96 425.524 c 2
768 192 m 1
 256 192 l 1
 256 704 l 1
 768 704 l 1
 768 192 l 1
431.436 539.148 m 0
 410.88 516.85 400.768 436.914 489.676 436.914 c 2
 492.018 436.914 l 1
 436.696 467.506 443.75 512.856 465.51 544.574 c 0
 468.224 548.504 451.98 585.866 451.43 580.504 c 0
 449.652 564.608 434.97 545.152 431.436 539.148 c 0
506.714 438.656 m 0
 470.644 506.394 546.176 551.642 546.176 559.948 c 0
 546.176 583.512 530.624 627.584 529.114 621.708 c 0
 523.828 601.112 494.95 570.508 489.024 564.032 c 0
 438.028 507.93 450.842 462.836 506.714 438.656 c 1
 506.714 438.656 l 0
514.394 438.08 m 1
 519.118 506.956 585.716 514.676 590.912 528.116 c 0
 599.718 551.054 580.954 593.678 579.712 590.528 c 0
 573.236 573.44 559.718 558.694 559.718 558.694 c 1
 504.794 517.004 493.938 482.842 513.766 439.872 c 1
 514.394 438.08 l 1
521.446 436.916 m 1
 628.608 428.058 622.682 551.054 622.682 551.054 c 1
 616.206 535.17 602.65 527.322 601.498 525.812 c 0
 588.212 508.02 533.85 506.368 521.446 438.618 c 1
 521.446 436.916 l 1
544.972 406.31 m 1
 544.972 427.494 l 1
 472.012 427.494 l 1
 472.012 406.31 l 1
 544.972 406.31 l 1
502.618 257.946 m 2
 503.194 254.414 510.886 252.622 512.614 257.946 c 2
 530.24 398.016 l 1
 487.284 398.016 l 1
 502.618 257.946 l 2
EndSplineSet
Validated: 37
EndChar

StartChar: uniE002
Encoding: 4 57346 4
Width: 1024
LayerCount: 2
Fore
SplineSet
537.856 378.048 m 1
 537.856 361.984 535.168 359.36 519.168 359.36 c 2
 454.08 359.36 l 2
 438.08 359.36 435.392 361.984 435.392 378.048 c 2
 435.392 489.472 l 2
 435.392 510.912 467.456 514.496 498.688 525.184 c 0
 530.752 536.768 561.984 554.624 561.984 602.752 c 0
 561.984 643.776 536.128 666.048 487.936 666.048 c 0
 432.704 666.048 385.408 636.608 376.512 636.608 c 0
 372.032 636.608 367.616 641.024 366.72 645.568 c 2
 343.488 706.176 l 2
 341.696 709.76 341.696 712.448 341.696 716.032 c 0
 341.696 739.2 447.808 768.576 507.52 768.576 c 0
 615.488 768.576 682.304 699.072 682.304 601.92 c 0
 682.304 486.912 590.4 456.576 537.792 438.72 c 1
 537.792 378.048 l 1
 537.856 378.048 l 1
489.728 127.488 m 0
 446.912 127.488 413.888 162.304 413.888 202.432 c 0
 413.888 245.248 446.912 278.208 489.728 278.208 c 0
 531.648 278.208 564.544 244.352 564.544 202.432 c 0
 564.608 162.304 530.752 127.488 489.728 127.488 c 0
512 940.288 m 0
 240.064 940.288 19.648 719.936 19.648 448 c 0
 19.648 176.064 240.064 -44.288 512 -44.288 c 0
 783.872 -44.288 1004.35 176.064 1004.35 448 c 0
 1004.35 719.936 783.872 940.288 512 940.288 c 0
512 27.648 m 0
 280.192 27.648 91.648 216.192 91.648 447.936 c 0
 91.648 679.744 280.256 868.288 512 868.288 c 0
 743.744 868.288 932.352 679.744 932.352 447.936 c 0
 932.352 216.192 743.744 27.648 512 27.648 c 0
EndSplineSet
Validated: 41
EndChar

StartChar: uniE003
Encoding: 5 57347 5
Width: 1024
LayerCount: 2
Fore
SplineSet
858.752 794.752 m 0
 667.264 986.112 356.736 986.112 165.312 794.752 c 0
 -26.24 603.328 -26.24 292.8 165.312 101.312 c 0
 356.8 -90.176 667.328 -90.112 858.752 101.312 c 0
 1050.24 292.672 1050.24 603.328 858.752 794.752 c 0
491.392 53.568 m 0
 438.08 53.568 394.624 96.576 394.624 149.376 c 0
 394.624 203.648 437.12 246.144 491.392 246.144 c 0
 544.256 246.144 587.264 202.752 587.264 149.376 c 0
 587.264 97.408 543.36 53.568 491.392 53.568 c 0
558.72 389.632 m 1
 558.72 336.512 l 2
 558.72 310.656 548.608 300.544 522.752 300.544 c 2
 453.376 300.544 l 2
 427.52 300.544 417.408 310.656 417.408 336.512 c 2
 417.408 455.296 l 2
 417.408 485.248 448.192 494.208 475.328 502.144 c 0
 481.92 504.064 488.768 506.112 495.36 508.352 c 0
 530.624 521.024 552.384 536.768 552.384 576 c 0
 552.384 588.736 552.384 627.456 489.536 627.456 c 0
 450.752 627.456 415.488 612.608 394.432 603.648 c 0
 382.656 598.656 376.704 596.16 370.752 596.16 c 0
 358.656 596.16 347.136 605.952 345.344 616 c 2
 321.28 679.04 l 2
 317.696 686.208 317.696 691.968 317.696 696.64 c 0
 317.696 743.168 462.464 768.704 510.464 768.704 c 0
 631.424 768.704 712.64 690.88 712.64 575.04 c 0
 712.64 449.664 618.496 410.368 558.72 389.632 c 1
EndSplineSet
Validated: 41
EndChar

StartChar: uniE004
Encoding: 6 57348 6
Width: 1024
LayerCount: 2
Fore
SplineSet
819.008 660.736 m 1
 819.008 890.624 l 1
 691.008 890.624 l 1
 691.008 758.656 l 1
 510.144 901.376 l 1
 18.624 523.84 l 1
 111.04 421.952 l 1
 178.944 462.592 l 1
 178.944 -5.376 l 1
 883.008 -5.376 l 1
 883.008 462.592 l 1
 934.656 421.952 l 1
 1005.38 523.776 l 1
 819.008 660.736 l 1
627.008 58.624 m 1
 370.944 58.624 l 1
 370.944 378.624 l 1
 627.008 378.624 l 1
 627.008 58.624 l 1
EndSplineSet
Validated: 9
EndChar

StartChar: uniE005
Encoding: 7 57349 7
Width: 1024
LayerCount: 2
Fore
SplineSet
1006.66 523.776 m 1
 827.264 660.8 l 1
 827.264 887.232 l 1
 699.008 887.232 l 1
 699.008 758.592 l 1
 512 901.376 l 1
 17.344 523.84 l 1
 95.104 421.952 l 1
 148.352 462.592 l 1
 148.352 -5.376 l 1
 875.584 -5.376 l 1
 875.584 462.592 l 1
 928.768 421.952 l 1
 1006.66 523.776 l 1
804.352 65.856 m 1
 640.192 65.856 l 1
 640.192 336.512 l 1
 383.808 336.512 l 1
 383.808 65.856 l 1
 219.648 65.856 l 1
 219.648 507.904 l 1
 512 731.136 l 1
 804.352 507.904 l 1
 804.352 65.856 l 1
EndSplineSet
Validated: 9
EndChar

StartChar: uniE006
Encoding: 8 57350 8
Width: 1024
LayerCount: 2
Fore
SplineSet
419.52 288 m 1
 259.84 288 l 1
 267.008 264.512 272 241.856 272 224 c 0
 272 160 336 32 400 32 c 0
 464 32 528 96 464 160 c 0
 440.256 183.872 425.472 234.24 419.52 288 c 1
912 864 m 1
 912 864 746.496 698.752 569.216 675.072 c 0
 568.832 674.112 464 672 464 672 c 2
 144 672 l 2
 73.344 672 16 600.32 16 512 c 0
 16 423.68 73.344 352 144 352 c 2
 464 352 l 1
 464 352 568.832 350.016 569.216 348.992 c 0
 746.496 325.248 912 160 912 160 c 1
 1040 352 1040 672 912 864 c 1
528 544 m 1
 376.256 544 137.28 544 85.376 544 c 1
 90.688 544 98.624 608 144 608 c 0
 173.888 608 386.304 608 528 608 c 1
 528 544 l 1
656 544 m 1
 606.08 544 l 2
 601.408 544 597.184 544 592 544 c 1
 592 608 l 1
 601.792 608 610.752 608 618.624 608 c 0
 753.728 626.048 888.384 762.496 888.384 762.496 c 1
 932.992 695.552 912 544 912 544 c 1
 656 544 l 1
EndSplineSet
Validated: 41
EndChar

StartChar: uniE007
Encoding: 9 57351 9
Width: 1024
LayerCount: 2
Fore
SplineSet
666.496 960 m 1
 64 960 l 1
 64 -64 l 1
 960 -64 l 1
 960 666.496 l 1
 666.496 960 l 1
832 64 m 1
 192 64 l 1
 192 832 l 1
 613.504 832 l 1
 832 613.504 l 1
 832 64 l 1
256.064 550.272 m 0
 256.064 497.253 299.045 454.272 352.064 454.272 c 0
 405.083 454.272 448.064 497.253 448.064 550.272 c 0
 448.064 603.291 405.083 646.272 352.064 646.272 c 0
 299.045 646.272 256.064 603.291 256.064 550.272 c 0
384 326.272 m 1
 256 134.272 l 1
 768 134.272 l 1
 640 582.272 l 1
 512 198.272 l 1
 384 326.272 l 1
EndSplineSet
Validated: 9
EndChar

StartChar: uniE008
Encoding: 10 57352 10
Width: 1024
LayerCount: 2
Fore
SplineSet
666.496 960 m 1
 64 960 l 1
 64 -64 l 1
 960 -64 l 1
 960 666.496 l 1
 666.496 960 l 1
832 64 m 1
 192 64 l 1
 192 832 l 1
 613.504 832 l 1
 832 613.504 l 1
 832 64 l 1
256 379.264 m 1
 448 187.264 l 1
 448 277.76 l 1
 346.496 379.264 l 1
 448 480.768 l 1
 448 571.2 l 1
 301.248 424.512 l 1
 256 379.264 l 1
576 491.712 m 1
 677.504 390.208 l 1
 576 288.768 l 1
 576 198.272 l 1
 768 390.208 l 1
 576 582.208 l 1
 576 491.712 l 1
EndSplineSet
Validated: 9
EndChar

StartChar: uniE009
Encoding: 11 57353 11
Width: 1024
LayerCount: 2
Fore
SplineSet
666.496 960 m 1
 64 960 l 1
 64 -64 l 1
 960 -64 l 1
 960 666.496 l 1
 666.496 960 l 1
832 64 m 1
 192 64 l 1
 192 832 l 1
 613.504 832 l 1
 832 613.504 l 1
 832 64 l 1
336.704 681.344 m 1
 418.752 506.176 l 1
 418.752 506.176 418.944 506.752 419.008 506.944 c 2
 497.984 339.072 l 1
 486.208 340.864 473.984 342.016 461.376 342.016 c 0
 375.936 342.016 306.688 299.648 306.688 247.36 c 0
 306.688 195.072 375.936 152.704 461.376 152.704 c 0
 546.752 152.704 616 195.072 616 247.36 c 0
 616 256.512 466.24 584.32 466.24 584.32 c 2
 466.368 584.448 466.496 584.576 466.624 584.704 c 0
 546.624 614.016 616 446.016 770.688 544.704 c 1
 672 512.704 640 704 336.704 681.344 c 1
EndSplineSet
Validated: 41
EndChar

StartChar: uniE00A
Encoding: 12 57354 12
Width: 1024
LayerCount: 2
Fore
SplineSet
666.496 960 m 1
 64 960 l 1
 64 -64 l 1
 960 -64 l 1
 960 666.496 l 1
 666.496 960 l 1
832 64 m 1
 192 64 l 1
 192 832 l 1
 613.504 832 l 1
 832 613.504 l 1
 832 64 l 1
384 198.272 m 1
 724.672 390.272 l 1
 384 582.272 l 1
 384 198.272 l 1
EndSplineSet
Validated: 9
EndChar

StartChar: uniE00B
Encoding: 13 57355 13
Width: 1024
LayerCount: 2
Fore
SplineSet
666.496 960 m 1
 64 960 l 1
 64 -64 l 1
 960 -64 l 1
 960 666.496 l 1
 666.496 960 l 1
832 64 m 1
 192 64 l 1
 192 832 l 1
 613.504 832 l 1
 832 613.504 l 1
 832 64 l 1
256 384 m 1
 256 128 l 1
 768 128 l 1
 768 576 l 1
 256 576 l 1
 256 384 l 1
512 512 m 1
 704 512 l 1
 704 384 l 1
 512 384 l 1
 512 512 l 1
512 320 m 1
 704 320 l 1
 704 192 l 1
 512 192 l 1
 512 320 l 1
320 512 m 1
 448 512 l 1
 448 384 l 1
 320 384 l 1
 320 512 l 1
320 320 m 1
 448 320 l 1
 448 192 l 1
 320 192 l 1
 320 320 l 1
EndSplineSet
Validated: 9
EndChar

StartChar: uniE00C
Encoding: 14 57356 14
Width: 1024
LayerCount: 2
Fore
SplineSet
0 928 m 1
 0 -32 l 1
 1024 -32 l 1
 1024 928 l 1
 0 928 l 1
64 32 m 1
 64 864 l 1
 320 864 l 1
 320 32 l 1
 64 32 l 1
960 32 m 1
 384 32 l 1
 384 416 l 1
 960 416 l 1
 960 32 l 1
960 480 m 1
 384 480 l 1
 384 864 l 1
 960 864 l 1
 960 480 l 1
EndSplineSet
Validated: 9
EndChar

StartChar: uniE00D
Encoding: 15 57357 15
Width: 1024
LayerCount: 2
Fore
SplineSet
666.496 960 m 1
 64 960 l 1
 64 -64 l 1
 640 -64 l 1
 640 64 l 1
 192 64 l 1
 192 832 l 1
 613.504 832 l 1
 832 613.504 l 1
 832 384 l 1
 960 384 l 1
 960 666.496 l 1
 666.496 960 l 1
768 384 m 0
 768 525.184 653.12 640 512 640 c 0
 370.816 640 256 525.184 256 384 c 0
 256 242.88 370.816 128 512 128 c 0
 547.456 128 581.248 135.232 611.968 148.352 c 1
 781.312 -20.992 l 1
 917.056 114.752 l 1
 747.712 284.096 l 1
 760.768 314.816 768 348.544 768 384 c 0
384 384 m 0
 384 454.656 441.344 512 512 512 c 0
 582.656 512 640 454.656 640 384 c 0
 640 313.344 582.656 256 512 256 c 0
 441.344 256 384 313.344 384 384 c 0
EndSplineSet
Validated: 9
EndChar

StartChar: uniE00E
Encoding: 16 57358 16
Width: 1024
LayerCount: 2
Fore
SplineSet
704 -15.488 m 1
 704 -64 l 1
 832 -64 l 1
 832 112 l 1
 704.256 -15.744 l 1
 704 -15.488 l 1
128 832 m 1
 485.504 832 l 1
 668.48 649.024 l 1
 758.976 739.52 l 1
 538.496 960 l 1
 0 960 l 1
 0 -64 l 1
 320 -64 l 1
 320 64 l 1
 128 64 l 1
 128 832 l 1
384 0 m 1
 576 0 l 1
 384 192 l 1
 384 0 l 1
448 256 m 1
 832 639.936 l 1
 1024 447.936 l 1
 640 64 l 1
 448 256 l 1
EndSplineSet
Validated: 9
EndChar

StartChar: uniE00F
Encoding: 17 57359 17
Width: 1024
LayerCount: 2
Fore
SplineSet
666.496 960 m 1
 64 960 l 1
 64 -64 l 1
 960 -64 l 1
 960 666.496 l 1
 666.496 960 l 1
832 64 m 1
 192 64 l 1
 192 832 l 1
 613.504 832 l 1
 832 613.504 l 1
 832 64 l 1
448 435.52 m 1
 256 243.52 l 1
 256 153.024 l 1
 448 345.024 l 1
 576 217.024 l 1
 768 409.024 l 1
 768 499.52 l 1
 576 307.52 l 1
 448 435.52 l 1
EndSplineSet
Validated: 9
EndChar

StartChar: uniE010
Encoding: 18 57360 18
Width: 1024
LayerCount: 2
Fore
SplineSet
666.496 960 m 1
 64 960 l 1
 64 -64 l 1
 960 -64 l 1
 960 666.496 l 1
 666.496 960 l 1
832 64 m 1
 192 64 l 1
 192 832 l 1
 613.504 832 l 1
 832 613.504 l 1
 832 64 l 1
770.048 345.408 m 0
 759.872 355.52 737.152 360.832 702.528 361.216 c 0
 679.168 361.536 651.008 359.488 621.44 355.328 c 1
 608.192 363.008 594.56 371.264 583.808 381.248 c 0
 555.008 408.256 530.88 445.696 515.904 486.784 c 0
 516.864 490.624 517.696 494.016 518.464 497.408 c 2
 518.464 497.408 534.784 589.696 530.496 620.992 c 0
 529.856 625.28 529.536 626.496 528.32 629.76 c 2
 526.848 633.344 l 2
 522.432 643.584 513.792 654.4 500.224 653.76 c 2
 492.288 654.08 l 1
 492.032 654.08 l 2
 476.864 654.08 464.512 646.336 461.312 634.816 c 0
 451.456 598.4 461.632 544.064 480.064 473.728 c 1
 475.328 462.272 l 2
 462.144 430.08 445.568 397.696 431.04 369.152 c 2
 429.12 365.44 l 2
 413.824 335.424 399.872 309.952 387.328 288.384 c 1
 374.208 281.472 l 2
 373.248 280.96 350.912 269.12 345.664 265.984 c 0
 301.248 239.424 271.808 209.28 266.944 185.472 c 0
 265.408 177.728 266.56 168 274.432 163.52 c 2
 287.04 157.12 l 2
 292.544 154.368 298.24 153.024 304.128 153.024 c 0
 335.872 153.024 372.608 192.448 423.168 280.704 c 1
 481.6 299.712 548.16 315.584 606.4 324.416 c 1
 650.88 299.264 705.536 282.048 740.032 282.048 c 0
 746.24 282.048 751.488 282.56 755.776 283.648 c 0
 762.432 285.44 767.936 289.152 771.328 294.208 c 0
 777.984 304.448 779.392 318.208 777.664 332.48 c 0
 777.088 336.704 773.696 341.888 770.048 345.408 c 0
297.344 177.024 m 1
 303.168 192.896 325.952 224 359.744 251.648 c 0
 361.856 253.44 367.104 258.368 371.84 262.912 c 1
 336.512 206.528 312.896 184.064 297.344 177.024 c 1
497.408 637.76 m 0
 507.584 637.76 513.408 612.096 513.856 588.096 c 0
 514.304 564.096 508.672 547.136 501.696 534.72 c 1
 495.936 553.216 493.12 582.336 493.12 601.408 c 1
 493.12 601.344 492.8 637.76 497.408 637.76 c 0
437.696 309.44 m 1
 444.8 322.112 452.16 335.488 459.712 349.632 c 0
 478.08 384.448 489.664 411.584 498.304 433.92 c 1
 515.52 402.688 536.96 376.064 562.048 354.752 c 0
 565.248 352.128 568.448 349.44 571.968 346.88 c 1
 520.896 336.704 476.608 324.416 437.696 309.44 c 1
760.256 312.384 m 0
 757.056 310.4 748.224 309.184 742.464 309.184 c 0
 723.968 309.184 701.056 317.632 668.864 331.456 c 1
 681.216 332.48 692.544 332.928 702.592 332.928 c 0
 721.28 332.928 726.784 332.928 744.96 328.256 c 0
 763.2 323.648 763.328 314.176 760.256 312.384 c 0
EndSplineSet
Validated: 41
EndChar

StartChar: uniE011
Encoding: 19 57361 19
Width: 1024
LayerCount: 2
Fore
SplineSet
666.496 960 m 1
 64 960 l 1
 64 -64 l 1
 960 -64 l 1
 960 666.496 l 1
 666.496 960 l 1
512 832 m 1
 512 768 l 1
 576 768 l 1
 576 704 l 1
 512 704 l 1
 512 640 l 1
 576 640 l 1
 576 576 l 1
 512 576 l 1
 512 512 l 1
 576 512 l 1
 576 448 l 1
 512 448 l 1
 512 384 l 1
 576 384 l 1
 576 320 l 1
 512 320 l 1
 512 384 l 1
 448 384 l 1
 448 448 l 1
 512 448 l 1
 512 512 l 1
 448 512 l 1
 448 576 l 1
 512 576 l 1
 512 640 l 1
 448 640 l 1
 448 704 l 1
 512 704 l 1
 512 768 l 1
 448 768 l 1
 448 832 l 1
 512 832 l 1
320 64 m 1
 192 64 l 1
 192 832 l 1
 384 832 l 1
 384 320 l 1
 320 320 l 1
 320 64 l 1
640 0 m 1
 384 0 l 1
 384 256 l 1
 640 256 l 1
 640 0 l 1
832 64 m 1
 704 64 l 1
 704 320 l 1
 640 320 l 1
 640 805.504 l 1
 832 613.504 l 1
 832 64 l 1
448 192 m 1
 576 192 l 1
 576 128 l 1
 448 128 l 1
 448 192 l 1
EndSplineSet
Validated: 5
EndChar

StartChar: uniE012
Encoding: 20 57362 20
Width: 1024
LayerCount: 2
Fore
SplineSet
682.112 576 m 1
 580.736 576 l 1
 508.928 470.208 l 1
 437.12 576 l 1
 335.616 576 l 1
 457.216 394.112 l 1
 320 192 l 1
 516.672 192 l 1
 516.672 260.672 l 1
 471.296 260.672 l 1
 508.864 316.928 l 1
 592.512 192 l 1
 697.856 192 l 1
 560.512 394.112 l 1
 682.112 576 l 1
666.496 960 m 1
 64 960 l 1
 64 -64 l 1
 960 -64 l 1
 960 666.496 l 1
 666.496 960 l 1
832 64 m 1
 192 64 l 1
 192 832 l 1
 613.504 832 l 1
 832 613.504 l 1
 832 64 l 1
EndSplineSet
Validated: 9
EndChar

StartChar: uniE013
Encoding: 21 57363 21
Width: 1024
LayerCount: 2
Fore
SplineSet
666.496 960 m 1
 64 960 l 1
 64 -64 l 1
 960 -64 l 1
 960 666.496 l 1
 666.496 960 l 1
832 64 m 1
 192 64 l 1
 192 832 l 1
 613.504 832 l 1
 832 613.504 l 1
 832 64 l 1
607.936 474.432 m 1
 641.216 474.432 l 1
 602.88 304.64 l 1
 553.088 543.424 l 1
 473.024 543.424 l 1
 415.104 304.64 l 1
 371.712 543.424 l 1
 288 543.424 l 1
 372.928 159.104 l 1
 454.656 159.104 l 1
 512 386.304 l 1
 563.328 159.104 l 1
 638.72 159.104 l 1
 736 543.424 l 1
 607.936 543.424 l 1
 607.936 474.432 l 1
EndSplineSet
Validated: 9
EndChar

StartChar: uniE014
Encoding: 22 57364 22
Width: 1024
LayerCount: 2
Fore
SplineSet
666.496 960 m 1
 64 960 l 1
 64 -64 l 1
 960 -64 l 1
 960 666.496 l 1
 666.496 960 l 1
832 64 m 1
 192 64 l 1
 192 832 l 1
 613.504 832 l 1
 832 613.504 l 1
 832 64 l 1
633.984 556.032 m 2
 620.032 556.032 l 2
 606.656 556.032 593.792 552.576 581.504 545.728 c 0
 569.216 538.88 558.272 529.6 548.48 517.952 c 0
 538.688 506.304 530.304 494.464 523.328 482.496 c 0
 516.288 470.528 509.76 457.728 503.616 444.032 c 1
 577.984 444.032 l 2
 581.76 444.032 585.024 442.688 587.84 439.936 c 0
 590.656 437.056 592 433.728 592 430.016 c 2
 592 374.016 l 2
 592 370.24 590.656 366.976 587.904 364.16 c 0
 585.088 361.344 581.76 360 577.984 360 c 2
 473.856 360 l 1
 471.232 354.496 468.096 347.136 464.448 338.112 c 0
 460.8 329.088 457.728 321.28 455.232 314.944 c 0
 452.736 308.608 449.472 300.992 445.376 292.352 c 0
 441.28 283.776 437.376 276.352 433.536 270.08 c 0
 429.76 263.744 425.088 256.96 419.52 249.472 c 0
 414.016 242.112 408.192 235.712 402.24 230.464 c 0
 396.288 225.216 389.12 220.032 380.8 214.976 c 0
 372.48 209.856 363.648 205.696 354.304 202.496 c 0
 344.96 199.296 334.336 196.736 322.368 194.88 c 0
 310.528 192.96 297.728 192 284.032 192 c 2
 270.016 192 l 2
 266.24 192 262.976 193.344 260.16 196.096 c 0
 257.344 198.912 256 202.24 256 206.016 c 2
 256 262.016 l 2
 256 265.792 257.344 269.056 260.16 271.872 c 0
 262.912 274.624 266.24 275.968 270.016 275.968 c 2
 284.032 275.968 l 2
 298.624 275.968 313.088 280.576 327.36 289.728 c 0
 341.632 299.008 354.176 310.72 364.992 324.992 c 0
 375.808 339.264 385.024 354.368 392.768 370.24 c 0
 400.448 386.176 406.208 401.344 409.984 416 c 0
 412.352 425.6 415.168 435.712 418.56 446.208 c 0
 421.952 456.704 426.816 469.504 433.216 484.736 c 0
 439.616 499.84 446.656 514.24 454.4 527.808 c 0
 462.144 541.376 471.68 555.2 483.072 569.344 c 0
 494.464 583.488 506.624 595.584 519.616 605.632 c 0
 532.544 615.744 547.776 624 565.12 630.4 c 0
 582.464 636.8 600.768 640 620.032 640 c 2
 634.048 640 l 2
 637.824 640 641.088 638.656 643.904 635.84 c 0
 646.656 633.088 648 629.76 648 625.984 c 2
 648 569.984 l 2
 648 566.208 646.656 562.944 643.904 560.128 c 0
 641.088 557.376 637.76 556.032 633.984 556.032 c 2
EndSplineSet
Validated: 9
EndChar

StartChar: uniE015
Encoding: 23 57365 23
Width: 1024
LayerCount: 2
Fore
SplineSet
634.496 960 m 1
 96 960 l 1
 96 -64 l 1
 928 -64 l 1
 928 666.496 l 1
 634.496 960 l 1
800 64 m 1
 224 64 l 1
 224 832 l 1
 581.504 832 l 1
 608 805.504 l 1
 608 640 l 1
 773.504 640 l 1
 800 613.504 l 1
 800 64 l 1
EndSplineSet
Validated: 9
EndChar

StartChar: uniE016
Encoding: 24 57366 24
Width: 1024
LayerCount: 2
Fore
SplineSet
886.912 822.976 m 0
 790.72 919.232 634.496 919.232 538.176 822.976 c 0
 468.8 753.536 450.24 653.184 480.96 566.336 c 1
 114.752 200.128 l 1
 64.832 50.624 l 1
 214.4 0.832 l 1
 258.944 50.624 l 1
 403.2 100.48 l 1
 403.2 200.128 l 1
 458.176 249.856 l 1
 510.656 200.128 l 1
 611.584 299.776 l 1
 562.432 349.632 l 1
 630.08 417.024 l 1
 716.992 386.176 817.536 404.736 886.976 474.176 c 0
 983.296 570.432 983.296 726.656 886.912 822.976 c 0
768.832 624.832 m 0
 724.736 624.832 688.832 660.736 688.832 704.832 c 0
 688.832 748.928 724.736 784.832 768.832 784.832 c 0
 812.928 784.832 848.832 748.928 848.832 704.832 c 0
 848.832 660.736 812.928 624.832 768.832 624.832 c 0
EndSplineSet
Validated: 41
EndChar

StartChar: uniE017
Encoding: 25 57367 25
Width: 1024
LayerCount: 2
Fore
SplineSet
666.496 960 m 1
 64 960 l 1
 64 -64 l 1
 960 -64 l 1
 960 666.496 l 1
 666.496 960 l 1
832 64 m 1
 192 64 l 1
 192 832 l 1
 613.504 832 l 1
 832 613.504 l 1
 832 64 l 1
320 512 m 1
 704 512 l 1
 704 448 l 1
 320 448 l 1
 320 512 l 1
320 640 m 1
 576 640 l 1
 576 576 l 1
 320 576 l 1
 320 640 l 1
320 384 m 1
 704 384 l 1
 704 320 l 1
 320 320 l 1
 320 384 l 1
320 256 m 1
 704 256 l 1
 704 192 l 1
 320 192 l 1
 320 256 l 1
EndSplineSet
Validated: 9
EndChar

StartChar: uniE018
Encoding: 26 57368 26
Width: 1024
LayerCount: 2
Fore
SplineSet
962.048 892.352 m 0
 944.576 908.608 912.32 928 857.792 928 c 2
 425.792 928 l 2
 277.12 928 185.792 816.192 185.792 736 c 2
 185.792 288 l 2
 185.792 273.856 176.064 252.352 162.176 224 c 1
 153.792 224 l 2
 69.824 224 25.792 159.616 25.792 96 c 0
 25.792 32.448 69.824 -32 153.792 -32 c 2
 633.792 -32 l 2
 748.224 -32 761.792 284.864 761.792 288 c 2
 761.792 672 l 1
 857.792 672 l 2
 944.448 672 998.144 742.592 998.144 807.936 c 0
 998.208 840.832 985.344 870.784 962.048 892.352 c 0
697.344 757.952 m 0
 697.6 750.336 697.856 743.04 697.856 736 c 2
 697.856 288 l 2
 697.856 203.392 661.12 45.12 632.96 32 c 1
 153.792 32 l 2
 136.448 32 124.48 37.632 114.688 44.864 c 0
 97.728 57.536 89.792 77.312 89.792 96 c 0
 89.792 119.488 101.184 145.344 129.216 155.264 c 0
 136.512 157.76 144.128 160 153.792 160 c 2
 569.792 160 l 2
 587.456 160 601.792 174.4 601.792 192 c 0
 601.792 209.728 587.456 224 569.792 224 c 2
 232.768 224 l 1
 243.2 247.616 249.856 267.648 249.856 288 c 2
 249.856 736 l 2
 249.856 779.456 312 864 425.856 864 c 2
 711.36 864 l 1
 694.912 830.592 696.192 791.04 697.344 757.952 c 0
914.048 759.04 m 0
 904.128 748.544 886.208 736 857.792 736 c 2
 761.792 736 l 1
 761.792 743.616 761.536 751.744 761.28 760 c 0
 760.128 792.256 758.976 828.736 776.128 846.528 c 0
 787.456 858.112 808.32 864 838.208 864 c 2
 857.856 864 l 2
 905.6 864 934.208 843.072 934.208 807.936 c 0
 934.208 790.336 926.784 772.48 914.048 759.04 c 0
EndSplineSet
Validated: 41
EndChar

StartChar: uniE019
Encoding: 27 57369 27
Width: 1024
LayerCount: 2
Fore
SplineSet
1007.55 470.656 m 2
 534.592 943.488 l 2
 522.176 955.904 501.76 955.904 489.344 943.488 c 2
 16.512 470.656 l 2
 4.096 458.24 4.096 437.824 16.512 425.408 c 2
 489.408 -47.552 l 2
 501.824 -59.968 522.24 -59.968 534.656 -47.552 c 2
 1007.62 425.408 l 2
 1019.97 437.888 1019.97 458.24 1007.55 470.656 c 2
569.856 217.856 m 2
 569.856 200.256 555.392 185.856 537.856 185.856 c 2
 473.856 185.856 l 2
 456.256 185.856 441.856 200.256 441.856 217.856 c 2
 441.856 281.856 l 2
 441.856 299.456 456.256 313.856 473.856 313.856 c 2
 537.856 313.856 l 2
 555.392 313.856 569.856 299.456 569.856 281.856 c 2
 569.856 217.856 l 2
569.856 409.856 m 2
 569.856 392.256 555.392 377.856 537.856 377.856 c 2
 473.856 377.856 l 2
 456.256 377.856 441.856 392.256 441.856 409.856 c 2
 441.856 665.856 l 2
 441.856 683.456 456.256 697.856 473.856 697.856 c 2
 537.856 697.856 l 2
 555.392 697.856 569.856 683.456 569.856 665.856 c 2
 569.856 409.856 l 2
EndSplineSet
Validated: 41
EndChar

StartChar: uniE01A
Encoding: 28 57370 28
Width: 1024
LayerCount: 2
Fore
SplineSet
858.752 794.752 m 0
 667.264 986.112 356.736 986.112 165.312 794.752 c 0
 -26.24 603.328 -26.24 292.8 165.312 101.312 c 0
 356.8 -90.176 667.328 -90.112 858.752 101.312 c 0
 1050.24 292.672 1050.24 603.328 858.752 794.752 c 0
477.312 768.704 m 2
 578.944 768.704 l 2
 609.472 768.704 613.952 750.976 613.952 740.352 c 0
 613.952 736.064 613.952 736.064 613.696 731.072 c 2
 612.992 720.448 l 1
 592.064 348.16 l 2
 589.12 320.192 576.768 314.816 556.224 314.816 c 2
 502.08 314.816 l 2
 481.6 314.816 469.12 320.256 466.112 348.928 c 2
 445.248 720.384 l 1
 444.608 731.072 l 2
 444.224 736.064 444.224 736.064 444.224 740.352 c 0
 444.224 750.976 448.576 768.704 477.312 768.704 c 2
529.6 53.568 m 0
 476.288 53.568 432.832 96.576 432.832 149.376 c 0
 432.832 203.648 475.328 246.144 529.6 246.144 c 0
 582.464 246.144 625.472 202.752 625.472 149.376 c 0
 625.408 97.408 581.504 53.568 529.6 53.568 c 0
EndSplineSet
Validated: 41
EndChar

StartChar: uniE01B
Encoding: 29 57371 29
Width: 1024
LayerCount: 2
Fore
SplineSet
963.328 118.4 m 2
 828.672 373.056 l 2
 795.328 435.072 740.672 536.448 707.328 598.4 c 2
 572.672 848.448 l 2
 539.328 910.464 484.672 910.464 451.328 848.448 c 2
 316.672 597.312 l 2
 283.328 535.296 228.672 432.768 195.328 370.752 c 2
 60.672 118.4 l 2
 27.328 56.384 57.536 1.152 128.064 1.152 c 2
 384.064 1.152 l 2
 454.464 1.152 569.536 1.152 640.064 1.152 c 2
 896.064 1.152 l 2
 966.464 1.152 996.672 56.384 963.328 118.4 c 2
576.064 129.152 m 1
 448.064 129.152 l 1
 448.064 257.152 l 1
 576.064 257.152 l 1
 576.064 129.152 l 1
576.064 321.152 m 1
 448.064 321.152 l 1
 448.064 577.152 l 1
 576.064 577.152 l 1
 576.064 321.152 l 1
EndSplineSet
Validated: 41
EndChar

StartChar: uniE01C
Encoding: 30 57372 30
Width: 1024
LayerCount: 2
Fore
SplineSet
992.256 71.872 m 2
 543.744 856.768 l 2
 526.272 887.36 497.728 887.36 480.256 856.768 c 2
 31.744 71.872 l 2
 14.272 41.344 28.8 16.32 64 16.32 c 2
 960 16.32 l 2
 995.136 16.32 1009.73 41.344 992.256 71.872 c 2
576 176.32 m 2
 576 158.72 561.6 144.32 544 144.32 c 2
 480 144.32 l 2
 462.4 144.32 448 158.72 448 176.32 c 2
 448 240.32 l 2
 448 257.92 462.4 272.32 480 272.32 c 2
 544 272.32 l 2
 561.6 272.32 576 257.92 576 240.32 c 2
 576 176.32 l 2
576 368.32 m 1
 576 350.72 561.6 336.32 544 336.32 c 2
 480 336.32 l 2
 462.4 336.32 448 350.72 448 368.32 c 2
 448 560.32 l 2
 448 577.92 462.4 592.32 480 592.32 c 2
 544 592.32 l 2
 561.6 592.32 576 577.92 576 560.32 c 2
 576 368.32 l 1
EndSplineSet
Validated: 41
EndChar

StartChar: uniE01D
Encoding: 31 57373 31
Width: 1024
LayerCount: 2
Fore
SplineSet
858.752 794.816 m 0
 667.264 986.176 356.736 986.176 165.312 794.816 c 0
 -26.24 603.392 -26.24 292.8 165.312 101.312 c 0
 356.8 -90.176 667.328 -90.112 858.752 101.312 c 0
 1050.24 292.672 1050.24 603.392 858.752 794.816 c 0
504.064 853.632 m 0
 555.84 853.632 597.952 811.52 597.952 759.68 c 0
 597.952 707.456 555.84 664.896 504.064 664.896 c 0
 451.776 664.896 409.216 707.456 409.216 759.68 c 0
 409.28 812.352 450.88 853.632 504.064 853.632 c 0
654.976 163.008 m 1
 654.976 143.232 645.44 133.696 625.728 133.696 c 2
 383.424 133.696 l 2
 363.712 133.696 354.112 143.232 354.112 163.008 c 2
 354.112 224.768 l 2
 354.112 244.544 363.712 254.08 383.424 254.08 c 2
 428.224 254.08 l 1
 428.224 514.688 l 1
 382.464 514.688 l 2
 362.752 514.688 353.152 524.224 353.152 544 c 2
 353.152 605.76 l 2
 353.152 625.536 362.688 635.072 382.464 635.072 c 2
 551.616 635.072 l 2
 571.328 635.072 580.864 625.536 580.864 605.76 c 2
 580.864 254.08 l 1
 625.728 254.08 l 2
 645.44 254.08 654.976 244.544 654.976 224.768 c 2
 654.976 163.008 l 1
EndSplineSet
Validated: 41
EndChar

StartChar: uniE01E
Encoding: 32 57374 32
Width: 1024
LayerCount: 2
Fore
SplineSet
0 64 m 1
 1024 64 l 1
 1024 704 l 1
 448 704 l 1
 336 832 l 1
 0 832 l 1
 0 64 l 1
EndSplineSet
Validated: 9
EndChar

StartChar: uniE01F
Encoding: 33 57375 33
Width: 1024
LayerCount: 2
Fore
SplineSet
960 736 m 1
 384 736 l 1
 256 864 l 1
 64 864 l 1
 64 672 l 1
 960 672 l 1
 960 736 l 1
0 608 m 1
 128 32 l 1
 384 32 l 1
 384 224 l 1
 256 224 l 1
 512 480 l 1
 768 224 l 1
 640 224 l 1
 640 32 l 1
 896 32 l 1
 1024 608 l 1
 0 608 l 1
EndSplineSet
Validated: 9
EndChar

StartChar: uniE020
Encoding: 34 57376 34
Width: 1024
LayerCount: 2
Fore
SplineSet
448 736 m 1
 336 864 l 1
 0 864 l 1
 0 32 l 1
 1024 32 l 1
 1024 736 l 1
 448 736 l 1
320 160 m 1
 320 352 l 1
 512 160 l 1
 320 160 l 1
576 224 m 1
 384 416 l 1
 640 672 l 1
 832 480 l 1
 576 224 l 1
EndSplineSet
Validated: 9
EndChar

StartChar: uniE021
Encoding: 35 57377 35
Width: 1024
LayerCount: 2
Fore
SplineSet
0 485.12 m 1
 107.776 0 l 1
 754.496 0 l 1
 862.4 485.12 l 1
 0 485.12 l 1
592.832 592.896 m 1
 323.328 592.896 l 1
 215.616 700.672 l 1
 53.888 700.672 l 1
 53.888 539.008 l 1
 592.832 539.008 l 1
 592.832 592.896 l 1
847.552 896 m 1
 538.944 896 l 1
 538.944 303.168 l 1
 1024 303.168 l 1
 1024 706.368 l 1
 847.552 896 l 1
970.112 357.056 m 1
 592.832 357.056 l 1
 592.832 842.112 l 1
 808.512 842.112 l 1
 808.512 680.384 l 1
 970.112 680.384 l 1
 970.112 357.056 l 1
EndSplineSet
Validated: 5
EndChar

StartChar: uniE022
Encoding: 36 57378 36
Width: 1024
LayerCount: 2
Fore
SplineSet
32 389.12 m 1
 139.776 -96 l 1
 786.496 -96 l 1
 894.4 389.12 l 1
 32 389.12 l 1
560.896 496.896 m 1
 355.328 496.896 l 1
 247.616 604.672 l 1
 85.888 604.672 l 1
 85.888 443.008 l 1
 560.896 443.008 l 1
 560.896 496.896 l 1
1024 672 m 2
 576 672 l 2
 558.272 672 544 657.6 544 640 c 2
 544 320.064 l 2
 544 302.464 558.272 288.064 576 288.064 c 2
 1024 288.064 l 2
 1041.73 288.064 1056 302.464 1056 320.064 c 2
 1056 640 l 2
 1056 657.6 1041.73 672 1024 672 c 2
960 608 m 1
 800 480 l 1
 640 608 l 1
 960 608 l 1
992 352.064 m 1
 608 352.064 l 1
 608 576 l 1
 800 416.064 l 1
 992 576 l 1
 992 352.064 l 1
EndSplineSet
Validated: 5
EndChar

StartChar: uniE023
Encoding: 37 57379 37
Width: 1024
LayerCount: 2
Fore
SplineSet
544 512 m 5
 544 640 l 5
 288 448 l 5
 544 256 l 5
 544 384 l 5
 992 384 l 5
 992 512 l 5
 544 512 l 5
32 896 m 1
 160 896 l 1
 160 0 l 1
 32 0 l 1
 32 896 l 1
EndSplineSet
Validated: 9
EndChar

StartChar: uniE024
Encoding: 38 57380 38
Width: 1024
LayerCount: 2
Fore
SplineSet
480 512 m 1
 32 512 l 1
 32 384 l 1
 480 384 l 1
 480 256 l 1
 736 448 l 1
 480 640 l 1
 480 512 l 1
864 896 m 1
 992 896 l 1
 992 0 l 1
 864 0 l 1
 864 896 l 1
EndSplineSet
Validated: 9
EndChar

StartChar: uniE025
Encoding: 39 57381 39
Width: 1024
LayerCount: 2
Fore
SplineSet
73.984 282.304 m 1
 51.584 125.312 l 1
 29.312 -31.552 l 1
 343.296 13.056 l 1
 208.704 147.712 l 1
 73.984 282.304 l 1
387.648 148.544 m 1
 342.848 193.408 l 1
 746.624 597.312 l 1
 656.768 687.104 l 1
 252.928 283.328 l 1
 208 328.192 l 1
 611.968 732.032 l 1
 567.104 776.832 l 1
 118.4 328.192 l 1
 387.648 58.944 l 1
 836.224 507.648 l 1
 791.488 552.512 l 1
 387.648 148.544 l 1
975.616 729.152 m 2
 796.096 908.672 l 2
 771.456 933.312 731.84 934.016 708.352 910.4 c 0
 706.368 908.48 705.472 905.984 703.872 903.872 c 2
 702.848 905.024 l 1
 616.64 818.816 l 1
 885.888 549.632 l 1
 972.032 635.776 l 1
 970.88 636.928 l 2
 973.12 638.464 975.488 639.232 977.408 641.152 c 0
 1001.15 664.832 1000.26 704.448 975.616 729.152 c 2
EndSplineSet
Validated: 41
EndChar

StartChar: uniE026
Encoding: 40 57382 40
Width: 1024
LayerCount: 2
Fore
SplineSet
11.264 507.84 m 1
 8.128 469.184 l 1
 208.768 64.064 749.76 20.416 1012.74 388.16 c 1
 1015.87 426.816 l 1
 815.104 831.936 274.112 875.584 11.264 507.84 c 1
493.248 216.192 m 0
 365.12 226.432 269.888 338.688 280.128 466.688 c 0
 290.496 594.816 402.496 690.176 530.624 679.808 c 0
 658.624 669.568 754.112 557.44 743.872 429.312 c 0
 733.504 301.312 621.248 205.824 493.248 216.192 c 0
395.648 448 m 1
 395.648 383.776 447.712 331.712 511.936 331.712 c 0
 576.16 331.712 628.224 383.776 628.224 448 c 1
 628.224 448 l 1
 628.224 512.224 576.16 564.288 511.936 564.288 c 0
 447.712 564.288 395.648 512.224 395.648 448 c 1
 395.648 448 l 1
EndSplineSet
Validated: 37
EndChar

StartChar: uniE027
Encoding: 41 57383 41
Width: 1024
LayerCount: 2
Fore
SplineSet
528.64 654.08 m 0
 556.416 651.84 582.336 644.096 605.696 632.192 c 1
 667.2 693.696 l 1
 564.672 730.56 452.48 734.08 347.328 703.168 c 1
 418.688 631.808 l 1
 451.584 648.576 489.088 657.28 528.64 654.08 c 0
305.856 464.64 m 0
 308.096 492.416 315.84 518.336 327.744 541.696 c 1
 223.232 646.272 l 1
 164.864 610.304 111.04 563.072 66.752 501.12 c 1
 64 466.88 l 1
 106.88 380.352 167.424 312.896 237.568 264.128 c 1
 328.192 354.752 l 1
 311.424 387.648 302.656 425.152 305.856 464.64 c 0
957.248 394.88 m 1
 960 429.248 l 1
 917.12 515.712 856.576 583.104 786.432 631.936 c 1
 695.808 541.312 l 1
 712.576 508.352 721.28 470.848 718.144 431.36 c 0
 715.904 403.584 708.16 377.6 696.192 354.24 c 1
 800.768 249.728 l 1
 859.136 285.632 912.96 332.864 957.248 394.88 c 1
495.36 241.856 m 0
 467.584 244.096 441.664 251.84 418.304 263.744 c 1
 356.8 202.24 l 1
 459.328 165.504 571.456 161.856 676.672 192.768 c 1
 605.312 264.256 l 1
 572.352 247.488 534.848 238.72 495.36 241.856 c 0
500.224 345.728 m 0
 504.192 345.344 508.032 344.64 512 344.64 c 0
 515.968 344.64 519.808 345.408 523.776 345.792 c 2
 512 357.504 l 1
 500.224 345.728 l 0
614.208 436.224 m 2
 614.656 440.256 615.36 444.032 615.36 448 c 0
 615.36 451.968 614.656 455.872 614.208 459.776 c 2
 602.496 448 l 1
 614.208 436.224 l 2
500.224 550.208 m 2
 512 538.432 l 1
 523.776 550.208 l 2
 519.808 550.656 515.968 551.36 512 551.36 c 0
 508.032 551.36 504.192 550.656 500.224 550.208 c 2
409.792 459.776 m 0
 409.344 455.872 408.64 451.968 408.64 448 c 0
 408.64 444.032 409.408 440.256 409.856 436.224 c 2
 421.504 448 l 1
 409.792 459.776 l 0
919.232 764.736 m 1
 828.736 855.232 l 1
 667.2 693.696 l 1
 708.992 678.656 749.056 657.92 786.432 631.936 c 1
 919.232 764.736 l 1
104.768 131.264 m 1
 195.264 40.768 l 1
 356.8 202.24 l 1
 315.008 217.344 274.944 238.016 237.568 264.128 c 1
 104.768 131.264 l 1
328.192 354.752 m 1
 237.568 264.128 l 1
 274.944 238.016 315.008 217.408 356.8 202.24 c 1
 418.304 263.744 l 1
 379.136 283.776 347.968 315.904 328.192 354.752 c 1
695.808 541.312 m 1
 786.432 631.936 l 1
 749.056 657.92 708.992 678.592 667.2 693.696 c 1
 605.696 632.192 l 1
 644.864 612.16 676.032 580.032 695.808 541.312 c 1
602.496 448 m 1
 614.208 459.776 l 1
 608.768 507.392 571.392 544.768 523.776 550.208 c 1
 512 538.432 l 1
 602.496 448 l 1
421.504 448 m 1
 409.792 436.224 l 1
 415.232 388.608 452.608 351.232 500.224 345.728 c 1
 512 357.504 l 1
 421.504 448 l 1
828.736 40.768 m 1
 919.232 131.264 l 1
 800.704 249.792 l 1
 761.152 225.408 719.744 205.568 676.672 192.768 c 1
 828.736 40.768 l 1
195.264 855.232 m 1
 104.768 764.736 l 1
 223.296 646.208 l 1
 262.848 670.592 304.256 690.496 347.328 703.168 c 1
 195.264 855.232 l 1
418.688 631.808 m 1
 347.328 703.168 l 1
 304.192 690.56 262.848 670.592 223.296 646.208 c 1
 327.808 541.632 l 1
 347.776 580.928 379.904 612.032 418.688 631.808 c 1
605.312 264.256 m 1
 676.672 192.768 l 1
 719.808 205.504 761.152 225.408 800.704 249.792 c 1
 696.128 354.304 l 1
 676.224 315.136 644.032 284.032 605.312 264.256 c 1
512 357.504 m 1
 523.776 345.728 l 1
 571.392 351.232 608.768 388.608 614.208 436.224 c 1
 602.496 448 l 1
 512 357.504 l 1
512 538.432 m 1
 500.224 550.208 l 1
 452.608 544.768 415.232 507.392 409.792 459.776 c 1
 421.504 448 l 1
 512 538.432 l 1
602.496 448 m 1
 512 357.504 l 1
 421.504 447.936 l 1
 512 538.432 l 1
 602.496 448 l 1
EndSplineSet
Validated: 37
EndChar

StartChar: uniE028
Encoding: 42 57384 42
Width: 1024
LayerCount: 2
Fore
SplineSet
352 576 m 1
 480 576 l 1
 480 448 l 1
 352 448 l 1
 352 576 l 1
544 576 m 1
 672 576 l 1
 672 448 l 1
 544 448 l 1
 544 576 l 1
736 576 m 1
 864 576 l 1
 864 448 l 1
 736 448 l 1
 736 576 l 1
160 384 m 1
 288 384 l 1
 288 256 l 1
 160 256 l 1
 160 384 l 1
352 384 m 1
 480 384 l 1
 480 256 l 1
 352 256 l 1
 352 384 l 1
544 384 m 1
 672 384 l 1
 672 256 l 1
 544 256 l 1
 544 384 l 1
736 384 m 1
 864 384 l 1
 864 256 l 1
 736 256 l 1
 736 384 l 1
160 192 m 1
 288 192 l 1
 288 64 l 1
 160 64 l 1
 160 192 l 1
352 192 m 1
 480 192 l 1
 480 64 l 1
 352 64 l 1
 352 192 l 1
544 192 m 1
 672 192 l 1
 672 64 l 1
 544 64 l 1
 544 192 l 1
864 832 m 1
 864 960 l 1
 672 960 l 1
 672 832 l 1
 352 832 l 1
 352 960 l 1
 160 960 l 1
 160 832 l 1
 32 832 l 1
 32 -64 l 1
 992 -64 l 1
 992 832 l 1
 864 832 l 1
736 896 m 1
 800 896 l 1
 800 768 l 1
 736 768 l 1
 736 896 l 1
224 896 m 1
 288 896 l 1
 288 768 l 1
 224 768 l 1
 224 896 l 1
928 0 m 1
 96 0 l 1
 96 640 l 1
 928 640 l 1
 928 0 l 1
EndSplineSet
Validated: 9
EndChar

StartChar: uniE029
Encoding: 43 57385 43
Width: 1024
LayerCount: 2
Fore
SplineSet
275.648 399.424 m 1
 422.976 399.424 l 1
 422.976 399.424 425.408 428.736 417.408 441.152 c 0
 408.512 454.912 378.752 463.616 349.312 475.84 c 0
 319.872 488.128 312.896 492.48 312.896 492.48 c 1
 312.64 520.64 l 1
 312.64 520.64 323.648 529.216 327.104 555.776 c 1
 333.952 553.792 341.312 566.08 341.696 572.608 c 0
 342.08 578.88 340.672 596.032 332.352 594.368 c 1
 334.016 607.488 335.36 619.136 334.656 625.408 c 0
 332.352 648.064 310.016 672 275.648 672 c 0
 241.28 672 218.88 648.064 216.768 625.344 c 0
 216.128 619.008 217.408 607.424 219.072 594.304 c 1
 210.688 595.968 209.344 578.816 209.728 572.544 c 0
 210.176 566.016 217.408 553.728 224.32 555.712 c 1
 227.648 529.216 238.72 520.64 238.72 520.64 c 1
 238.4 492.48 l 1
 238.4 492.48 231.488 488.192 201.984 475.84 c 0
 172.48 463.616 142.72 454.912 133.888 441.216 c 0
 125.952 428.736 128.384 399.424 128.384 399.424 c 1
 275.648 399.424 l 1
512 672 m 1
 768 672 l 1
 768 608 l 1
 512 608 l 1
 512 672 l 1
512 544 m 1
 896 544 l 1
 896 480 l 1
 512 480 l 1
 512 544 l 1
512 416 m 1
 832 416 l 1
 832 352 l 1
 512 352 l 1
 512 416 l 1
0 800 m 1
 0 96 l 1
 1024 96 l 1
 1024 800 l 1
 0 800 l 1
960 160 m 1
 826.112 160 l 1
 829.696 170.048 832 180.736 832 192 c 0
 832 245.056 788.992 288 736 288 c 0
 683.008 288 640 245.056 640 192 c 0
 640 180.736 642.304 170.048 645.888 160 c 1
 378.112 160 l 1
 381.696 170.048 384 180.736 384 192 c 0
 384 245.056 340.992 288 288 288 c 0
 235.008 288 192 245.056 192 192 c 0
 192 180.736 194.304 170.048 197.888 160 c 1
 64 160 l 1
 64 736 l 1
 960 736 l 1
 960 160 l 1
EndSplineSet
Validated: 41
EndChar

StartChar: uniE02A
Encoding: 44 57386 44
Width: 1024
LayerCount: 2
Fore
SplineSet
527.616 361.856 m 0
 457.344 391.104 440.768 401.344 440.768 401.344 c 1
 440.064 468.672 l 1
 440.064 468.672 466.368 488.896 474.624 552.32 c 1
 491.008 547.584 508.288 576.896 509.248 592.32 c 0
 510.144 607.104 506.944 648.448 486.848 644.288 c 1
 490.944 675.456 493.888 703.36 492.48 718.208 c 0
 487.296 772.288 433.984 829.376 352 829.376 c 0
 270.144 829.376 216.768 772.288 211.52 718.208 c 0
 210.112 703.36 213.056 675.456 217.216 644.288 c 1
 197.12 648.384 193.92 607.104 194.816 592.32 c 0
 195.776 576.896 212.992 547.584 229.504 552.32 c 1
 237.632 488.96 264 468.672 264 468.672 c 1
 263.296 401.344 l 1
 263.296 401.344 246.592 391.168 176.512 361.92 c 0
 106.112 332.672 35.2 312.192 14.144 279.232 c 0
 -4.864 249.792 0.832 66.688 0.832 66.688 c 1
 703.232 66.688 l 1
 703.232 66.688 708.864 249.792 689.92 279.232 c 0
 668.864 312.128 597.888 332.608 527.616 361.856 c 0
1011.33 257.6 m 0
 992.384 287.104 992.64 305.536 929.536 331.84 c 0
 866.432 358.144 851.392 367.36 851.392 367.36 c 1
 850.88 427.776 l 1
 850.88 427.776 874.496 445.952 881.856 502.976 c 1
 896.576 498.688 912.128 525.056 912.96 538.88 c 0
 913.728 552.256 910.912 589.312 892.864 585.6 c 1
 896.512 613.568 899.264 638.656 897.984 651.968 c 0
 893.312 700.608 845.376 751.872 771.712 751.872 c 0
 698.048 751.872 650.24 700.608 645.44 651.968 c 0
 644.16 638.656 646.784 613.504 650.56 585.6 c 1
 632.512 589.312 629.632 552.256 630.528 538.88 c 0
 631.424 525.056 646.912 498.688 661.632 502.976 c 1
 668.992 445.952 692.672 427.776 692.672 427.776 c 1
 671.872 411.52 l 1
 730.944 383.488 795.456 343.936 795.456 304.32 c 0
 795.456 263.552 795.456 154.944 795.456 66.56 c 1
 1023.3 66.56 l 2
 1023.23 66.624 1028.35 231.104 1011.33 257.6 c 0
EndSplineSet
Validated: 41
EndChar

StartChar: uniE02B
Encoding: 45 57387 45
Width: 1024
LayerCount: 2
Fore
SplineSet
990.336 179.904 m 0
 960.448 226.56 860.032 255.552 760.576 296.896 c 0
 661.184 338.368 637.568 352.768 637.568 352.768 c 1
 636.672 448.128 l 1
 636.672 448.128 673.92 476.736 685.44 566.528 c 1
 708.736 559.808 733.184 601.28 734.592 623.168 c 0
 735.872 644.224 731.328 702.656 702.976 696.768 c 1
 708.736 740.8 712.96 780.352 710.912 801.28 c 0
 703.424 877.824 628.032 958.656 512 958.656 c 0
 396.032 958.656 320.576 877.824 313.216 801.216 c 0
 311.104 780.288 315.328 740.736 321.152 696.704 c 1
 292.736 702.592 288.192 644.16 289.536 623.104 c 0
 290.88 601.216 315.264 559.744 338.624 566.464 c 1
 350.208 476.736 387.456 448.064 387.456 448.064 c 1
 386.496 352.704 l 1
 386.496 352.704 362.944 338.304 263.488 296.832 c 0
 164.032 255.488 63.616 226.432 33.728 179.84 c 0
 6.912 138.112 14.976 -62.656 14.976 -62.656 c 1
 1009.09 -62.656 l 1
 1009.09 -62.656 1017.22 138.112 990.336 179.904 c 0
EndSplineSet
Validated: 41
EndChar

StartChar: uniE02C
Encoding: 46 57388 46
Width: 1024
LayerCount: 2
Fore
SplineSet
535.104 193.344 m 0
 463.936 223.04 447.04 233.344 447.04 233.344 c 1
 446.336 301.568 l 1
 446.336 301.568 473.024 322.048 481.28 386.304 c 1
 497.984 381.504 515.456 411.2 516.416 426.88 c 0
 517.312 441.984 514.112 483.84 493.76 479.616 c 1
 497.92 511.104 500.864 539.456 499.392 554.432 c 0
 494.144 609.28 440.192 667.072 357.184 667.072 c 0
 274.176 667.072 220.16 609.28 214.848 554.432 c 0
 213.312 539.392 216.32 511.104 220.48 479.616 c 1
 200.128 483.84 196.928 441.984 197.76 426.88 c 0
 198.848 411.2 216.192 381.504 232.96 386.368 c 1
 241.216 322.112 267.968 301.632 267.968 301.632 c 1
 267.2 233.408 l 1
 267.2 233.408 250.304 223.104 179.2 193.408 c 0
 108.032 163.776 36.096 143.04 14.72 109.632 c 0
 -4.48 79.744 1.28 -64 1.28 -64 c 1
 712.96 -64 l 1
 712.96 -64 718.72 79.744 699.584 109.632 c 0
 678.144 142.976 606.208 163.776 535.104 193.344 c 0
384.448 960 m 1
 384.448 768 l 1
 448.448 768 l 1
 448.448 896 l 1
 959.488 896 l 1
 959.488 576.32 l 1
 897.408 577.344 l 1
 875.648 577.6 l 1
 858.112 564.608 l 1
 703.488 449.024 l 1
 703.488 577.792 l 1
 576.448 576.832 l 1
 576.448 512.832 l 1
 639.488 513.344 l 1
 639.488 321.344 l 1
 896.448 513.344 l 1
 1023.49 511.36 l 1
 1023.49 960 l 1
 384.448 960 l 1
EndSplineSet
Validated: 41
EndChar

StartChar: uniE02D
Encoding: 47 57389 47
Width: 1024
LayerCount: 2
Fore
SplineSet
882.176 257.344 m 1
 882.176 385.344 l 1
 754.176 385.344 l 1
 754.176 257.344 l 1
 626.176 257.344 l 1
 626.176 129.344 l 1
 754.176 129.344 l 1
 754.176 1.344 l 1
 882.176 1.344 l 1
 882.176 129.344 l 1
 1010.18 129.344 l 1
 1010.18 257.344 l 1
 882.176 257.344 l 1
525.824 65.344 m 1
 525.824 321.344 l 1
 589.824 321.344 l 1
 589.824 385.344 l 1
 637.312 385.344 l 1
 636.672 448.064 l 1
 636.672 448.064 673.92 476.672 685.44 566.464 c 1
 708.8 559.744 733.184 601.216 734.592 623.104 c 0
 735.872 644.16 731.328 702.592 702.976 696.704 c 1
 708.736 740.736 712.96 780.288 710.976 801.216 c 0
 703.488 877.824 628.096 958.656 512.128 958.656 c 0
 396.16 958.656 320.64 877.824 313.28 801.216 c 0
 311.168 780.288 315.392 740.736 321.152 696.704 c 1
 292.736 702.592 288.256 644.16 289.536 623.104 c 0
 290.88 601.216 315.264 559.744 338.624 566.464 c 1
 350.144 476.736 387.456 448.064 387.456 448.064 c 1
 386.496 352.704 l 1
 386.496 352.704 362.88 338.304 263.488 296.832 c 0
 164.032 255.488 63.616 226.432 33.728 179.84 c 0
 6.912 138.112 14.976 -62.656 14.976 -62.656 c 1
 653.824 -62.656 l 1
 653.824 65.344 l 1
 525.824 65.344 l 1
EndSplineSet
Validated: 41
EndChar

StartChar: uniE02E
Encoding: 48 57390 48
Width: 1024
LayerCount: 2
Fore
SplineSet
525.824 65.344 m 1
 525.824 321.344 l 1
 659.968 321.984 l 1
 648 343.552 l 1
 637.312 385.344 l 1
 636.672 448.064 l 1
 636.672 448.064 673.92 476.672 685.44 566.464 c 1
 708.8 559.744 733.184 601.216 734.592 623.104 c 0
 735.872 644.16 731.328 702.592 702.976 696.704 c 1
 708.736 740.736 712.96 780.288 710.976 801.216 c 0
 703.488 877.824 628.096 958.656 512.128 958.656 c 0
 396.16 958.656 320.64 877.824 313.28 801.216 c 0
 311.168 780.288 315.392 740.736 321.152 696.704 c 1
 292.736 702.592 288.256 644.16 289.536 623.104 c 0
 290.88 601.216 315.264 559.744 338.624 566.464 c 1
 350.144 476.736 387.456 448.064 387.456 448.064 c 1
 386.496 352.704 l 1
 386.496 352.704 362.88 338.304 263.488 296.832 c 0
 164.032 255.488 63.616 226.432 33.728 179.84 c 0
 6.912 138.112 14.976 -62.656 14.976 -62.656 c 1
 653.824 -62.656 l 1
 653.824 65.344 l 1
 525.824 65.344 l 1
1024 187.392 m 1
 800 384 l 1
 800 251.392 l 1
 576 251.328 l 1
 576 123.328 l 1
 800 123.392 l 1
 800 -4.608 l 1
 1024 187.392 l 1
EndSplineSet
Validated: 41
EndChar

StartChar: uniE02F
Encoding: 49 57391 49
Width: 1024
LayerCount: 2
Fore
SplineSet
0 960 m 1
 0 192 l 1
 256 192 l 1
 256 -64 l 1
 615.936 192 l 1
 1024 192 l 1
 1024 960 l 1
 0 960 l 1
896 320 m 1
 640 320 l 1
 384 128 l 1
 384 320 l 1
 128 320 l 1
 128 832 l 1
 896 832 l 1
 896 320 l 1
192 576 m 0
 192 540.654 220.654 512 256 512 c 0
 291.346 512 320 540.654 320 576 c 0
 320 611.346 291.346 640 256 640 c 0
 220.654 640 192 611.346 192 576 c 0
448 576 m 0
 448 540.654 476.654 512 512 512 c 0
 547.346 512 576 540.654 576 576 c 0
 576 611.346 547.346 640 512 640 c 0
 476.654 640 448 611.346 448 576 c 0
704 576 m 0
 704 540.654 732.654 512 768 512 c 0
 803.346 512 832 540.654 832 576 c 0
 832 611.346 803.346 640 768 640 c 0
 732.654 640 704 611.346 704 576 c 0
EndSplineSet
Validated: 9
EndChar

StartChar: uniE030
Encoding: 50 57392 50
Width: 1024
LayerCount: 2
Fore
SplineSet
0 960 m 1
 0 640 l 1
 192 640 l 1
 192 448 l 1
 384 640 l 1
 1024 640 l 1
 1024 960 l 1
 0 960 l 1
128 256 m 1
 128 448 l 1
 0 448 l 1
 0 128 l 1
 640 128 l 1
 832 -64 l 1
 832 128 l 1
 1024 128 l 1
 1024 448 l 1
 320 448 l 1
 128 256 l 1
EndSplineSet
Validated: 9
EndChar

StartChar: uniE031
Encoding: 51 57393 51
Width: 1024
LayerCount: 2
Fore
SplineSet
512.128 362.752 m 1
 969.024 766.208 l 2
 965.952 766.656 963.2 768 960 768 c 2
 64 768 l 2
 62.016 768 60.352 767.04 58.432 766.848 c 2
 512.128 362.752 l 1
1024 704 m 2
 1024 711.616 1022.14 718.656 1019.65 725.44 c 1
 697.024 440.576 l 1
 1015.55 161.92 l 1
 1020.42 171.008 1024 180.928 1024 192 c 2
 1024 704 l 2
4.992 728.768 m 0
 1.792 721.152 0 712.768 0 704 c 2
 0 192 l 2
 0 182.656 2.24 173.952 5.824 165.952 c 1
 327.36 441.6 l 1
 4.992 728.768 l 0
648.64 397.952 m 1
 511.872 277.248 l 1
 375.552 398.656 l 1
 60.608 128.704 l 2
 61.76 128.64 62.784 128 64 128 c 2
 957.12 128 l 1
 648.64 397.952 l 1
EndSplineSet
Validated: 9
EndChar

StartChar: uniE032
Encoding: 52 57394 52
Width: 1024
LayerCount: 2
Fore
SplineSet
512.128 594.752 m 1
 797.632 846.848 l 2
 795.712 847.232 794.048 848 792 848 c 2
 232 848 l 2
 230.784 848 229.632 847.424 228.48 847.232 c 2
 512.128 594.752 l 1
832 808 m 1
 832 812.864 830.848 817.28 829.248 821.376 c 1
 627.648 643.456 l 1
 826.752 469.12 l 1
 829.76 474.88 832 481.088 832 488 c 2
 832 808 l 1
195.136 823.488 m 1
 193.152 818.752 192 813.504 192 808 c 2
 192 488 l 2
 192 482.112 193.344 476.672 195.648 471.68 c 1
 396.544 644.032 l 1
 195.136 823.488 l 1
597.248 616.704 m 1
 511.872 541.248 l 1
 426.752 617.28 l 1
 229.888 448.448 l 2
 230.656 448.384 231.232 448 232 448 c 2
 790.272 448 l 1
 597.248 616.704 l 1
887.488 640 m 1
 704 640 l 1
 768 576 l 1
 845.184 576 l 1
 927.104 384 l 1
 704 384 l 1
 704 277.952 618.048 192 512 192 c 0
 405.952 192 320 277.952 320 384 c 1
 96.896 384 l 1
 178.816 576 l 1
 256 576 l 1
 320 640 l 1
 136.512 640 l 1
 -1.13687e-13 320 l 1
 -1.13687e-13 -64 l 1
 1024 -64 l 1
 1024 320 l 1
 887.488 640 l 1
EndSplineSet
Validated: 5
EndChar

StartChar: uniE033
Encoding: 53 57395 53
Width: 1024
LayerCount: 2
Fore
SplineSet
938.56 541.376 m 2
 804.8 541.376 l 1
 796.864 566.976 785.664 591.232 772.096 613.696 c 1
 860.736 702.592 l 2
 881.664 723.264 881.664 757.12 860.736 777.984 c 2
 823.104 815.552 l 2
 802.24 836.352 768.448 836.224 747.712 815.552 c 2
 657.472 725.44 l 1
 633.152 739.456 606.656 750.144 578.56 757.376 c 1
 578.56 874.624 l 2
 578.56 904 554.816 928 525.312 928 c 2
 472 928 l 2
 442.624 928 418.688 904 418.688 874.624 c 2
 418.688 757.44 l 1
 388.032 749.696 359.296 737.472 332.928 721.472 c 1
 257.472 796.864 l 2
 236.672 817.536 202.816 817.664 182.016 796.864 c 2
 144.192 759.232 l 2
 123.392 738.432 123.648 704.512 144.32 683.648 c 2
 221.184 606.784 l 1
 204.992 578.432 192.768 547.52 185.792 514.688 c 1
 85.44 514.688 l 2
 55.936 514.688 32 490.816 32 461.312 c 2
 32 408 l 2
 32 378.624 55.936 354.816 85.44 354.816 c 2
 192.64 354.816 l 1
 202.304 322.56 217.024 292.928 235.776 266.048 c 1
 163.264 193.536 l 2
 142.4 172.544 142.4 138.688 163.136 117.888 c 2
 200.768 80.256 l 2
 221.696 59.52 255.552 59.52 276.288 80.384 c 2
 357.312 161.28 l 1
 384.576 147.776 414.208 137.92 445.312 132.928 c 1
 445.312 21.44 l 2
 445.312 -8.064 469.184 -31.936 498.624 -32.064 c 2
 551.936 -32.064 l 2
 581.312 -31.936 605.184 -8.064 605.184 21.44 c 2
 605.184 146.688 l 1
 632.064 156.16 657.536 168.96 680.64 185.088 c 1
 766.464 99.2 l 2
 787.328 78.336 821.056 78.336 841.984 99.2 c 2
 879.616 136.832 l 2
 900.608 157.696 900.608 191.488 879.488 212.352 c 2
 785.408 306.624 l 1
 796.992 329.984 805.952 355.008 811.456 381.376 c 1
 938.496 381.376 l 2
 968.064 381.376 991.808 405.184 991.936 434.752 c 2
 991.936 488 l 2
 991.872 517.376 968.128 541.376 938.56 541.376 c 2
498.688 314.752 m 0
 425.088 314.752 365.376 374.272 365.376 448.064 c 0
 365.376 521.728 425.088 581.312 498.688 581.312 c 0
 572.352 581.312 632.064 521.792 632.064 448.064 c 0
 632.128 374.272 572.352 314.752 498.688 314.752 c 0
EndSplineSet
Validated: 41
EndChar

StartChar: uniE034
Encoding: 54 57396 54
Width: 1024
LayerCount: 2
Fore
SplineSet
664.832 356.48 m 2
 566.72 356.48 l 1
 560.896 375.232 552.704 393.024 542.72 409.536 c 1
 607.744 474.752 l 2
 623.104 489.92 623.104 514.752 607.744 530.048 c 2
 580.096 557.568 l 2
 564.8 572.8 540.096 572.736 524.8 557.568 c 2
 458.688 491.52 l 1
 440.832 501.76 421.44 509.568 400.832 514.88 c 1
 400.832 600.832 l 2
 400.832 622.4 383.424 639.936 361.792 639.936 c 2
 322.688 639.936 l 2
 301.184 639.936 283.648 622.4 283.648 600.832 c 2
 283.648 514.88 l 1
 261.12 509.248 240.064 500.224 220.672 488.448 c 1
 165.312 543.808 l 2
 150.08 558.976 125.184 559.04 109.952 543.808 c 2
 82.24 516.16 l 2
 67.008 500.992 67.2 476.096 82.368 460.8 c 2
 138.752 404.416 l 1
 126.848 383.616 117.888 360.96 112.832 336.896 c 1
 39.232 336.896 l 2
 17.536 336.896 -4.26326e-14 319.36 -4.26326e-14 297.728 c 2
 -4.26326e-14 258.624 l 2
 -4.26326e-14 237.12 17.536 219.648 39.168 219.648 c 2
 117.76 219.648 l 1
 124.864 196.032 135.616 174.336 149.376 154.56 c 1
 96.192 101.376 l 2
 80.896 86.016 80.896 61.248 96.064 46.016 c 2
 123.712 18.368 l 2
 139.072 3.2 163.84 3.2 179.136 18.432 c 2
 238.528 77.76 l 1
 258.496 67.904 280.256 60.608 303.104 56.96 c 1
 303.104 -24.768 l 2
 303.104 -46.4 320.576 -63.936 342.144 -63.936 c 2
 381.312 -63.936 l 2
 402.816 -63.936 420.352 -46.4 420.352 -24.768 c 2
 420.352 67.072 l 1
 440.064 74.048 458.752 83.456 475.648 95.296 c 1
 538.624 32.256 l 2
 553.92 17.024 578.624 17.024 593.984 32.256 c 2
 621.632 59.968 l 2
 636.992 75.2 636.992 99.968 621.504 115.264 c 2
 552.512 184.32 l 1
 560.96 201.6 567.552 219.84 571.648 239.168 c 1
 664.832 239.168 l 2
 686.528 239.168 704 256.512 704 278.272 c 2
 704 317.376 l 2
 704 338.88 686.528 356.48 664.832 356.48 c 2
342.272 190.272 m 0
 288.32 190.272 244.544 233.92 244.544 288 c 0
 244.544 342.016 288.32 385.664 342.272 385.664 c 0
 396.288 385.664 440.064 341.952 440.064 288 c 0
 440.064 233.856 396.288 190.272 342.272 190.272 c 0
999.04 779.648 m 2
 936.576 779.648 l 1
 932.8 791.616 927.68 802.88 921.344 813.376 c 1
 962.688 854.848 l 2
 972.416 864.512 972.416 880.256 962.688 889.984 c 2
 945.088 907.52 l 2
 935.424 917.248 919.68 917.184 909.952 907.52 c 2
 867.84 865.472 l 1
 856.448 872 844.16 876.992 831.04 880.32 c 1
 831.04 935.104 l 2
 831.04 948.8 819.968 960 806.208 960 c 2
 781.376 960 l 2
 767.616 960 756.48 948.8 756.48 935.104 c 2
 756.48 880.448 l 1
 742.144 876.864 728.704 871.104 716.416 863.68 c 1
 681.216 898.88 l 2
 671.488 908.544 655.744 908.608 645.952 898.88 c 2
 628.352 881.28 l 2
 618.624 871.616 618.752 855.808 628.416 846.016 c 2
 664.32 810.112 l 1
 656.768 796.864 651.008 782.464 647.744 767.168 c 1
 600.96 767.168 l 2
 587.136 767.168 576 756.032 576 742.272 c 2
 576 717.376 l 2
 576 703.68 587.136 692.544 600.96 692.544 c 2
 651.008 692.544 l 1
 655.488 677.504 662.4 663.68 671.104 651.136 c 1
 637.248 617.344 l 2
 627.52 607.552 627.52 591.744 637.184 582.08 c 2
 654.72 564.48 l 2
 664.448 554.816 680.256 554.816 689.984 564.48 c 2
 727.808 602.24 l 1
 740.48 595.968 754.368 591.36 768.896 588.992 c 1
 768.896 536.96 l 2
 768.896 523.2 780.032 512.064 793.792 512 c 2
 818.688 512 l 2
 832.448 512 843.584 523.2 843.584 536.96 c 2
 843.584 595.456 l 1
 856.128 599.872 868.096 605.824 878.848 613.376 c 1
 918.848 573.312 l 2
 928.576 563.584 944.32 563.584 954.112 573.312 c 2
 971.648 590.912 l 2
 981.44 600.576 981.44 616.32 971.584 626.112 c 2
 927.616 670.08 l 1
 932.992 681.024 937.152 692.672 939.712 704.96 c 1
 999.04 704.96 l 2
 1012.86 704.96 1023.94 716.032 1024 729.856 c 2
 1024 754.688 l 2
 1023.94 768.448 1012.86 779.648 999.04 779.648 c 2
793.792 673.856 m 0
 759.488 673.856 731.584 701.632 731.584 736.064 c 0
 731.584 770.432 759.488 798.208 793.792 798.208 c 0
 828.16 798.208 856 770.432 856 736.064 c 0
 856 701.632 828.16 673.856 793.792 673.856 c 0
EndSplineSet
Validated: 41
EndChar

StartChar: uniE035
Encoding: 55 57397 55
Width: 1024
LayerCount: 2
Fore
SplineSet
0 64 m 1
 1024 64 l 1
 1024 0 l 1
 0 0 l 1
 0 64 l 1
0 704 m 1
 256 704 l 1
 256 128 l 1
 0 128 l 1
 0 704 l 1
384 448 m 1
 640 448 l 1
 640 128 l 1
 384 128 l 1
 384 448 l 1
768 896 m 1
 1024 896 l 1
 1024 128 l 1
 768 128 l 1
 768 896 l 1
EndSplineSet
Validated: 1
EndChar

StartChar: uniE036
Encoding: 56 57398 56
Width: 1024
LayerCount: 2
Fore
SplineSet
32 864 m 1
 32 32 l 1
 992 32 l 1
 992 864 l 1
 32 864 l 1
864 160 m 1
 160 160 l 1
 160 736 l 1
 864 736 l 1
 864 160 l 1
208.768 323.904 m 0
 224.256 315.52 243.712 321.28 252.096 336.768 c 2
 301.12 427.264 l 1
 422.976 306.752 l 1
 548.928 434.112 l 1
 680.256 297.024 l 1
 828.608 593.664 l 2
 836.48 609.472 830.08 628.672 814.208 636.608 c 0
 798.464 644.416 779.2 638.144 771.328 622.272 c 2
 663.552 406.912 l 1
 549.632 525.824 l 1
 422.464 397.184 l 1
 285.504 532.736 l 1
 195.904 367.232 l 2
 187.392 351.744 193.216 332.224 208.768 323.904 c 0
EndSplineSet
Validated: 41
EndChar

StartChar: uniE037
Encoding: 57 57399 57
Width: 1024
LayerCount: 2
Fore
SplineSet
512 928 m 0
 246.976 928 32 713.024 32 448 c 0
 32 182.976 246.976 -32 512 -32 c 0
 777.024 -32 992 182.976 992 448 c 0
 992 713.024 777.024 928 512 928 c 0
643.136 198.016 m 1
 643.136 198.016 643.2 197.952 643.264 197.952 c 0
 646.144 198.336 646.784 197.888 648.96 201.6 c 1
 648.96 195.776 650.24 190.272 652.608 184.96 c 1
 645.952 211.328 672.704 212.16 684.864 227.776 c 0
 689.472 233.856 696.96 250.496 702.848 253.056 c 1
 705.984 248.448 706.688 243.328 704.96 238.016 c 1
 706.304 241.856 705.152 238.272 704.704 236.928 c 0
 704.576 231.616 703.616 226.56 701.312 221.824 c 1
 700.352 222.72 699.904 223.744 699.712 225.024 c 1
 678.464 207.744 678.72 158.848 649.856 146.624 c 0
 634.368 140.096 636.288 161.088 642.112 168.448 c 0
 650.752 179.456 638.912 186.624 644.288 197.44 c 1
 643.904 197.44 643.584 197.952 643.264 198.016 c 0
 643.2 197.952 643.136 197.952 643.136 197.952 c 1
 643.136 198.016 l 1
 637.888 199.296 632.832 212.352 632.832 219.776 c 1
 639.04 220.928 642.176 224.64 642.688 222.4 c 1
 644.224 224.32 651.456 237.056 651.52 238.976 c 1
 653.44 227.968 637.632 206.656 643.136 198.016 c 1
859.008 504.768 m 1
 851.008 520.128 843.968 538.048 838.144 547.136 c 0
 827.904 563.392 821.376 589.376 806.528 601.792 c 1
 810.048 597.504 810.496 592.896 807.68 588.16 c 1
 799.936 590.464 793.6 594.88 789.056 601.792 c 0
 788.288 604.928 796.992 597.568 792.192 606.912 c 1
 779.904 605.312 771.072 617.984 761.024 625.024 c 1
 743.36 627.328 724.096 612.416 706.048 622.976 c 0
 701.76 625.408 697.728 640 691.2 631.552 c 0
 687.744 627.136 684.096 627.136 678.976 628.608 c 0
 658.816 634.752 650.048 652.032 631.808 652.544 c 1
 632 644.8 644.992 633.344 651.2 629.824 c 0
 659.328 625.152 665.024 604.736 665.984 622.976 c 1
 677.632 616.32 669.376 601.408 685.888 606.912 c 1
 698.432 602.048 695.104 622.144 697.728 628.16 c 1
 701.696 625.792 703.872 616.064 707.072 612.928 c 0
 713.664 606.784 723.008 609.152 729.088 602.88 c 0
 736.768 594.88 741.12 583.36 739.264 573.76 c 1
 732.096 574.336 737.792 565.12 733.248 558.08 c 0
 728.384 550.72 728.832 549.056 725.76 541.056 c 1
 717.248 538.944 707.2 535.04 708.736 523.904 c 1
 702.784 516.8 649.792 478.4 642.816 488.896 c 0
 634.176 501.888 632.064 519.936 625.088 533.696 c 1
 614.72 537.152 593.088 563.52 588.864 573.696 c 1
 592.064 591.616 544.704 626.88 536.96 627.136 c 1
 542.592 602.752 563.584 589.888 573.248 571.072 c 0
 581.44 554.944 596.48 517.056 609.088 511.872 c 1
 630.016 513.856 642.88 475.904 654.08 467.968 c 0
 668.672 457.856 698.496 490.688 711.296 487.488 c 1
 712.704 470.208 712.448 465.024 707.2 446.016 c 0
 696.576 407.04 678.656 390.144 655.552 358.528 c 0
 642.24 340.352 633.6 327.552 623.616 307.52 c 0
 615.808 291.712 638.656 258.624 632.448 249.856 c 1
 635.84 224.064 629.504 208.896 607.168 196.032 c 0
 590.848 186.56 576.768 177.536 582.272 159.68 c 0
 587.84 141.824 565.568 139.008 562.944 128.96 c 0
 556.16 112.32 546.624 103.488 535.168 97.216 c 0
 527.424 96.64 519.808 96 512 96 c 0
 497.984 96 484.224 97.088 470.592 98.624 c 1
 452.544 121.28 433.728 145.28 414.4 167.872 c 0
 402.56 181.376 386.624 206.016 403.904 223.36 c 1
 405.824 234.624 392.32 260.608 386.368 270.528 c 0
 376.32 287.36 329.856 323.712 347.968 343.232 c 1
 350.464 356.096 339.136 368.896 339.136 379.072 c 1
 329.28 387.008 319.168 368.448 309.568 385.28 c 0
 299.328 403.264 280.704 398.336 265.28 387.264 c 0
 261.824 384.896 218.944 378.496 215.104 381.888 c 0
 182.464 411.008 172.096 456.704 183.424 495.872 c 0
 188.032 512.128 188.608 540.992 201.536 551.872 c 1
 205.76 568.768 225.28 585.344 235.648 599.232 c 0
 241.216 606.656 250.176 607.36 256.64 614.976 c 0
 266.304 626.368 271.04 639.872 283.52 649.92 c 0
 296.128 659.968 323.2 676.992 300.16 680.64 c 1
 309.312 694.016 323.84 708.672 329.216 724.672 c 1
 337.152 731.008 351.872 728.384 360.704 732.736 c 1
 368.384 748.352 371.52 747.904 368.64 757.888 c 0
 370.176 764.288 390.464 769.152 394.752 770.752 c 0
 402.752 773.888 409.856 781.248 417.152 786.624 c 0
 447.36 795.136 479.104 800 512 800 c 0
 686.72 800 831.744 671.872 859.008 504.768 c 1
523.264 739.264 m 1
 523.2 732.928 545.792 733.888 549.184 732.992 c 1
 543.104 734.464 551.232 734.272 549.184 732.992 c 1
 569.728 745.728 506.88 757.952 506.112 758.4 c 1
 507.776 759.168 508.928 760.32 509.312 762.048 c 1
 498.048 757.888 505.344 770.112 494.784 757.888 c 1
 497.536 748.544 485.312 742.4 490.624 732.48 c 1
 501.568 723.264 512.512 737.472 523.264 739.264 c 1
440.32 714.816 m 1
 429.184 721.152 437.184 712.32 430.464 704.832 c 0
 420.672 693.632 421.504 689.92 406.528 695.616 c 1
 405.888 708.032 434.688 696.96 421.504 719.744 c 0
 414.912 731.008 408.64 744.384 396.16 736.128 c 0
 384.448 728.384 363.264 723.904 354.112 707.008 c 0
 348.736 701.376 310.912 672.192 311.04 669.632 c 0
 325.696 657.728 383.232 704.768 397.696 690.944 c 1
 396.736 681.216 385.472 673.792 385.28 664 c 1
 389.568 662.208 390.656 657.984 395.648 657.28 c 0
 414.72 661.376 409.6 648.256 423.68 644.864 c 0
 447.168 639.04 429.248 643.456 444.032 658.112 c 0
 448.896 662.784 474.816 662.272 476.032 654.144 c 1
 475.264 659.2 486.912 656.128 476.032 654.144 c 1
 487.616 656.256 498.688 644.672 507.264 653.248 c 0
 513.344 659.264 518.4 658.048 522.944 654.656 c 0
 543.872 639.552 536.832 698.496 537.408 701.312 c 1
 530.112 696.64 488.192 692.224 488.512 696.64 c 0
 489.28 701.76 483.136 702.144 480.768 708.672 c 1
 488.96 718.4 473.6 713.472 481.792 724.096 c 1
 477.696 726.208 473.472 726.208 469.376 724.096 c 0
 467.648 717.12 472.832 719.616 463.552 721.536 c 1
 460.48 713.984 470.72 708.864 469.376 701.888 c 1
 468.096 702.848 466.688 703.424 465.216 703.36 c 0
 463.872 698.304 464.832 699.52 464.704 691.52 c 1
 450.432 694.144 458.176 704.96 446.016 720.512 c 1
 457.088 729.344 423.04 746.624 427.904 752.128 c 1
 403.904 745.664 446.912 720.576 440.32 714.816 c 1
396.16 705.408 m 0
 393.792 704.448 391.36 703.936 388.864 703.936 c 1
 390.784 710.016 399.616 731.648 404.992 732.48 c 1
 404.608 724.672 397.504 713.472 396.16 705.408 c 0
396.16 705.408 m 1
 397.184 711.488 392.448 706.112 396.16 705.408 c 1
 396.16 705.408 l 1
600.64 731.968 m 1
 594.944 729.728 602.048 712.576 611.008 713.28 c 1
 617.344 707.904 624.448 706.88 632.256 710.144 c 1
 630.208 724.672 593.728 753.28 581.888 759.488 c 1
 583.616 761.152 584.32 766.336 588.16 765.76 c 1
 584.64 781.376 568.448 768.768 568.448 758.848 c 1
 574.528 751.552 599.04 738.752 600.64 731.968 c 1
611.008 713.28 m 1
 604.096 712.768 615.296 708.48 611.008 713.28 c 1
 611.008 713.28 l 1
629.12 757.376 m 1
 623.296 758.656 617.152 771.648 611.008 773.504 c 1
 610.304 770.176 610.56 770.56 609.984 768.256 c 1
 610.432 769.984 612.672 763.968 609.984 768.256 c 1
 612.224 764.48 622.4 750.208 629.12 757.376 c 1
366.016 736.64 m 1
 364.8 734.656 362.752 733.76 360.768 732.736 c 0
 360.576 732.416 360.512 732.224 360.32 731.968 c 1
 362.24 731.136 364.352 737.28 366.016 736.64 c 1
EndSplineSet
Validated: 37
EndChar

StartChar: uniE038
Encoding: 58 57400 58
Width: 1024
LayerCount: 2
Fore
SplineSet
832 640 m 1
 832 960 l 1
 0 960 l 1
 0 192 l 1
 192 192 l 1
 192 -64 l 1
 1024 -64 l 1
 1024 640 l 1
 832 640 l 1
192 320 m 1
 128 320 l 1
 128 832 l 1
 704 832 l 1
 704 640 l 1
 192 640 l 1
 192 320 l 1
896 64 m 1
 320 64 l 1
 320 512 l 1
 896 512 l 1
 896 64 l 1
384 192 m 1
 832 192 l 1
 832 128 l 1
 384 128 l 1
 384 192 l 1
384 320 m 1
 576 320 l 1
 576 256 l 1
 384 256 l 1
 384 320 l 1
384 448 m 1
 576 448 l 1
 576 384 l 1
 384 384 l 1
 384 448 l 1
192 768 m 1
 640 768 l 1
 640 704 l 1
 192 704 l 1
 192 768 l 1
640 448 m 1
 832 448 l 1
 832 256 l 1
 640 256 l 1
 640 448 l 1
EndSplineSet
Validated: 9
EndChar

StartChar: uniE039
Encoding: 59 57401 59
Width: 1024
LayerCount: 2
Fore
SplineSet
693.44 448.064 m 1
 426.496 603.84 l 1
 426.496 292.288 l 1
 559.936 370.24 l 1
 693.44 448.064 l 1
0 64 m 1
 1024 64 l 1
 1024 832 l 1
 0 832 l 1
 0 64 l 1
300.992 659.008 m 0
 417.472 775.424 606.4 775.424 723.008 659.008 c 0
 839.488 542.528 839.488 353.472 723.008 237.056 c 0
 606.528 120.576 417.536 120.512 300.992 237.056 c 0
 184.448 353.6 184.448 542.592 300.992 659.008 c 0
0 0 m 1
 64 0 l 1
 64 -64 l 1
 0 -64 l 1
 0 0 l 1
896 0 m 1
 1024 0 l 1
 1024 -64 l 1
 896 -64 l 1
 896 0 l 1
128 0 m 1
 256 0 l 1
 256 -64 l 1
 128 -64 l 1
 128 0 l 1
320 0 m 1
 448 0 l 1
 448 -64 l 1
 320 -64 l 1
 320 0 l 1
512 0 m 1
 640 0 l 1
 640 -64 l 1
 512 -64 l 1
 512 0 l 1
704 0 m 1
 832 0 l 1
 832 -64 l 1
 704 -64 l 1
 704 0 l 1
0 960 m 1
 64 960 l 1
 64 896 l 1
 0 896 l 1
 0 960 l 1
896 960 m 1
 1024 960 l 1
 1024 896 l 1
 896 896 l 1
 896 960 l 1
128 960 m 1
 256 960 l 1
 256 896 l 1
 128 896 l 1
 128 960 l 1
320 960 m 1
 448 960 l 1
 448 896 l 1
 320 896 l 1
 320 960 l 1
512 960 m 1
 640 960 l 1
 640 896 l 1
 512 896 l 1
 512 960 l 1
704 960 m 1
 832 960 l 1
 832 896 l 1
 704 896 l 1
 704 960 l 1
EndSplineSet
Validated: 41
EndChar

StartChar: uniE03A
Encoding: 60 57402 60
Width: 1024
LayerCount: 2
Fore
SplineSet
832 320 m 1
 832 512 l 1
 576 512 l 1
 576 576 l 1
 768 576 l 1
 768 960 l 1
 320 960 l 1
 320 576 l 1
 512 576 l 1
 512 512 l 1
 192 512 l 1
 192 320 l 1
 0 320 l 1
 0 -64 l 1
 448 -64 l 1
 448 320 l 1
 256 320 l 1
 256 448 l 1
 768 448 l 1
 768 320 l 1
 576 320 l 1
 576 -64 l 1
 1024 -64 l 1
 1024 320 l 1
 832 320 l 1
384 256 m 1
 384 192 l 1
 64 192 l 1
 64 256 l 1
 384 256 l 1
384 832 m 1
 384 896 l 1
 704 896 l 1
 704 832 l 1
 384 832 l 1
960 192 m 1
 640 192 l 1
 640 256 l 1
 960 256 l 1
 960 192 l 1
EndSplineSet
Validated: 9
EndChar

StartChar: uniE03B
Encoding: 61 57403 61
Width: 1024
LayerCount: 2
Fore
SplineSet
757.76 831.936 m 1
 960 629.696 l 1
 606.08 275.776 l 1
 403.84 478.016 l 1
 757.76 831.936 l 1
526.912 197.184 m 1
 331.136 393.024 l 1
 329.472 293.504 l 1
 327.936 193.984 l 1
 427.392 195.648 l 1
 526.912 197.184 l 1
960 512 m 1
 960 128 l 1
 64 128 l 1
 64 448 l 1
 320 448 l 1
 320 512 l 1
 0 512 l 1
 0 64 l 1
 1024 64 l 1
 1024 512 l 1
 960 512 l 1
EndSplineSet
Validated: 9
EndChar

StartChar: uniE03C
Encoding: 62 57404 62
Width: 1024
LayerCount: 2
Fore
SplineSet
816.96 184.512 m 0
 904.768 266.24 960 382.592 960 512 c 0
 960 759.424 759.424 960 512 960 c 0
 264.576 960 64 759.488 64 512 c 0
 64 382.528 119.232 266.24 207.04 184.448 c 1
 0 -64 l 1
 192 -64 l 1
 320 -2.84217e-14 l 1
 704 -2.84217e-14 l 1
 831.936 -64 l 1
 1024 -64 l 1
 816.96 184.512 l 0
704 512 m 0
 704 405.952 618.048 320 512 320 c 0
 405.952 320 320 405.952 320 512 c 0
 320 618.048 405.952 704 512 704 c 0
 618.048 704 704 618.112 704 512 c 0
512 128 m 0
 340.992 128 196.288 239.872 146.56 394.304 c 1
 146.56 394.304 l 1
 142.912 405.568 139.904 417.088 137.344 428.8 c 0
 137.024 430.08 136.576 431.296 136.32 432.576 c 0
 134.08 443.328 132.48 454.272 131.136 465.28 c 0
 130.816 467.52 130.368 469.632 130.112 471.936 c 0
 128.768 485.12 128 498.496 128 512 c 0
 128 702.272 266.432 859.712 448 890.24 c 1
 448 758.912 l 1
 337.92 730.304 256 630.976 256 512 c 0
 256 370.816 370.816 256 512 256 c 0
 653.12 256 768 370.88 768 512 c 0
 768 630.912 686.144 730.304 576 758.912 c 1
 576 890.304 l 1
 757.568 859.776 896 702.272 896 512.064 c 0
 896 498.496 895.232 485.12 893.888 471.936 c 0
 893.632 469.696 893.12 467.52 892.864 465.28 c 0
 891.52 454.272 889.92 443.328 887.68 432.576 c 0
 887.36 431.232 886.976 430.016 886.656 428.736 c 0
 884.096 417.024 881.024 405.568 877.376 394.304 c 1
 877.376 394.304 l 1
 827.776 239.872 683.008 128 512 128 c 0
512 384 m 0
 582.656 384 640 441.344 640 512 c 1
 384 512 l 1
 384 441.344 441.344 384 512 384 c 0
EndSplineSet
Validated: 9
EndChar

StartChar: uniE03D
Encoding: 63 57405 63
Width: 1024
LayerCount: 2
Fore
SplineSet
1024 160 m 1
 1024 928 l 1
 0 928 l 1
 0 160 l 1
 384 160 l 1
 384 32 l 1
 128 32 l 1
 128 -32 l 1
 896 -32 l 1
 896 32 l 1
 640 32 l 1
 640 160 l 1
 1024 160 l 1
64 224 m 1
 64 864 l 1
 960 864 l 1
 960 224 l 1
 64 224 l 1
EndSplineSet
Validated: 9
EndChar

StartChar: uniE03E
Encoding: 64 57406 64
Width: 1024
LayerCount: 2
Fore
SplineSet
992 328 m 1
 992 888 l 1
 32 888 l 1
 32 328 l 1
 480 328 l 1
 480 206.656 l 1
 226.816 8 l 1
 289.984 8 l 1
 480 138.624 l 1
 480 136 l 1
 608 136 l 1
 608 138.624 l 1
 798.016 8 l 1
 861.184 8 l 1
 608 206.656 l 1
 608 328 l 1
 992 328 l 1
96 392 m 1
 96 824 l 1
 928 824 l 1
 928 391.936 l 1
 96 391.936 l 1
 96 392 l 1
574.976 727.232 m 0
 566.656 729.856 557.568 725.248 554.816 716.864 c 2
 488.384 510.464 l 1
 401.984 650.432 l 1
 307.584 502.08 l 1
 207.168 656.32 l 1
 144.96 477.824 l 2
 142.016 469.44 146.368 460.352 154.752 457.472 c 0
 163.072 454.336 172.16 458.88 175.04 467.2 c 2
 215.872 584.192 l 1
 307.904 442.944 l 1
 401.664 590.144 l 1
 497.6 434.56 l 1
 585.28 707.072 l 2
 588.032 715.456 583.36 724.48 574.976 727.232 c 0
672.832 659.84 m 0
 672.832 613.395 710.483 575.744 756.928 575.744 c 0
 803.373 575.744 841.024 613.395 841.024 659.84 c 0
 841.024 706.285 803.373 743.936 756.928 743.936 c 0
 710.483 743.936 672.832 706.285 672.832 659.84 c 0
672 520 m 1
 736 520 l 1
 736 456 l 1
 672 456 l 1
 672 520 l 1
800 520 m 1
 864 520 l 1
 864 456 l 1
 800 456 l 1
 800 520 l 1
EndSplineSet
Validated: 9
EndChar

StartChar: uniE03F
Encoding: 65 57407 65
Width: 1024
LayerCount: 2
Fore
SplineSet
0 768 m 0
 0 714.981 42.981 672 96 672 c 0
 149.019 672 192 714.981 192 768 c 0
 192 821.019 149.019 864 96 864 c 0
 42.981 864 0 821.019 0 768 c 0
384 672 m 2
 960 672 l 2
 995.2 672 1024 700.8 1024 736 c 0
 1024 771.2 995.2 800 960 800 c 2
 384 800 l 2
 348.8 800 320 771.2 320 736 c 0
 320 700.8 348.8 672 384 672 c 2
0 448 m 0
 0 394.981 42.981 352 96 352 c 0
 149.019 352 192 394.981 192 448 c 0
 192 501.019 149.019 544 96 544 c 0
 42.981 544 0 501.019 0 448 c 0
960 480 m 2
 384 480 l 2
 348.8 480 320 451.2 320 416 c 0
 320 380.8 348.8 352 384 352 c 2
 960 352 l 2
 995.2 352 1024 380.8 1024 416 c 0
 1024 451.2 995.2 480 960 480 c 2
0 128 m 0
 0 74.981 42.981 32 96 32 c 0
 149.019 32 192 74.981 192 128 c 0
 192 181.019 149.019 224 96 224 c 0
 42.981 224 0 181.019 0 128 c 0
960 160 m 2
 384 160 l 2
 348.8 160 320 131.2 320 96 c 0
 320 60.8 348.8 32 384 32 c 2
 960 32 l 2
 995.2 32 1024 60.8 1024 96 c 0
 1024 131.2 995.2 160 960 160 c 2
EndSplineSet
Validated: 9
EndChar

StartChar: uniE040
Encoding: 66 57408 66
Width: 1024
LayerCount: 2
Fore
SplineSet
512 888 m 0
 269.056 888 72 691.008 72 448 c 0
 72 204.992 269.056 8 512 8 c 0
 755.008 8 952 204.992 952 448 c 0
 952 691.008 755.008 888 512 888 c 0
512 136 m 0
 339.968 136 200 276.032 200 448 c 0
 200 620.032 340.032 760 512 760 c 0
 684.032 760 824 620.032 824 448 c 0
 824 275.968 684.032 136 512 136 c 0
550.272 503.424 m 1
 550.272 616 l 2
 550.272 633.664 535.936 648 518.272 648 c 0
 500.608 648 486.272 633.664 486.272 616 c 2
 486.272 488 l 2
 486.272 487.36 486.592 486.848 486.656 486.272 c 0
 486.72 484.032 487.296 482.112 487.872 480 c 0
 488.384 478.016 488.768 476.032 489.664 474.176 c 0
 490.496 472.512 491.712 471.04 492.8 469.568 c 0
 494.144 467.712 495.424 465.856 497.088 464.384 c 0
 497.536 463.936 497.728 463.36 498.24 463.04 c 2
 658.24 335.04 l 2
 664.128 330.368 671.168 328.064 678.208 328.064 c 0
 687.616 328.064 696.896 332.16 703.296 340.096 c 0
 714.368 353.984 712.064 374.08 698.304 385.088 c 2
 550.272 503.424 l 1
EndSplineSet
Validated: 41
EndChar

StartChar: uniE041
Encoding: 67 57409 67
Width: 1024
LayerCount: 2
Fore
SplineSet
831.488 285.76 m 1
 740.992 376.256 l 1
 786.24 421.504 l 1
 876.736 331.008 l 1
 831.488 285.76 l 1
868.992 493.504 m 1
 996.992 493.504 l 1
 996.992 429.504 l 1
 868.992 429.504 l 1
 868.992 493.504 l 1
876.8 874.048 m 1
 922.048 828.8 l 1
 831.552 738.304 l 1
 786.24 783.552 l 1
 876.8 874.048 l 1
580.992 917.056 m 1
 644.992 917.056 l 1
 644.992 789.056 l 1
 580.992 789.056 l 1
 580.992 917.056 l 1
379.008 828.8 m 1
 469.504 738.304 l 1
 424.256 693.056 l 1
 333.76 783.552 l 1
 379.008 828.8 l 1
647.232 735.04 m 1
 27.008 114.752 l 1
 162.752 -20.992 l 1
 782.976 599.296 l 1
 647.232 735.04 l 1
511.488 508.8 m 1
 647.232 644.608 l 1
 692.48 599.36 l 1
 556.736 463.552 l 1
 511.488 508.8 l 1
EndSplineSet
Validated: 9
EndChar

StartChar: uniE042
Encoding: 68 57410 68
Width: 1024
LayerCount: 2
Fore
SplineSet
384 512 m 0
 384 441.308 441.308 384 512 384 c 0
 582.692 384 640 441.308 640 512 c 0
 640 582.692 582.692 640 512 640 c 0
 441.308 640 384 582.692 384 512 c 0
640 320 m 0
 576 320 448 320 384 320 c 0
 256 320 384 -64 448 -64 c 0
 512 -64 448 -64 576 -64 c 0
 704 -64 768 320 640 320 c 0
512 960 m 0
 264.704 960 64 759.36 64 512 c 0
 64 350.464 149.888 209.28 278.144 130.432 c 1
 271.168 162.88 267.008 192.96 265.856 217.664 c 1
 181.696 288.192 128 393.92 128 512 c 0
 128 723.776 300.224 896 512 896 c 0
 723.776 896 896 723.776 896 512 c 0
 896 393.92 842.304 288.192 758.208 217.664 c 1
 756.992 192.896 752.896 162.88 745.92 130.432 c 1
 874.112 209.28 960 350.464 960 512 c 0
 960 759.36 759.296 960 512 960 c 0
512 792 m 0
 357.44 792 232 666.624 232 512 c 0
 232 445.824 255.936 385.792 294.4 337.856 c 1
 307.584 355.968 324.864 369.152 345.152 376.512 c 1
 314.88 413.696 296 460.416 296 512 c 0
 296 631.104 392.896 728 512 728 c 0
 631.104 728 728 631.104 728 512 c 0
 728 460.416 709.12 413.696 678.848 376.512 c 1
 699.136 369.216 716.416 356.032 729.6 337.856 c 1
 768.064 385.792 792 445.824 792 512 c 0
 792 666.624 666.56 792 512 792 c 0
EndSplineSet
Validated: 41
EndChar

StartChar: uniE043
Encoding: 69 57411 69
Width: 1024
LayerCount: 2
Fore
SplineSet
832 960 m 2
 192 960 l 2
 86.4 960 0 873.6 0 768 c 2
 0 128 l 2
 0 22.4 86.4 -64 192 -64 c 2
 832 -64 l 2
 937.6 -64 1024 22.4 1024 128 c 2
 1024 768 l 2
 1024 873.6 937.6 960 832 960 c 2
286.528 128.128 m 0
 234.56 128.128 192.256 170.176 192.256 222.272 c 0
 192.256 274.24 234.496 316.8 286.528 316.8 c 0
 338.624 316.8 380.928 274.24 380.928 222.272 c 0
 380.864 170.176 338.624 128.128 286.528 128.128 c 0
530.432 128 m 1
 528.832 192 490.56 302.016 428.16 364.544 c 0
 365.696 427.2 256 465.024 192 466.624 c 1
 192 590.336 l 1
 448 586.944 651.136 384 654.528 128 c 1
 530.432 128 l 1
772.096 128 m 1
 768.768 448 512 704.96 192 708.352 c 1
 192 832 l 1
 576 828.544 892.608 512 896 128 c 1
 772.096 128 l 1
EndSplineSet
Validated: 9
EndChar

StartChar: uniE044
Encoding: 70 57412 70
Width: 1024
LayerCount: 2
Fore
SplineSet
466.752 855.232 m 1
 104.704 855.296 l 1
 104.704 493.248 l 1
 557.248 40.768 l 1
 919.296 402.752 l 1
 466.752 855.232 l 1
296.704 583.296 m 0
 252.608 583.296 216.704 619.2 216.704 663.296 c 0
 216.704 707.392 252.608 743.296 296.704 743.296 c 0
 340.8 743.296 376.704 707.392 376.704 663.296 c 0
 376.704 619.2 340.8 583.296 296.704 583.296 c 0
EndSplineSet
Validated: 9
EndChar

StartChar: uniE045
Encoding: 71 57413 71
Width: 1024
LayerCount: 2
Fore
SplineSet
748.672 875.52 m 2
 748.672 875.52 583.68 796.672 418.688 853.952 c 0
 238.976 916.544 157.952 891.328 81.152 797.632 c 1
 67.968 805.12 51.456 805.888 37.568 797.44 c 0
 17.344 785.024 10.944 758.336 23.488 738.24 c 2
 461.056 28.16 l 2
 469.184 14.912 483.264 7.68 497.664 7.68 c 0
 505.28 7.68 513.088 9.792 520.192 14.08 c 0
 540.416 26.496 546.752 53.12 534.272 73.344 c 2
 339.648 389.184 l 1
 416.384 482.496 497.28 507.712 676.928 445.248 c 0
 841.92 387.84 1006.91 466.624 1006.91 466.624 c 1
 748.672 875.52 l 2
EndSplineSet
Validated: 41
EndChar

StartChar: uniE046
Encoding: 72 57414 72
Width: 1024
LayerCount: 2
Fore
SplineSet
321.728 497.216 m 1
 449.728 753.216 l 1
 449.728 945.216 l 1
 128.448 945.216 l 1
 257.728 497.216 l 1
 321.728 497.216 l 1
769.728 497.216 m 1
 895.104 945.216 l 1
 577.728 945.216 l 1
 577.728 753.216 l 1
 705.728 497.216 l 1
 769.728 497.216 l 1
667.584 230.976 m 1
 703.04 257.92 l 1
 900.992 408.064 l 1
 608.384 414.144 l 1
 593.728 456.128 l 1
 512 690.88 l 1
 415.552 414.144 l 1
 123.008 408.064 l 1
 356.416 230.976 l 1
 343.488 188.288 l 1
 271.424 -49.216 l 1
 512 118.016 l 1
 548.48 92.608 l 1
 752.576 -49.216 l 1
 680.512 188.352 l 1
 667.584 230.976 l 1
EndSplineSet
Validated: 9
EndChar

StartChar: uniE047
Encoding: 73 57415 73
Width: 1024
LayerCount: 2
Fore
SplineSet
907.584 371.904 m 0
 903.808 409.6 870.08 437.12 832.32 433.28 c 2
 729.984 422.848 l 1
 729.664 425.856 l 1
 810.816 434.112 l 2
 843.84 437.504 867.456 470.784 863.552 508.544 c 0
 859.712 546.304 829.952 574.144 796.8 570.816 c 2
 525.44 543.04 l 1
 486.784 542.528 l 1
 486.784 542.528 542.528 567.808 499.776 769.408 c 0
 457.088 970.944 344.128 895.232 344.128 895.232 c 1
 344.128 895.232 342.656 723.072 336.576 698.624 c 0
 330.496 674.176 198.016 416.512 198.016 416.512 c 1
 198.016 402.88 115.968 389.248 116.032 375.488 c 0
 116.992 256.96 116.032 155.584 116.032 32.832 c 1
 204.032 55.808 251.072 -13.248 439.04 -13.248 c 0
 500.416 -13.248 577.216 -3.264 641.92 7.424 c 1
 811.136 24.704 l 2
 840.512 27.712 861.184 60.672 857.344 98.432 c 0
 854.336 127.552 837.44 150.592 816.448 158.4 c 1
 837.696 160.576 l 2
 871.168 164.032 895.296 197.312 891.52 235.072 c 0
 888.192 267.456 865.152 291.2 837.568 295.552 c 1
 846.208 296.448 l 2
 883.968 300.352 911.424 334.144 907.584 371.904 c 0
EndSplineSet
Validated: 41
EndChar

StartChar: uniE048
Encoding: 74 57416 74
Width: 1024
LayerCount: 2
Fore
SplineSet
960 576 m 1
 960 736 l 2
 960 753.6 945.6 768 928 768 c 2
 896 768 l 1
 896 832 l 1
 960 832 l 1
 960 896 l 1
 704 896 l 1
 704 832 l 1
 768 832 l 1
 768 768 l 1
 736 768 l 2
 718.4 768 704 753.6 704 736 c 2
 704 576 l 1
 640 576 l 1
 640 640 l 2
 640 675.2 611.2 704 576 704 c 2
 448 704 l 2
 412.8 704 384 675.2 384 640 c 2
 384 576 l 1
 320 576 l 1
 320 736 l 2
 320 753.6 305.6 768 288 768 c 2
 256 768 l 1
 256 832 l 1
 320 832 l 1
 320 896 l 1
 64 896 l 1
 64 832 l 1
 128 832 l 1
 128 768 l 1
 96 768 l 2
 78.4 768 64 753.6 64 736 c 2
 64 576 l 1
 28.8 576 0 547.2 0 512 c 2
 0 64 l 2
 0 28.8 28.8 0 64 0 c 2
 320 0 l 2
 355.2 0 384 28.8 384 64 c 2
 384 448 l 1
 480 448 l 2
 462.4 448 448 433.6 448 416 c 0
 448 398.4 462.4 384 480 384 c 2
 544 384 l 2
 561.6 384 576 398.4 576 416 c 0
 576 433.6 561.6 448 544 448 c 2
 640 448 l 1
 640 64 l 2
 640 28.8 668.8 0 704 0 c 2
 960 0 l 2
 995.2 0 1024 28.8 1024 64 c 2
 1024 512 l 2
 1024 547.2 995.2 576 960 576 c 1
320 80 m 2
 320 71.168 312.832 64 304 64 c 2
 80 64 l 2
 71.168 64 64 71.168 64 80 c 2
 64 112 l 2
 64 120.832 71.168 128 80 128 c 2
 304 128 l 2
 312.832 128 320 120.832 320 112 c 2
 320 80 l 2
960 80 m 2
 960 71.168 952.832 64 944 64 c 2
 720 64 l 2
 711.168 64 704 71.168 704 80 c 2
 704 112 l 2
 704 120.832 711.168 128 720 128 c 2
 944 128 l 2
 952.832 128 960 120.832 960 112 c 2
 960 80 l 2
EndSplineSet
Validated: 9
EndChar

StartChar: uniE049
Encoding: 75 57417 75
Width: 1024
LayerCount: 2
Fore
SplineSet
32 960 m 1
 32 -64 l 1
 992 -64 l 1
 992 960 l 1
 32 960 l 1
288 128 m 1
 224 128 l 1
 224 64 l 1
 160 64 l 1
 160 192 l 1
 288 192 l 1
 288 128 l 1
288 320 m 1
 224 320 l 1
 224 256 l 1
 160 256 l 1
 160 384 l 1
 288 384 l 1
 288 320 l 1
288 512 m 1
 224 512 l 1
 224 448 l 1
 160 448 l 1
 160 576 l 1
 288 576 l 1
 288 512 l 1
480 128 m 1
 416 128 l 1
 416 64 l 1
 352 64 l 1
 352 192 l 1
 480 192 l 1
 480 128 l 1
480 320 m 1
 416 320 l 1
 416 256 l 1
 352 256 l 1
 352 384 l 1
 480 384 l 1
 480 320 l 1
480 512 m 1
 416 512 l 1
 416 448 l 1
 352 448 l 1
 352 576 l 1
 480 576 l 1
 480 512 l 1
672 128 m 1
 608 128 l 1
 608 64 l 1
 544 64 l 1
 544 192 l 1
 672 192 l 1
 672 128 l 1
672 320 m 1
 608 320 l 1
 608 256 l 1
 544 256 l 1
 544 384 l 1
 672 384 l 1
 672 320 l 1
672 512 m 1
 608 512 l 1
 608 448 l 1
 544 448 l 1
 544 576 l 1
 672 576 l 1
 672 512 l 1
864 128 m 1
 800 128 l 1
 800 64 l 1
 736 64 l 1
 736 192 l 1
 864 192 l 1
 864 128 l 1
864 320 m 1
 800 320 l 1
 800 256 l 1
 736 256 l 1
 736 384 l 1
 864 384 l 1
 864 320 l 1
864 512 m 1
 800 512 l 1
 800 448 l 1
 736 448 l 1
 736 576 l 1
 864 576 l 1
 864 512 l 1
864 640 m 1
 160 640 l 1
 160 832 l 1
 864 832 l 1
 864 640 l 1
736 768 m 1
 800 768 l 1
 800 704 l 1
 736 704 l 1
 736 768 l 1
EndSplineSet
Validated: 9
EndChar

StartChar: uniE04A
Encoding: 76 57418 76
Width: 1024
LayerCount: 2
Fore
SplineSet
864 192 m 2
 160 192 l 2
 124.672 192 94.528 204.48 69.504 229.504 c 0
 44.48 254.528 32 284.672 32 320 c 2
 32 576 l 2
 32 611.328 44.48 641.472 69.504 666.496 c 0
 94.528 691.52 124.672 704 160 704 c 2
 864 704 l 2
 899.328 704 929.472 691.52 954.496 666.496 c 0
 979.52 641.472 992 611.328 992 576 c 2
 992 320 l 2
 992 284.672 979.52 254.528 954.496 229.504 c 0
 929.472 204.48 899.328 192 864 192 c 2
288 544 m 2
 288 552.64 284.864 560.128 278.528 566.528 c 0
 272.192 572.928 264.64 576 256 576 c 2
 128 576 l 2
 119.36 576 111.872 572.864 105.472 566.528 c 0
 99.072 560.192 96 552.64 96 544 c 2
 96 352 l 2
 96 343.36 99.136 335.872 105.472 329.472 c 0
 111.808 323.072 119.36 320 128 320 c 0
 136.64 320 144.128 323.136 150.528 329.472 c 0
 156.928 335.808 160 343.36 160 352 c 2
 160 384 l 1
 224 384 l 1
 224 352 l 2
 224 343.36 227.136 335.872 233.472 329.472 c 0
 239.808 323.072 247.36 320 256 320 c 0
 264.64 320 272.128 323.136 278.528 329.472 c 0
 284.928 335.808 288 343.36 288 352 c 2
 288 384 l 1
 256 384 l 2
 247.36 384 239.872 387.136 233.472 393.472 c 0
 227.072 399.808 224 407.36 224 416 c 0
 224 424.64 227.136 432.128 233.472 438.528 c 0
 239.808 444.928 247.36 448 256 448 c 2
 288 448 l 1
 288 544 l 2
544 544 m 2
 544 552.64 540.864 560.128 534.528 566.528 c 0
 528.192 572.928 520.64 576 512 576 c 2
 384 576 l 2
 375.36 576 367.872 572.864 361.472 566.528 c 0
 355.072 560.192 352 552.64 352 544 c 2
 352 352 l 2
 352 343.36 355.136 335.872 361.472 329.472 c 0
 367.808 323.072 375.36 320 384 320 c 0
 392.64 320 400.128 323.136 406.528 329.472 c 0
 412.928 335.808 416 343.36 416 352 c 2
 416 384 l 1
 480 384 l 1
 480 352 l 2
 480 343.36 483.136 335.872 489.472 329.472 c 0
 495.808 323.072 503.36 320 512 320 c 0
 520.64 320 528.128 323.136 534.528 329.472 c 0
 540.928 335.808 544 343.36 544 352 c 2
 544 544 l 2
928 544 m 2
 928 552.64 924.864 560.128 918.528 566.528 c 0
 912.192 572.928 904.64 576 896 576 c 2
 640 576 l 2
 631.36 576 623.872 572.864 617.472 566.528 c 0
 611.072 560.192 608 552.64 608 544 c 2
 608 352 l 2
 608 343.36 611.136 335.872 617.472 329.472 c 0
 623.808 323.072 631.36 320 640 320 c 0
 648.64 320 656.128 323.136 662.528 329.472 c 0
 668.928 335.808 672 343.36 672 352 c 2
 672 512 l 1
 736 512 l 1
 736 352 l 2
 736 343.36 739.136 335.872 745.472 329.472 c 0
 751.808 323.072 759.36 320 768 320 c 0
 776.64 320 784.128 323.136 790.528 329.472 c 0
 796.928 335.808 800 343.36 800 352 c 2
 800 512 l 1
 864 512 l 1
 864 352 l 2
 864 343.36 867.136 335.872 873.472 329.472 c 0
 879.808 323.072 887.36 320 896 320 c 0
 904.64 320 912.128 323.136 918.528 329.472 c 0
 924.928 335.808 928 343.36 928 352 c 2
 928 544 l 2
416 512 m 1
 480 512 l 1
 480 448 l 1
 416 448 l 1
 416 512 l 1
160 512 m 1
 224 512 l 1
 224 448 l 1
 160 448 l 1
 160 512 l 1
800 928 m 2
 800 936.64 803.136 944.128 809.472 950.528 c 0
 815.808 956.928 823.36 960 832 960 c 0
 840.64 960 848.128 956.864 854.528 950.528 c 0
 860.928 944.192 864 936.64 864 928 c 2
 864 768 l 1
 800 768 l 1
 800 928 l 2
672 928 m 2
 672 936.64 675.136 944.128 681.472 950.528 c 0
 687.808 956.928 695.36 960 704 960 c 0
 712.64 960 720.128 956.864 726.528 950.528 c 0
 732.928 944.192 736 936.64 736 928 c 2
 736 768 l 1
 672 768 l 1
 672 928 l 2
544 928 m 2
 544 936.64 547.136 944.128 553.472 950.528 c 0
 559.808 956.928 567.36 960 576 960 c 0
 584.64 960 592.128 956.864 598.528 950.528 c 0
 604.928 944.192 608 936.64 608 928 c 2
 608 768 l 1
 544 768 l 1
 544 928 l 2
416 928 m 2
 416 936.64 419.136 944.128 425.472 950.528 c 0
 431.808 956.928 439.36 960 448 960 c 0
 456.64 960 464.128 956.864 470.528 950.528 c 0
 476.928 944.192 480 936.64 480 928 c 2
 480 768 l 1
 416 768 l 1
 416 928 l 2
288 928 m 2
 288 936.64 291.136 944.128 297.472 950.528 c 0
 303.808 956.928 311.36 960 320 960 c 0
 328.64 960 336.128 956.864 342.528 950.528 c 0
 348.928 944.192 352 936.64 352 928 c 2
 352 768 l 1
 288 768 l 1
 288 928 l 2
160 928 m 2
 160 936.64 163.136 944.128 169.472 950.528 c 0
 175.808 956.928 183.36 960 192 960 c 0
 200.64 960 208.128 956.864 214.528 950.528 c 0
 220.928 944.192 224 936.64 224 928 c 2
 224 768 l 1
 160 768 l 1
 160 928 l 2
224 -32 m 2
 224 -40.64 220.864 -48.128 214.528 -54.528 c 0
 208.192 -60.928 200.64 -64 192 -64 c 0
 183.36 -64 175.872 -60.864 169.472 -54.528 c 0
 163.072 -48.192 160 -40.64 160 -32 c 2
 160 128 l 1
 224 128 l 1
 224 -32 l 2
352 -32 m 2
 352 -40.64 348.864 -48.128 342.528 -54.528 c 0
 336.192 -60.928 328.64 -64 320 -64 c 0
 311.36 -64 303.872 -60.864 297.472 -54.528 c 0
 291.072 -48.192 288 -40.64 288 -32 c 2
 288 128 l 1
 352 128 l 1
 352 -32 l 2
480 -32 m 2
 480 -40.64 476.864 -48.128 470.528 -54.528 c 0
 464.192 -60.928 456.64 -64 448 -64 c 0
 439.36 -64 431.872 -60.864 425.472 -54.528 c 0
 419.072 -48.192 416 -40.64 416 -32 c 2
 416 128 l 1
 480 128 l 1
 480 -32 l 2
608 -32 m 2
 608 -40.64 604.864 -48.128 598.528 -54.528 c 0
 592.192 -60.928 584.64 -64 576 -64 c 0
 567.36 -64 559.872 -60.864 553.472 -54.528 c 0
 547.072 -48.192 544 -40.64 544 -32 c 2
 544 128 l 1
 608 128 l 1
 608 -32 l 2
736 -32 m 2
 736 -40.64 732.864 -48.128 726.528 -54.528 c 0
 720.192 -60.928 712.64 -64 704 -64 c 0
 695.36 -64 687.872 -60.864 681.472 -54.528 c 0
 675.072 -48.192 672 -40.64 672 -32 c 2
 672 128 l 1
 736 128 l 1
 736 -32 l 2
864 -32 m 2
 864 -40.64 860.864 -48.128 854.528 -54.528 c 0
 848.192 -60.928 840.64 -64 832 -64 c 0
 823.36 -64 815.872 -60.864 809.472 -54.528 c 0
 803.072 -48.192 800 -40.64 800 -32 c 2
 800 128 l 1
 864 128 l 1
 864 -32 l 2
EndSplineSet
Validated: 1
EndChar

StartChar: uniE04B
Encoding: 77 57419 77
Width: 1024
LayerCount: 2
Fore
SplineSet
928 960 m 2
 160 960 l 2
 124.8 960 96 931.2 96 896 c 2
 96 768 l 1
 192 768 l 2
 209.6 768 224 753.6 224 736 c 0
 224 718.4 209.6 704 192 704 c 2
 64 704 l 2
 46.4 704 32 689.536 32 672 c 0
 32 654.464 46.4 640 64 640 c 2
 96 640 l 1
 96 512 l 1
 192 512 l 2
 209.6 512 224 497.536 224 480 c 0
 224 462.4 209.6 448 192 448 c 2
 64 448 l 2
 46.4 448 32 433.536 32 416 c 0
 32 398.4 46.4 384 64 384 c 2
 96 384 l 1
 96 256 l 1
 192 256 l 2
 209.6 256 224 241.536 224 224 c 0
 224 206.4 209.6 192 192 192 c 2
 64 192 l 2
 46.4 192 32 177.536 32 160 c 0
 32 142.4 46.4 128 64 128 c 2
 96 128 l 1
 96 0 l 2
 96 -35.264 124.8 -64 160 -64 c 2
 928 -64 l 2
 963.2 -64 992 -35.264 992 0 c 2
 992 896 l 2
 992 931.136 963.2 960 928 960 c 2
800 512 m 1
 416 512 l 1
 416 768 l 1
 800 768 l 1
 800 512 l 1
EndSplineSet
Validated: 9
EndChar

StartChar: uniE04C
Encoding: 78 57420 78
Width: 1024
LayerCount: 2
Fore
SplineSet
0 960 m 1
 256 960 l 1
 256 704 l 1
 0 704 l 1
 0 960 l 1
0 576 m 1
 256 576 l 1
 256 320 l 1
 0 320 l 1
 0 576 l 1
0 192 m 1
 256 192 l 1
 256 -64 l 1
 0 -64 l 1
 0 192 l 1
384 960 m 1
 1024 960 l 1
 1024 704 l 1
 384 704 l 1
 384 960 l 1
384 576 m 1
 1024 576 l 1
 1024 320 l 1
 384 320 l 1
 384 576 l 1
384 192 m 1
 1024 192 l 1
 1024 -64 l 1
 384 -64 l 1
 384 192 l 1
EndSplineSet
Validated: 1
EndChar

StartChar: uniE04D
Encoding: 79 57421 79
Width: 1024
LayerCount: 2
Fore
SplineSet
512 672 m 1
 512 832 155.84 864 0 864 c 1
 0 160 l 1
 32 160 l 2
 43.2 160 53.376 159.872 64 159.872 c 1
 64 96 l 1
 192 96 448 134.4 448 32 c 1
 576 32 l 1
 576 134.4 832 96 960 96 c 1
 960 159.872 l 1
 970.624 159.872 980.8 160 992 160 c 2
 1024 160 l 1
 1024 864 l 1
 868.16 864 512 832 512 672 c 1
64 800 m 0
 95.872 799.68 124.608 798.4 151.616 796.544 c 0
 156.864 796.224 162.112 795.904 167.424 795.52 c 0
 169.344 795.392 171.392 795.264 173.312 795.072 c 0
 299.264 786.112 432.64 759.808 446.016 684.224 c 0
 447.232 679.936 448 675.776 448 672 c 2
 448 195.392 l 1
 354.624 250.624 179.648 255.488 64 256 c 1
 64 800 l 0
960 256 m 1
 844.352 255.488 669.376 250.624 576 195.392 c 1
 576 672 l 2
 576 714.432 643.648 796.864 960 800 c 1
 960 256 l 1
EndSplineSet
Validated: 41
EndChar

StartChar: uniE04E
Encoding: 80 57422 80
Width: 1024
LayerCount: 2
Fore
SplineSet
192 704 m 1
 832 704 l 1
 512 192 l 1
 192 704 l 1
EndSplineSet
Validated: 1
EndChar

StartChar: uniE04F
Encoding: 81 57423 81
Width: 1024
LayerCount: 2
Fore
SplineSet
0 960 m 1
 0 -64 l 1
 1024 -64 l 1
 1024 960 l 1
 0 960 l 1
128 0 m 1
 64 0 l 1
 64 64 l 1
 128 64 l 1
 128 0 l 1
128 192 m 1
 64 192 l 1
 64 256 l 1
 128 256 l 1
 128 192 l 1
128 384 m 1
 64 384 l 1
 64 448 l 1
 128 448 l 1
 128 384 l 1
128 576 m 1
 64 576 l 1
 64 640 l 1
 128 640 l 1
 128 576 l 1
128 768 m 1
 64 768 l 1
 64 832 l 1
 128 832 l 1
 128 768 l 1
832 64 m 1
 192 64 l 1
 192 384 l 1
 832 384 l 1
 832 64 l 1
832 512 m 1
 192 512 l 1
 192 832 l 1
 832 832 l 1
 832 512 l 1
960 0 m 1
 896 0 l 1
 896 64 l 1
 960 64 l 1
 960 0 l 1
960 192 m 1
 896 192 l 1
 896 256 l 1
 960 256 l 1
 960 192 l 1
960 384 m 1
 896 384 l 1
 896 448 l 1
 960 448 l 1
 960 384 l 1
960 576 m 1
 896 576 l 1
 896 640 l 1
 960 640 l 1
 960 576 l 1
960 768 m 1
 896 768 l 1
 896 832 l 1
 960 832 l 1
 960 768 l 1
EndSplineSet
Validated: 9
EndChar

StartChar: uniE050
Encoding: 82 57424 82
Width: 1024
LayerCount: 2
Fore
SplineSet
128.448 64 m 1
 128.448 832 l 1
 549.952 832 l 1
 768.448 613.504 l 1
 768.448 448 l 1
 896.448 448 l 1
 896.448 666.496 l 1
 602.944 960 l 1
 0.448 960 l 1
 0.448 -64 l 1
 384.448 -64 l 1
 384.448 64 l 1
 256.448 64 l 1
 128.448 64 l 1
933.056 375.232 m 1
 674.752 116.992 l 1
 538.944 252.736 l 1
 448.448 162.24 l 1
 674.752 -64 l 1
 1023.55 284.736 l 1
 933.056 375.232 l 1
EndSplineSet
Validated: 9
EndChar

StartChar: uniE051
Encoding: 83 57425 83
Width: 1024
LayerCount: 2
Fore
SplineSet
384 768 m 1
 384 256 l 1
 768 256 l 1
 768 128 l 1
 256 128 l 1
 256 768 l 1
 384 768 l 1
832 960 m 2
 192 960 l 2
 85.952 960 0 874.048 0 768 c 2
 0 128 l 2
 0 21.952 85.952 -64 192 -64 c 2
 832 -64 l 2
 937.984 -64 1024 21.952 1024 128 c 2
 1024 768 l 2
 1024 874.048 937.984 960 832 960 c 2
960 168 m 2
 960 75.2 884.736 0 792 0 c 2
 232 0 l 2
 139.2 0 64 75.2 64 168 c 2
 64 728 l 2
 64 820.8 139.2 896 232 896 c 2
 792 896 l 2
 884.736 896 960 820.8 960 728 c 2
 960 168 l 2
EndSplineSet
Validated: 9
EndChar

StartChar: uniE052
Encoding: 84 57426 84
Width: 1024
LayerCount: 2
Fore
SplineSet
768 800 m 1
 640 800 l 1
 640 870.656 582.656 928 512 928 c 0
 441.344 928 384 870.656 384 800 c 1
 256 800 l 1
 256 672 l 1
 768 672 l 1
 768 800 l 1
512 736 m 0
 476.608 736 448 764.672 448 800 c 0
 448 835.328 476.608 864 512 864 c 0
 547.392 864 576 835.328 576 800 c 0
 576 764.672 547.392 736 512 736 c 0
292.416 160 m 1
 383.808 160 l 1
 383.808 160 385.152 265.344 380.288 273.152 c 0
 374.72 281.664 356.352 287.04 338.112 294.656 c 0
 319.872 302.272 315.456 304.896 315.456 304.896 c 1
 315.328 322.368 l 1
 315.328 322.368 322.24 327.616 324.416 344.064 c 1
 328.64 342.784 333.184 350.464 333.376 354.496 c 0
 333.568 358.272 332.8 369.024 327.616 367.936 c 1
 328.704 376 329.28 383.232 329.024 387.136 c 0
 327.68 401.216 313.792 416 292.416 416 c 0
 271.232 416 257.408 401.216 255.936 387.136 c 0
 255.744 383.232 256.512 376 257.408 367.936 c 1
 252.16 369.024 251.52 358.272 251.648 354.496 c 0
 251.904 350.464 256.512 342.784 260.672 344.064 c 1
 262.784 327.616 269.76 322.368 269.76 322.368 c 1
 269.568 304.896 l 1
 269.568 304.896 265.344 302.272 247.04 294.656 c 0
 228.672 287.04 210.24 281.664 204.928 273.152 c 0
 199.808 265.344 201.216 160 201.216 160 c 1
 292.416 160 l 1
832 800 m 1
 832 608 l 1
 192 608 l 1
 192 800 l 1
 0 800 l 1
 0 -32 l 1
 1024 -32 l 1
 1024 800 l 1
 832 800 l 1
448 96 m 1
 128 96 l 1
 128 480 l 1
 448 480 l 1
 448 96 l 1
896 288 m 1
 576 288 l 1
 576 352 l 1
 896 352 l 1
 896 288 l 1
896 416 m 1
 576 416 l 1
 576 480 l 1
 896 480 l 1
 896 416 l 1
EndSplineSet
Validated: 41
EndChar

StartChar: uniE053
Encoding: 85 57427 85
Width: 1024
LayerCount: 2
Fore
SplineSet
480 896 m 0
 214.904 896 0 681.096 0 416 c 0
 0 150.902 214.904 -64 480 -64 c 0
 745.098 -64 960 150.902 960 416 c 0
 960 681.096 745.098 896 480 896 c 0
751.59 256 m 1
 760.17 296.454 765.586 339.392 767.348 384 c 1
 894.794 384 l 1
 891.458 339.804 881.17 296.886 864.114 256 c 1
 751.59 256 l 1
208.41 576 m 1
 199.83 535.546 194.414 492.608 192.652 448 c 1
 65.208 448 l 1
 68.544 492.194 78.83 535.114 95.886 576 c 1
 208.41 576 l 1
686.036 576 m 0
 695.65 535.038 701.434 492.146 703.316 448 c 1
 512 448 l 1
 512 576 l 1
 686.036 576 l 0
512 640 m 1
 512 827.338 l 1
 526.59 823.092 541.044 815.968 555.228 805.968 c 0
 581.81 787.228 607.24 758.36 628.768 722.482 c 0
 643.65 697.68 656.52 670.066 667.264 639.998 c 1
 512 639.998 l 1
 512 640 l 1
331.232 722.484 m 0
 352.76 758.362 378.188 787.232 404.772 805.97 c 0
 418.954 815.97 433.41 823.094 448 827.34 c 1
 448 640 l 1
 292.736 640 l 1
 303.482 670.066 316.352 697.68 331.232 722.484 c 0
448 576 m 1
 448 448 l 1
 256.686 448 l 1
 258.566 492.146 264.352 535.038 273.964 576 c 1
 448 576 l 1
95.888 256 m 1
 78.832 296.886 68.546 339.804 65.21 384 c 1
 192.654 384 l 1
 194.416 339.392 199.832 296.454 208.412 256 c 1
 95.888 256 l 1
256.686 384 m 1
 448 384 l 1
 448 256 l 1
 273.964 256 l 1
 264.352 296.96 258.566 339.854 256.686 384 c 1
448 192 m 1
 448 4.66 l 1
 433.412 8.906 418.956 16.032 404.772 26.03 c 0
 378.188 44.77 352.758 73.64 331.232 109.516 c 0
 316.35 134.32 303.482 161.934 292.734 192 c 1
 448 192 l 1
628.768 109.516 m 0
 607.24 73.64 581.81 44.77 555.228 26.03 c 0
 541.044 16.032 526.59 8.906 512 4.66 c 1
 512 192 l 1
 667.266 192 l 1
 656.52 161.934 643.65 134.32 628.768 109.516 c 0
512 256 m 1
 512 384 l 1
 703.314 384 l 1
 701.434 339.854 695.648 296.96 686.034 256 c 1
 512 256 l 1
767.348 448 m 1
 765.586 492.608 760.17 535.546 751.59 576 c 1
 864.114 576 l 1
 881.17 535.114 891.458 492.194 894.794 448 c 1
 767.348 448 l 1
830.658 640 m 1
 734.758 640 l 1
 716.12 698.762 690.382 750.294 659.442 791.428 c 1
 701.978 771.088 740.5 743.812 774.156 710.156 c 0
 795.636 688.678 814.518 665.218 830.658 640 c 1
185.844 710.156 m 0
 219.502 743.814 258.024 771.088 300.558 791.428 c 1
 269.616 750.294 243.882 698.762 225.242 640 c 1
 129.344 640 l 1
 145.482 665.218 164.366 688.678 185.844 710.156 c 0
129.344 192 m 1
 225.242 192 l 1
 243.882 133.238 269.618 81.706 300.56 40.57 c 1
 258.024 60.91 219.502 88.186 185.846 121.844 c 0
 164.366 143.322 145.482 166.782 129.344 192 c 1
774.156 121.844 m 0
 740.5 88.186 701.976 60.91 659.442 40.57 c 1
 690.384 81.704 716.12 133.238 734.758 192 c 1
 830.658 192 l 1
 814.518 166.782 795.636 143.322 774.156 121.844 c 0
EndSplineSet
Validated: 9
EndChar

StartChar: uniE054
Encoding: 86 57428 86
Width: 1024
LayerCount: 2
Fore
SplineSet
512.064 940.288 m 0
 240.064 940.288 19.712 719.936 19.712 448 c 0
 19.712 176 240.064 -44.224 512.064 -44.224 c 0
 783.936 -44.224 1004.42 176 1004.42 448 c 0
 1004.42 719.936 783.936 940.288 512.064 940.288 c 0
512.064 27.648 m 0
 280.192 27.648 91.712 216.128 91.712 447.936 c 0
 91.712 679.744 280.32 868.288 512.064 868.288 c 0
 743.808 868.288 932.416 679.744 932.416 447.936 c 0
 932.416 216.128 743.808 27.648 512.064 27.648 c 0
620.096 609.088 m 1
 722.688 609.088 l 1
 575.808 795.712 l 1
 321.024 609.088 l 1
 425.92 609.088 l 1
 361.92 387.456 l 2
 337.728 303.744 335.296 245.888 354.304 210.624 c 0
 368.576 183.936 389.504 165.824 416.512 156.608 c 0
 442.752 147.648 487.744 143.168 550.208 143.168 c 2
 646.72 143.168 l 1
 655.744 174.336 l 1
 636.736 174.336 l 2
 582.912 174.336 548.736 185.664 535.104 207.936 c 0
 521.216 230.592 523.136 272.96 540.736 333.888 c 2
 620.096 609.088 l 1
EndSplineSet
Validated: 41
EndChar

StartChar: uniE055
Encoding: 87 57429 87
Width: 1024
LayerCount: 2
Fore
SplineSet
528.64 654.08 m 0
 556.416 651.84 582.336 644.096 605.696 632.192 c 1
 667.2 693.696 l 1
 564.672 730.56 452.48 734.08 347.328 703.168 c 1
 418.688 631.808 l 1
 451.584 648.576 489.088 657.28 528.64 654.08 c 0
305.856 464.64 m 0
 308.096 492.416 315.84 518.336 327.744 541.696 c 1
 223.232 646.272 l 1
 164.864 610.304 111.04 563.072 66.752 501.12 c 1
 64 466.88 l 1
 106.88 380.352 167.424 312.896 237.568 264.128 c 1
 328.192 354.752 l 1
 311.424 387.648 302.656 425.152 305.856 464.64 c 0
957.248 394.88 m 1
 960 429.248 l 1
 917.12 515.712 856.576 583.104 786.432 631.936 c 1
 695.808 541.312 l 1
 712.576 508.352 721.28 470.848 718.144 431.36 c 0
 715.904 403.584 708.16 377.6 696.192 354.24 c 1
 800.768 249.728 l 1
 859.136 285.632 912.96 332.864 957.248 394.88 c 1
495.36 241.856 m 0
 467.584 244.096 441.664 251.84 418.304 263.744 c 1
 356.8 202.24 l 1
 459.328 165.504 571.456 161.856 676.672 192.768 c 1
 605.312 264.256 l 1
 572.352 247.488 534.848 238.72 495.36 241.856 c 0
500.224 345.728 m 0
 504.192 345.344 508.032 344.64 512 344.64 c 0
 515.968 344.64 519.808 345.408 523.776 345.792 c 2
 512 357.504 l 1
 500.224 345.728 l 0
614.208 436.224 m 2
 614.656 440.256 615.36 444.032 615.36 448 c 0
 615.36 451.968 614.656 455.872 614.208 459.776 c 2
 602.496 448 l 1
 614.208 436.224 l 2
500.224 550.208 m 2
 512 538.432 l 1
 523.776 550.208 l 2
 519.808 550.656 515.968 551.36 512 551.36 c 0
 508.032 551.36 504.192 550.656 500.224 550.208 c 2
409.792 459.776 m 0
 409.344 455.872 408.64 451.968 408.64 448 c 0
 408.64 444.032 409.408 440.256 409.856 436.224 c 2
 421.504 448 l 1
 409.792 459.776 l 0
919.232 764.736 m 1
 828.736 855.232 l 1
 667.2 693.696 l 1
 708.992 678.656 749.056 657.92 786.432 631.936 c 1
 919.232 764.736 l 1
104.768 131.264 m 1
 195.264 40.768 l 1
 356.8 202.24 l 1
 315.008 217.344 274.944 238.016 237.568 264.128 c 1
 104.768 131.264 l 1
328.192 354.752 m 1
 237.568 264.128 l 1
 274.944 238.016 315.008 217.408 356.8 202.24 c 1
 418.304 263.744 l 1
 379.136 283.776 347.968 315.904 328.192 354.752 c 1
695.808 541.312 m 1
 786.432 631.936 l 1
 749.056 657.92 708.992 678.592 667.2 693.696 c 1
 605.696 632.192 l 1
 644.864 612.16 676.032 580.032 695.808 541.312 c 1
602.496 448 m 1
 614.208 459.776 l 1
 608.768 507.392 571.392 544.768 523.776 550.208 c 1
 512 538.432 l 1
 602.496 448 l 1
421.504 448 m 1
 409.792 436.224 l 1
 415.232 388.608 452.608 351.232 500.224 345.728 c 1
 512 357.504 l 1
 421.504 448 l 1
828.736 40.768 m 1
 919.232 131.264 l 1
 800.704 249.792 l 1
 761.152 225.408 719.744 205.568 676.672 192.768 c 1
 828.736 40.768 l 1
195.264 855.232 m 1
 104.768 764.736 l 1
 223.296 646.208 l 1
 262.848 670.592 304.256 690.496 347.328 703.168 c 1
 195.264 855.232 l 1
418.688 631.808 m 1
 347.328 703.168 l 1
 304.192 690.56 262.848 670.592 223.296 646.208 c 1
 327.808 541.632 l 1
 347.776 580.928 379.904 612.032 418.688 631.808 c 1
605.312 264.256 m 1
 676.672 192.768 l 1
 719.808 205.504 761.152 225.408 800.704 249.792 c 1
 696.128 354.304 l 1
 676.224 315.136 644.032 284.032 605.312 264.256 c 1
512 357.504 m 1
 523.776 345.728 l 1
 571.392 351.232 608.768 388.608 614.208 436.224 c 1
 602.496 448 l 1
 512 357.504 l 1
512 538.432 m 1
 500.224 550.208 l 1
 452.608 544.768 415.232 507.392 409.792 459.776 c 1
 421.504 448 l 1
 512 538.432 l 1
602.496 448 m 1
 512 357.504 l 1
 421.504 447.936 l 1
 512 538.432 l 1
 602.496 448 l 1
EndSplineSet
Validated: 37
EndChar

StartChar: uniE056
Encoding: 88 57430 88
Width: 1024
LayerCount: 2
Fore
SplineSet
11.264 507.84 m 1
 8.128 469.184 l 1
 208.768 64.064 749.76 20.416 1012.74 388.16 c 1
 1015.87 426.816 l 1
 815.104 831.936 274.112 875.584 11.264 507.84 c 1
493.248 216.192 m 0
 365.12 226.432 269.888 338.688 280.128 466.688 c 0
 290.496 594.816 402.496 690.176 530.624 679.808 c 0
 658.624 669.568 754.112 557.44 743.872 429.312 c 0
 733.504 301.312 621.248 205.824 493.248 216.192 c 0
395.648 448 m 1
 395.648 383.776 447.712 331.712 511.936 331.712 c 0
 576.16 331.712 628.224 383.776 628.224 448 c 1
 628.224 448 l 1
 628.224 512.224 576.16 564.288 511.936 564.288 c 0
 447.712 564.288 395.648 512.224 395.648 448 c 1
 395.648 448 l 1
EndSplineSet
Validated: 37
EndChar

StartChar: uniE057
Encoding: 89 57431 89
Width: 1024
LayerCount: 2
Fore
SplineSet
960 576 m 1
 832 576 l 1
 832 693.696 l 1
 632 896 l 1
 192 896 l 1
 192 576 l 1
 64 576 l 1
 0 512 l 1
 0 192 l 1
 192 192 l 1
 192 0 l 1
 832 0 l 1
 832 192 l 1
 1024 192 l 1
 1024 512 l 1
 960 576 l 1
128 448 m 1
 64 448 l 1
 64 512 l 1
 128 512 l 1
 128 448 l 1
768 256 m 1
 768 64 l 1
 256 64 l 1
 256 384 l 1
 768 384 l 1
 768 256 l 1
768 576 m 1
 256 576 l 1
 256 832 l 1
 576 832 l 1
 576 640 l 1
 768 640 l 1
 768 576 l 1
950.016 272 m 1
 889.984 272 l 1
 889.984 368 l 1
 950.016 368 l 1
 950.016 272 l 1
320 320 m 1
 704 320 l 1
 704 256 l 1
 320 256 l 1
 320 320 l 1
320 192 m 1
 704 192 l 1
 704 128 l 1
 320 128 l 1
 320 192 l 1
EndSplineSet
Validated: 9
EndChar

StartChar: uniE058
Encoding: 90 57432 90
Width: 1024
LayerCount: 2
Fore
SplineSet
640 640 m 1
 640 896 l 1
 384 896 l 1
 384 576 l 1
 256 576 l 1
 512 320 l 1
 768 576 l 1
 640 576 l 1
 640 640 l 1
887.488 704 m 1
 704 704 l 1
 704 640 l 1
 845.184 640 l 1
 927.104 448 l 1
 704 448 l 1
 704 341.952 618.048 256 512 256 c 0
 405.952 256 320 341.952 320 448 c 1
 96.896 448 l 1
 178.816 640 l 1
 320 640 l 1
 320 704 l 1
 136.512 704 l 1
 -1.13687e-13 384 l 1
 -1.13687e-13 0 l 1
 1024 0 l 1
 1024 384 l 1
 887.488 704 l 1
EndSplineSet
Validated: 9
EndChar

StartChar: uniE059
Encoding: 91 57433 91
Width: 1024
LayerCount: 2
Fore
SplineSet
512.128 594.752 m 1
 797.632 846.848 l 2
 795.712 847.232 794.048 848 792 848 c 2
 232 848 l 2
 230.784 848 229.632 847.424 228.48 847.232 c 2
 512.128 594.752 l 1
832 808 m 1
 832 812.864 830.848 817.28 829.248 821.376 c 1
 627.648 643.456 l 1
 826.752 469.12 l 1
 829.76 474.88 832 481.088 832 488 c 2
 832 808 l 1
195.136 823.488 m 1
 193.152 818.752 192 813.504 192 808 c 2
 192 488 l 2
 192 482.112 193.344 476.672 195.648 471.68 c 1
 396.544 644.032 l 1
 195.136 823.488 l 1
597.248 616.704 m 1
 511.872 541.248 l 1
 426.752 617.28 l 1
 229.888 448.448 l 2
 230.656 448.384 231.232 448 232 448 c 2
 790.272 448 l 1
 597.248 616.704 l 1
887.488 640 m 1
 704 640 l 1
 768 576 l 1
 845.184 576 l 1
 927.104 384 l 1
 704 384 l 1
 704 277.952 618.048 192 512 192 c 0
 405.952 192 320 277.952 320 384 c 1
 96.896 384 l 1
 178.816 576 l 1
 256 576 l 1
 320 640 l 1
 136.512 640 l 1
 -1.13687e-13 320 l 1
 -1.13687e-13 -64 l 1
 1024 -64 l 1
 1024 320 l 1
 887.488 640 l 1
EndSplineSet
Validated: 5
EndChar

StartChar: uniE05A
Encoding: 92 57434 92
Width: 1024
LayerCount: 2
Fore
SplineSet
887.488 800 m 1
 136.512 800 l 1
 5.68434e-14 480 l 1
 5.68434e-14 96 l 1
 1024 96 l 1
 1024 480 l 1
 887.488 800 l 1
704 544 m 1
 704 437.952 618.048 352 512 352 c 0
 405.952 352 320 437.952 320 544 c 1
 96.896 544 l 1
 178.816 736 l 1
 845.184 736 l 1
 927.104 544 l 1
 704 544 l 1
EndSplineSet
Validated: 9
EndChar

StartChar: uniE05B
Encoding: 93 57435 93
Width: 1024
LayerCount: 2
Fore
SplineSet
768 608 m 1
 640 608 l 1
 640 928 l 1
 384 928 l 1
 384 608 l 1
 256 608 l 1
 512 352 l 1
 768 608 l 1
887.488 672 m 1
 832 672 l 1
 832 608 l 1
 845.184 608 l 1
 927.104 416 l 1
 704 416 l 1
 704 309.952 618.048 224 512 224 c 0
 405.952 224 320 309.952 320 416 c 1
 96.896 416 l 1
 178.816 608 l 1
 192 608 l 1
 192 672 l 1
 136.512 672 l 1
 -1.42109e-13 352 l 1
 -1.42109e-13 -32 l 1
 1024 -32 l 1
 1024 352 l 1
 887.488 672 l 1
EndSplineSet
Validated: 9
EndChar

StartChar: uniE05C
Encoding: 94 57436 94
Width: 1024
LayerCount: 2
Fore
SplineSet
896 458.688 m 1
 896 544 l 1
 1024 544 l 1
 896 608 l 1
 896 685.248 l 1
 653.248 928 l 1
 128 928 l 1
 128 608 l 1
 0 544 l 1
 128 544 l 1
 128 458.688 l 1
 0 544 l 1
 0 2.496 l 1
 351.232 309.888 l 1
 192 416 l 1
 192 864 l 1
 626.752 864 l 1
 640 850.752 l 1
 640 672 l 1
 818.752 672 l 1
 832 658.752 l 1
 832 416 l 1
 672.768 309.888 l 1
 697.728 288 l 1
 1024 2.496 l 1
 1024 544 l 1
 896 458.688 l 1
600.512 288 m 1
 423.488 288 l 1
 57.728 -32 l 1
 966.272 -32 l 1
 673.664 224 l 1
 600.512 288 l 1
EndSplineSet
Validated: 5
EndChar

StartChar: uniE05D
Encoding: 95 57437 95
Width: 1024
LayerCount: 2
Fore
SplineSet
351.232 284.416 m 1
 43.392 489.6 l 1
 511.872 867.904 l 1
 980.544 489.6 l 1
 672.768 284.416 l 1
 1024 -22.912 l 1
 1024 518.592 l 1
 512.128 953.408 l 1
 -1.13687e-13 518.592 l 1
 -1.13687e-13 -22.912 l 1
 351.232 284.416 l 1
966.272 -57.408 m 1
 600.512 262.592 l 1
 423.488 262.592 l 1
 57.728 -57.408 l 1
 966.272 -57.408 l 1
EndSplineSet
Validated: 9
EndChar

StartChar: uniE05E
Encoding: 96 57438 96
Width: 1024
LayerCount: 2
Fore
SplineSet
208.064 -22.272 m 1
 168.768 -22.272 129.984 -4.16 93.632 32.32 c 2
 88.384 37.504 l 2
 50.88 74.496 -59.136 226.752 88.896 382.592 c 0
 163.392 460.992 266.24 562.624 375.04 670.08 c 0
 433.536 727.808 494.4 787.968 554.88 848.512 c 0
 664.192 957.696 744.128 932.8 868.096 814.72 c 0
 1014.53 675.328 1041.34 538.176 978.048 465.088 c 0
 893.952 368.128 575.808 49.856 562.304 36.352 c 0
 544.512 18.56 515.648 18.56 497.792 36.352 c 0
 480 54.208 480 83.008 497.792 100.864 c 0
 501.056 104.192 827.136 430.336 909.12 524.864 c 0
 927.936 546.624 930.816 629.12 805.184 748.736 c 0
 732.928 817.6 711.424 875.968 619.456 784 c 0
 558.848 723.392 497.856 663.104 439.232 605.248 c 0
 331.008 498.24 228.608 397.12 155.136 319.808 c 0
 68.736 228.8 113.152 141.376 152.512 102.528 c 2
 158.272 96.832 l 2
 191.744 63.424 219.2 54.272 268.224 103.424 c 0
 281.92 117.056 310.144 144.576 345.856 179.264 c 0
 444.544 275.2 628.288 453.696 665.408 500.16 c 0
 677.248 514.88 694.4 550.528 677.952 564.864 c 0
 655.36 584.704 613.76 544.704 601.664 531.968 c 0
 472.896 396.8 304.832 234.88 303.04 233.28 c 0
 284.928 215.808 256.064 216.256 238.592 234.56 c 0
 221.184 252.672 221.632 281.536 239.808 299.008 c 0
 241.536 300.544 408.32 461.184 535.68 594.944 c 0
 618.24 681.664 694.4 671.744 738.048 633.6 c 0
 791.232 587.072 778.752 495.744 736.704 443.2 c 0
 699.2 396.224 554.432 254.72 409.472 113.856 c 0
 374.272 79.616 346.304 52.416 332.8 38.976 c 0
 291.904 -1.856 249.728 -22.272 208.064 -22.272 c 1
 208.064 -22.272 l 1
EndSplineSet
Validated: 33
EndChar

StartChar: uniE05F
Encoding: 97 57439 97
Width: 1024
LayerCount: 2
Fore
SplineSet
512 920 m 0
 251.392 920 40 708.608 40 448 c 0
 40 187.392 251.392 -24 512 -24 c 0
 772.672 -24 984 187.392 984 448 c 0
 984 708.608 772.672 920 512 920 c 0
512 792 m 0
 583.296 792 649.6 770.112 704.576 732.864 c 1
 227.136 255.424 l 1
 189.888 310.464 168 376.768 168 448 c 0
 168 637.696 322.304 792 512 792 c 0
512 104 m 0
 439.744 104 372.864 126.656 317.44 164.736 c 1
 795.264 642.496 l 1
 833.408 587.136 856 520.256 856 448 c 0
 856 258.304 701.696 104 512 104 c 0
EndSplineSet
Validated: 9
EndChar

StartChar: uniE060
Encoding: 98 57440 98
Width: 1024
LayerCount: 2
Fore
SplineSet
832 192 m 1
 192 192 l 1
 512 704 l 1
 832 192 l 1
EndSplineSet
Validated: 1
EndChar

StartChar: uniE061
Encoding: 99 57441 99
Width: 1024
LayerCount: 2
Fore
SplineSet
768 768 m 1
 768 128 l 1
 256 448 l 1
 768 768 l 1
EndSplineSet
Validated: 1
EndChar

StartChar: uniE062
Encoding: 100 57442 100
Width: 1024
LayerCount: 2
Fore
SplineSet
256 128 m 1
 256 768 l 1
 768 448 l 1
 256 128 l 1
EndSplineSet
Validated: 1
EndChar

StartChar: uniE063
Encoding: 101 57443 101
Width: 1024
LayerCount: 2
Fore
SplineSet
192 704 m 1
 832 704 l 1
 512 192 l 1
 192 704 l 1
EndSplineSet
Validated: 1
EndChar

StartChar: uniE064
Encoding: 102 57444 102
Width: 1024
LayerCount: 2
Fore
SplineSet
640 352 m 1
 384 352 l 1
 512 544 l 1
 640 352 l 1
EndSplineSet
Validated: 1
EndChar

StartChar: uniE065
Encoding: 103 57445 103
Width: 1024
LayerCount: 2
Fore
SplineSet
608 576 m 1
 608 320 l 1
 416 448 l 1
 608 576 l 1
EndSplineSet
Validated: 1
EndChar

StartChar: uniE066
Encoding: 104 57446 104
Width: 1024
LayerCount: 2
Fore
SplineSet
416 320 m 1
 416 576 l 1
 608 448 l 1
 416 320 l 1
EndSplineSet
Validated: 1
EndChar

StartChar: uniE067
Encoding: 105 57447 105
Width: 1024
LayerCount: 2
Fore
SplineSet
384 544 m 1
 640 544 l 1
 512 352 l 1
 384 544 l 1
EndSplineSet
Validated: 1
EndChar

StartChar: uniE068
Encoding: 106 57448 106
Width: 1024
LayerCount: 2
Fore
SplineSet
672 256 m 1
 672 640 l 1
 352 448 l 1
 672 256 l 1
EndSplineSet
Validated: 9
EndChar

StartChar: uniE069
Encoding: 107 57449 107
Width: 1024
LayerCount: 2
Fore
SplineSet
352 640 m 1
 352 256 l 1
 672 448 l 1
 352 640 l 1
EndSplineSet
Validated: 9
EndChar

StartChar: uniE06A
Encoding: 108 57450 108
Width: 1024
LayerCount: 2
Fore
SplineSet
704.064 608 m 1
 320 608 l 1
 511.936 288 l 1
 704.064 608 l 1
EndSplineSet
Validated: 9
EndChar

StartChar: uniE06B
Encoding: 109 57451 109
Width: 1024
LayerCount: 2
Fore
SplineSet
320 288 m 1
 704.064 288 l 1
 512.128 608 l 1
 320 288 l 1
EndSplineSet
Validated: 9
EndChar

StartChar: uniE06C
Encoding: 110 57452 110
Width: 1024
LayerCount: 2
Fore
SplineSet
704.064 383.936 m 1
 320 384 l 1
 511.936 64 l 1
 704.064 383.936 l 1
320 512 m 1
 704.064 512 l 1
 512.128 832 l 1
 320 512 l 1
EndSplineSet
Validated: 9
EndChar

StartChar: uniE06D
Encoding: 111 57453 111
Width: 1024
LayerCount: 2
Fore
SplineSet
704.064 831.936 m 1
 320 832 l 1
 511.936 512 l 1
 704.064 831.936 l 1
320 64 m 1
 704.064 64 l 1
 512.128 384 l 1
 320 64 l 1
EndSplineSet
Validated: 9
EndChar

StartChar: uniE06E
Encoding: 112 57454 112
Width: 1024
LayerCount: 2
Fore
SplineSet
448 736 m 1
 336 864 l 1
 0 864 l 1
 0 32 l 1
 1024 32 l 1
 1024 736 l 1
 448 736 l 1
704 227.264 m 1
 613.504 136.768 l 1
 500.352 249.92 l 1
 387.2 136.768 l 1
 296.704 227.264 l 1
 409.856 340.416 l 1
 296.768 453.504 l 1
 387.264 544 l 1
 500.416 430.848 l 1
 613.504 544 l 1
 704 453.504 l 1
 590.848 340.352 l 1
 704 227.264 l 1
EndSplineSet
Validated: 9
EndChar

StartChar: uniE06F
Encoding: 113 57455 113
Width: 1024
LayerCount: 2
Fore
SplineSet
512 920 m 1
 634.752 566.976 l 1
 1008.38 559.36 l 1
 710.592 333.632 l 1
 818.752 -24 l 1
 512 189.376 l 1
 205.248 -24 l 1
 313.408 333.632 l 1
 15.616 559.36 l 1
 389.248 566.976 l 1
 512 920 l 1
EndSplineSet
Validated: 1
EndChar

StartChar: uniE070
Encoding: 114 57456 114
Width: 1024
LayerCount: 2
Fore
SplineSet
448 832 m 1
 336 960 l 1
 0 960 l 1
 0 192 l 1
 448 192 l 1
 448 64 l 1
 256 64 l 1
 256 -64 l 1
 768 -64 l 1
 768 64 l 1
 576 64 l 1
 576 192 l 1
 1024 192 l 1
 1024 832 l 1
 448 832 l 1
64 64 m 1
 192 64 l 1
 192 -64 l 1
 64 -64 l 1
 64 64 l 1
832 64 m 1
 960 64 l 1
 960 -64 l 1
 832 -64 l 1
 832 64 l 1
EndSplineSet
Validated: 9
EndChar

StartChar: uniE071
Encoding: 115 57457 115
Width: 1024
LayerCount: 2
Fore
SplineSet
512 932.16 m 0
 244.672 932.16 27.84 715.456 27.84 448 c 0
 27.84 180.608 244.672 -36.096 512 -36.096 c 0
 779.328 -36.096 996.096 180.672 996.096 448 c 0
 996.096 715.456 779.392 932.16 512 932.16 c 0
489.216 238.72 m 1
 454.848 201.6 l 1
 421.888 240 l 1
 235.008 457.344 l 1
 295.872 523.008 l 1
 447.36 411.52 l 1
 778.368 683.456 l 1
 840.128 617.984 l 1
 489.216 238.72 l 1
EndSplineSet
Validated: 9
EndChar

StartChar: uniE072
Encoding: 116 57458 116
Width: 1024
LayerCount: 2
Fore
SplineSet
0 608 m 1
 128 32 l 1
 896 32 l 1
 1024 608 l 1
 0 608 l 1
960 736 m 1
 384 736 l 1
 256 864 l 1
 64 864 l 1
 64 672 l 1
 960 672 l 1
 960 736 l 1
EndSplineSet
Validated: 9
EndChar

StartChar: uniE073
Encoding: 117 57459 117
Width: 1024
LayerCount: 2
Fore
SplineSet
960 736 m 1
 384 736 l 1
 256 864 l 1
 64 864 l 1
 64 672 l 1
 960 672 l 1
 960 736 l 1
0 608 m 1
 128 32 l 1
 384 32 l 1
 384 224 l 1
 256 224 l 1
 512 480 l 1
 768 224 l 1
 640 224 l 1
 640 32 l 1
 896 32 l 1
 1024 608 l 1
 0 608 l 1
EndSplineSet
Validated: 9
EndChar

StartChar: uniE074
Encoding: 118 57460 118
Width: 1024
LayerCount: 2
Fore
SplineSet
448 736 m 1
 336 864 l 1
 0 864 l 1
 0 32 l 1
 1024 32 l 1
 1024 736 l 1
 448 736 l 1
704 288 m 1
 576 288 l 1
 576 160 l 1
 448 160 l 1
 448 288 l 1
 320 288 l 1
 320 416 l 1
 448 416 l 1
 448 544 l 1
 576 544 l 1
 576 416 l 1
 704 416 l 1
 704 288 l 1
EndSplineSet
Validated: 9
EndChar

StartChar: uniE075
Encoding: 119 57461 119
Width: 1024
LayerCount: 2
Fore
SplineSet
960 736 m 1
 384 736 l 1
 256 864 l 1
 64 864 l 1
 64 672 l 1
 960 672 l 1
 960 736 l 1
0 608 m 1
 128 32 l 1
 512 32 l 1
 256 288 l 1
 384 288 l 1
 384 480 l 1
 640 480 l 1
 640 288 l 1
 768 288 l 1
 512 32 l 1
 896 32 l 1
 1024 608 l 1
 0 608 l 1
EndSplineSet
Validated: 5
EndChar

StartChar: uniE076
Encoding: 120 57462 120
Width: 1024
LayerCount: 2
Fore
SplineSet
448 736 m 1
 336 864 l 1
 0 864 l 1
 0 32 l 1
 1024 32 l 1
 1024 736 l 1
 448 736 l 1
482.304 160 m 1
 256 386.24 l 1
 346.496 476.8 l 1
 482.304 340.992 l 1
 740.608 599.296 l 1
 831.104 508.8 l 1
 482.304 160 l 1
EndSplineSet
Validated: 9
EndChar

StartChar: uniE077
Encoding: 121 57463 121
Width: 1024
LayerCount: 2
Fore
SplineSet
448 466.688 m 1
 576 466.688 l 1
 576 402.688 l 1
 448 402.688 l 1
 448 466.688 l 1
448 749.312 m 1
 336 877.312 l 1
 0 877.312 l 1
 0 18.688 l 1
 1024 18.688 l 1
 1024 749.312 l 1
 448 749.312 l 1
704 146.688 m 1
 320 146.688 l 1
 320 402.688 l 1
 384 402.688 l 1
 384 530.688 l 1
 640 530.688 l 1
 640 402.688 l 1
 704 402.688 l 1
 704 146.688 l 1
EndSplineSet
Validated: 9
EndChar

StartChar: uniE078
Encoding: 122 57464 122
Width: 1024
LayerCount: 2
Fore
SplineSet
425.088 420.864 m 1
 272.128 533.504 l 1
 210.56 467.136 l 1
 432.64 208.896 l 1
 821.76 629.376 l 1
 759.424 695.488 l 1
 425.088 420.864 l 1
512 960 m 0
 229.248 960 0 730.752 0 448 c 0
 0 165.248 229.248 -64 512 -64 c 0
 794.752 -64 1024 165.248 1024 448 c 0
 1024 730.752 794.752 960 512 960 c 0
512 0 m 0
 264.96 0 64 201.024 64 448 c 0
 64 695.04 264.96 896 512 896 c 0
 758.976 896 960 695.04 960 448 c 0
 960 201.024 758.976 0 512 0 c 0
EndSplineSet
Validated: 9
EndChar

StartChar: uniE600
Encoding: 123 58880 123
Width: 1024
LayerCount: 2
Fore
SplineSet
828.736 628.992 m 1
 692.992 764.8 l 1
 512 583.744 l 1
 330.944 764.8 l 1
 195.2 629.056 l 1
 376.256 448 l 1
 195.2 267.008 l 1
 331.008 131.264 l 1
 512 312.256 l 1
 692.992 131.264 l 1
 828.736 267.008 l 1
 647.744 448 l 1
 828.736 628.992 l 1
EndSplineSet
Validated: 9
EndChar

StartChar: uniE601
Encoding: 124 58881 124
Width: 1024
LayerCount: 2
Fore
SplineSet
640.896 222.336 m 0
 640.896 213.952 639.424 211.712 630.272 211.712 c 2
 437.056 211.712 l 2
 427.968 211.712 426.432 213.952 426.432 222.336 c 2
 426.432 271.616 l 2
 426.432 279.936 427.968 282.24 437.056 282.24 c 2
 485.568 282.24 l 1
 485.568 515.584 l 1
 436.288 515.584 l 2
 427.2 515.584 425.664 517.824 425.664 526.208 c 2
 425.664 575.488 l 2
 425.664 583.808 427.2 586.112 436.288 586.112 c 2
 571.136 586.112 l 2
 580.224 586.112 581.76 583.808 581.76 575.488 c 2
 581.76 282.24 l 1
 630.272 282.24 l 2
 639.424 282.24 640.896 279.936 640.896 271.616 c 2
 640.896 222.336 l 0
533.312 635.328 m 0
 498.432 635.328 470.4 663.36 470.4 698.176 c 0
 470.4 732.992 498.432 760.32 533.312 760.32 c 0
 567.424 760.32 595.392 733.056 595.392 698.176 c 0
 595.392 663.296 567.424 635.328 533.312 635.328 c 0
512 940.288 m 0
 240.064 940.288 19.648 719.936 19.648 448 c 0
 19.648 176.064 240.064 -44.288 512 -44.288 c 0
 783.872 -44.288 1004.35 176.064 1004.35 448 c 0
 1004.35 719.936 783.872 940.288 512 940.288 c 0
512 27.648 m 0
 280.192 27.648 91.648 216.192 91.648 447.936 c 0
 91.648 679.744 280.256 868.288 512 868.288 c 0
 743.744 868.288 932.352 679.744 932.352 447.936 c 0
 932.352 216.192 743.744 27.648 512 27.648 c 0
EndSplineSet
Validated: 9
EndChar

StartChar: uniE602
Encoding: 125 58882 125
Width: 1024
LayerCount: 2
Fore
SplineSet
160 928 m 2
 32 928 l 2
 14.4 928 0 913.6 0 896 c 2
 0 0 l 2
 0 -17.6 14.4 -32 32 -32 c 2
 160 -32 l 2
 177.6 -32 192 -17.6 192 0 c 2
 192 896 l 2
 192 913.6 177.6 928 160 928 c 2
128 32 m 1
 64 32 l 1
 64 96 l 1
 128 96 l 1
 128 32 l 1
128 800 m 1
 64 800 l 1
 64 864 l 1
 128 864 l 1
 128 800 l 1
736 544 m 2
 672 544 l 2
 654.4 544 640 529.6 640 512 c 2
 640 0 l 2
 640 -17.6 654.4 -32 672 -32 c 2
 736 -32 l 2
 753.6 -32 768 -17.6 768 0 c 2
 768 512 l 2
 768 529.6 753.6 544 736 544 c 2
992 608 m 2
 864 608 l 2
 846.4 608 832 593.6 832 576 c 2
 832 0 l 2
 832 -17.6 846.4 -32 864 -32 c 2
 992 -32 l 2
 1009.6 -32 1024 -17.6 1024 0 c 2
 1024 576 l 2
 1024 593.6 1009.6 608 992 608 c 2
960 32 m 1
 896 32 l 1
 896 96 l 1
 960 96 l 1
 960 32 l 1
960 480 m 1
 896 480 l 1
 896 544 l 1
 960 544 l 1
 960 480 l 1
544 736 m 2
 288 736 l 2
 270.4 736 256 721.6 256 704 c 2
 256 0 l 2
 256 -17.6 270.4 -32 288 -32 c 2
 544 -32 l 2
 561.6 -32 576 -17.6 576 0 c 2
 576 704 l 2
 576 721.6 561.6 736 544 736 c 2
512 96 m 1
 320 96 l 1
 320 160 l 1
 512 160 l 1
 512 96 l 1
512 544 m 1
 320 544 l 1
 320 608 l 1
 512 608 l 1
 512 544 l 1
EndSplineSet
Validated: 9
EndChar

StartChar: uniE603
Encoding: 126 58883 126
Width: 1024
LayerCount: 2
Fore
SplineSet
996.736 84.736 m 0
 984.256 97.216 839.808 242.496 839.808 242.496 c 1
 809.152 273.344 l 1
 809.152 273.344 820.864 323.328 809.344 334.848 c 0
 797.824 346.496 790.08 354.24 790.08 354.24 c 1
 790.08 354.24 778.688 365.824 765.056 352.448 c 0
 751.616 339.008 716.928 304.448 716.928 304.448 c 1
 587.52 434.688 l 1
 657.536 504.256 l 1
 689.28 487.744 724.8 477.568 762.944 477.44 c 0
 890.944 477.056 994.944 580.48 995.328 708.48 c 0
 995.456 728.896 992 748.416 987.072 767.36 c 1
 865.088 646.016 l 1
 730.176 675.264 l 1
 701.76 810.368 l 1
 824.064 931.904 l 1
 804.928 937.152 785.216 940.864 764.416 940.928 c 0
 636.416 941.248 532.416 837.952 531.968 709.952 c 0
 531.84 667.456 544 628.032 563.904 593.728 c 1
 496.256 526.528 l 1
 285.44 738.624 l 1
 239.616 815.68 l 1
 178.176 877.376 l 1
 59.136 943.104 l 1
 39.872 924.032 l 1
 20.544 904.832 l 1
 85.568 785.408 l 1
 146.944 723.648 l 1
 223.744 677.248 l 1
 434.56 465.152 l 1
 366.848 397.824 l 1
 332.672 417.984 293.312 430.4 250.752 430.528 c 0
 122.752 430.912 18.752 327.488 18.368 199.488 c 0
 18.24 179.136 21.696 159.616 26.624 140.608 c 1
 148.608 261.952 l 1
 283.52 232.768 l 1
 312 97.664 l 1
 189.696 -23.872 l 1
 208.832 -29.12 228.608 -32.832 249.344 -32.896 c 0
 377.344 -33.216 481.344 70.08 481.728 198.08 c 0
 481.856 236.288 471.808 271.872 455.552 303.616 c 1
 525.696 373.376 l 1
 655.168 243.136 l 1
 655.168 243.136 620.48 208.64 606.976 195.136 c 0
 593.472 181.76 604.992 170.112 604.992 170.112 c 1
 604.992 170.112 612.608 162.496 624.128 150.912 c 0
 635.712 139.264 685.632 150.72 685.632 150.72 c 1
 716.352 119.808 l 1
 716.352 119.808 860.736 -25.536 873.216 -38.016 c 0
 885.696 -50.56 923.136 -49.728 934.72 -38.144 c 0
 946.368 -26.688 965.632 -7.488 965.632 -7.488 c 1
 965.632 -7.488 984.96 11.648 996.416 23.168 c 0
 1008.06 34.688 1009.22 72.192 996.736 84.736 c 0
EndSplineSet
Validated: 41
EndChar

StartChar: uniE604
Encoding: 127 58884 127
Width: 1024
LayerCount: 2
Fore
SplineSet
757.744 831.96 m 1
 960.015 629.718 l 1
 606.126 275.779 l 1
 403.855 478.021 l 1
 757.744 831.96 l 1
526.912 197.184 m 1
 331.136 393.024 l 1
 329.472 293.504 l 1
 327.936 193.984 l 1
 427.392 195.648 l 1
 526.912 197.184 l 1
960 512 m 1
 960 128 l 1
 64 128 l 1
 64 448 l 1
 320 448 l 1
 320 512 l 1
 0 512 l 1
 0 64 l 1
 1024 64 l 1
 1024 512 l 1
 960 512 l 1
EndSplineSet
Validated: 9
EndChar

StartChar: uniE605
Encoding: 128 58885 128
Width: 1024
LayerCount: 2
Fore
SplineSet
832 834.688 m 1
 832 770.688 l 1
 128 578.688 l 1
 0 642.688 l 1
 0 258.688 l 1
 128 322.688 l 1
 204.032 301.952 l 1
 183.168 220.032 l 2
 170.112 168.704 201.152 116.352 252.48 103.36 c 2
 440.512 55.488 l 2
 448.256 53.504 456.192 52.48 464.128 52.48 c 0
 508.16 52.48 546.432 82.24 557.248 124.736 c 2
 576.576 200.512 l 1
 832 130.624 l 1
 832 66.624 l 1
 1024 1.28 l 1
 1024 894.72 l 1
 832 834.688 l 1
495.168 140.416 m 0
 491.008 123.968 473.024 112.96 456.256 117.376 c 2
 268.224 165.248 l 2
 251.072 169.6 240.704 187.008 245.12 204.096 c 2
 265.728 285.12 l 1
 514.752 217.152 l 1
 495.168 140.416 l 0
832 450.688 m 1
 128 450.688 l 1
 128 514.688 l 1
 832 706.688 l 1
 832 450.688 l 1
960 450.688 m 1
 896 450.688 l 1
 896 770.688 l 1
 960 770.688 l 1
 960 450.688 l 1
EndSplineSet
Validated: 41
EndChar

StartChar: uniE606
Encoding: 129 58886 129
Width: 1024
LayerCount: 2
Fore
SplineSet
512 768 m 0
 288.682 768 95.118 637.958 0 448 c 1
 95.118 258.042 288.682 128 512 128 c 0
 735.314 128 928.878 258.042 1024 448 c 1
 928.884 637.958 735.314 768 512 768 c 0
764.45 598.296 m 0
 824.612 559.922 875.592 508.522 913.884 448 c 1
 875.592 387.478 824.61 336.078 764.448 297.702 c 0
 688.854 249.486 601.558 224 512 224 c 0
 422.44 224 335.144 249.486 259.55 297.704 c 0
 199.39 336.076 148.41 387.476 110.116 448 c 1
 148.408 508.524 199.39 559.924 259.55 598.296 c 0
 263.468 600.796 267.426 603.218 271.408 605.596 c 1
 261.45 578.268 256 548.774 256 518 c 0
 256 376.616 370.616 262 512 262 c 0
 653.384 262 768 376.616 768 518 c 0
 768 548.774 762.55 578.268 752.592 605.598 c 1
 756.572 603.22 760.53 600.796 764.45 598.296 c 0
512 550 m 0
 512 496.98 469.02 454 416 454 c 0
 362.98 454 320 496.98 320 550 c 0
 320 603.02 362.98 646 416 646 c 0
 469.02 646 512 603.02 512 550 c 0
EndSplineSet
Validated: 9
EndChar

StartChar: uniE607
Encoding: 130 58887 130
Width: 1024
LayerCount: 2
Fore
SplineSet
839.322 663.584 m 1
 916.966 608.554 980.692 534.492 1024 448 c 1
 928.878 258.042 735.314 128 512 128 c 0
 449.434 128 389.208 138.212 332.822 157.084 c 1
 410.778 235.04 l 1
 443.836 227.74 477.75 224 512 224 c 0
 601.558 224 688.854 249.486 764.446 297.704 c 0
 824.608 336.08 875.59 387.48 913.882 448.002 c 1
 876.83 506.568 827.868 556.552 770.232 594.496 c 1
 839.322 663.584 l 1
512 262 m 0
 489.276 262 467.248 264.976 446.272 270.534 c 1
 759.458 583.718 l 1
 765.02 562.746 768 540.724 768 518 c 0
 768 376.616 653.384 262 512 262 c 0
960 960 m 1
 906.262 960 l 1
 686.65 740.388 l 1
 631.574 758.312 572.896 768 512 768 c 0
 288.682 768 95.118 637.958 0 448 c 1
 42.658 362.808 105.128 289.692 181.194 234.932 c 1
 0 53.738 l 1
 0 0 l 1
 53.738 0 l 1
 960 906.262 l 1
 960 960 l 1
416 646 m 0
 464.044 646 503.846 610.706 510.892 564.63 c 1
 401.368 455.106 l 1
 355.294 462.154 320 501.956 320 550 c 0
 320 603.02 362.98 646 416 646 c 0
110.116 448 m 1
 148.408 508.524 199.39 559.924 259.55 598.296 c 0
 263.468 600.796 267.426 603.218 271.408 605.596 c 1
 261.45 578.268 256 548.774 256 518 c 0
 256 459.476 275.65 405.552 308.698 362.438 c 1
 250.148 303.888 l 1
 194.076 341.53 146.394 390.66 110.116 448 c 1
EndSplineSet
Validated: 9
EndChar

StartChar: uniE608
Encoding: 131 58888 131
Width: 1024
LayerCount: 2
Fore
SplineSet
512 932.16 m 0
 244.608 932.16 27.84 715.392 27.84 448 c 0
 27.84 180.672 244.608 -36.096 512 -36.096 c 0
 779.328 -36.096 996.096 180.736 996.096 448 c 0
 996.096 715.392 779.328 932.16 512 932.16 c 0
794.24 290.176 m 1
 669.824 165.76 l 1
 512 323.584 l 1
 354.176 165.76 l 1
 229.696 290.176 l 1
 387.52 448 l 1
 229.632 605.824 l 1
 354.112 730.304 l 1
 512 572.48 l 1
 669.824 730.368 l 1
 794.24 605.888 l 1
 636.416 448 l 1
 794.24 290.176 l 1
EndSplineSet
Validated: 9
EndChar

StartChar: uniE609
Encoding: 132 58889 132
Width: 1024
LayerCount: 2
Fore
SplineSet
651.904 698.112 m 1
 512 558.336 l 1
 372.096 698.112 l 1
 261.888 587.904 l 1
 401.664 448 l 1
 261.888 308.096 l 1
 372.096 197.888 l 1
 512 337.728 l 1
 651.904 197.888 l 1
 762.112 308.096 l 1
 622.272 448 l 1
 762.112 587.904 l 1
 651.904 698.112 l 1
512 960 m 0
 229.248 960 0 730.752 0 448 c 0
 0 165.248 229.248 -64 512 -64 c 0
 794.752 -64 1024 165.248 1024 448 c 0
 1024 730.752 794.752 960 512 960 c 0
512 0 m 0
 264.96 0 64 201.024 64 448 c 0
 64 695.04 264.96 896 512 896 c 0
 758.976 896 960 695.04 960 448 c 0
 960 201.024 758.976 0 512 0 c 0
EndSplineSet
Validated: 9
EndChar

StartChar: uniE60A
Encoding: 133 58890 133
Width: 1024
LayerCount: 2
Fore
SplineSet
512 672 m 1
 512 832 155.84 864 0 864 c 1
 0 160 l 1
 32 160 l 2
 43.2 160 53.376 159.872 64 159.872 c 1
 64 96 l 1
 192 96 448 134.4 448 32 c 1
 576 32 l 1
 576 134.4 832 96 960 96 c 1
 960 159.872 l 1
 970.624 159.872 980.8 160 992 160 c 2
 1024 160 l 1
 1024 864 l 1
 868.16 864 512 832 512 672 c 1
64 800 m 0
 95.872 799.68 124.608 798.4 151.616 796.544 c 0
 156.864 796.224 162.112 795.904 167.424 795.52 c 0
 169.344 795.392 171.392 795.264 173.312 795.072 c 0
 299.264 786.112 432.64 759.808 446.016 684.224 c 0
 447.232 679.936 448 675.776 448 672 c 2
 448 195.392 l 1
 354.624 250.624 179.648 255.488 64 256 c 1
 64 800 l 0
960 256 m 1
 844.352 255.488 669.376 250.624 576 195.392 c 1
 576 672 l 2
 576 714.432 643.648 796.864 960 800 c 1
 960 256 l 1
EndSplineSet
Validated: 41
EndChar

StartChar: uniE60B
Encoding: 134 58891 134
Width: 1024
LayerCount: 2
Fore
SplineSet
480 765.824 m 1
 365.44 831.808 160 832 160 832 c 1
 160 256 l 1
 160 256 365.44 255.808 480 189.888 c 1
 480 765.824 l 1
864 832 m 1
 864 832 658.56 831.872 544 765.888 c 1
 544 189.888 l 1
 658.56 255.808 864 256 864 256 c 1
 864 832 l 1
928 768 m 1
 928 182.784 l 1
 544 128 l 1
 480 128 l 1
 96 182.784 l 1
 96 768 l 1
 32 768 l 1
 32 128 l 1
 480 64 l 1
 544 64 l 1
 992 128 l 1
 992 768 l 1
 928 768 l 1
EndSplineSet
Validated: 9
EndChar

StartChar: uniE60C
Encoding: 135 58892 135
Width: 1024
LayerCount: 2
Fore
SplineSet
128.448 64 m 1
 128.448 832 l 1
 549.952 832 l 1
 768.448 613.504 l 1
 768 64 l 1
 576 64 l 1
 576 -64 l 1
 896.448 -64 l 1
 896.448 666.496 l 1
 602.944 960 l 1
 0.448 960 l 1
 0.448 -64 l 1
 224 -64 l 1
 224 64 l 1
 128.448 64 l 1
463.488 282.56 m 1
 463.488 266.496 460.864 263.872 444.8 263.872 c 2
 379.776 263.872 l 2
 363.776 263.872 361.088 266.496 361.088 282.56 c 2
 361.088 393.984 l 2
 361.088 415.36 393.152 419.008 424.384 429.696 c 0
 456.448 441.28 487.68 459.136 487.68 507.264 c 0
 487.68 548.288 461.824 570.56 413.632 570.56 c 0
 358.4 570.56 311.104 541.12 302.208 541.12 c 0
 297.728 541.12 293.312 545.536 292.416 550.08 c 2
 269.184 610.688 l 2
 267.392 614.272 267.392 616.96 267.392 620.544 c 0
 267.392 643.712 373.504 673.088 433.216 673.088 c 0
 541.184 673.088 608 603.584 608 506.432 c 0
 608 391.36 516.032 361.088 463.488 343.232 c 1
 463.488 282.56 l 1
415.424 32 m 0
 372.608 32 339.584 66.816 339.584 106.944 c 0
 339.584 149.76 372.608 182.784 415.424 182.784 c 0
 457.344 182.784 490.176 148.928 490.176 106.944 c 0
 490.304 66.816 456.448 32 415.424 32 c 0
EndSplineSet
Validated: 41
EndChar

StartChar: uniE60D
Encoding: 136 58893 136
Width: 878
Flags: W
LayerCount: 2
Fore
SplineSet
786.286 448 m 1
 865.143 370.857 l 2
 876.572 360.19 880.381 346.857 876.572 330.857 c 0
 872.001 315.238 862.096 305.523 846.858 301.714 c 2
 739.429 274.285 l 1
 769.715 167.999 l 2
 774.286 152.38 770.667 139.046 758.858 127.999 c 0
 747.811 116.19 734.477 112.571 718.858 117.142 c 2
 612.572 147.428 l 1
 585.143 39.999 l 2
 581.334 24.761 571.619 14.8563 556 10.285 c 0
 551.429 9.523 547.81 9.142 545.143 9.142 c 0
 533.334 9.142 523.619 13.3323 516 21.713 c 2
 438.857 100.57 l 1
 361.714 21.713 l 2
 351.047 10.2843 337.714 6.47467 321.714 10.284 c 0
 306.095 14.4747 296.38 24.3793 292.571 39.998 c 2
 265.142 147.427 l 1
 158.856 117.141 l 2
 143.237 112.57 129.903 116.189 118.856 127.998 c 0
 107.047 139.045 103.428 152.379 107.999 167.998 c 2
 138.285 274.284 l 1
 30.856 301.713 l 2
 15.618 305.522 5.71333 315.237 1.142 330.856 c 0
 -2.66733 346.856 1.14233 360.189 12.571 370.856 c 2
 91.428 447.999 l 1
 12.571 525.142 l 2
 1.14233 535.809 -2.66733 549.142 1.142 565.142 c 0
 5.71333 580.761 15.618 590.476 30.856 594.285 c 2
 138.285 621.714 l 1
 107.999 728 l 2
 103.428 743.619 107.047 756.953 118.856 768 c 0
 129.903 779.809 143.237 783.428 158.856 778.857 c 2
 265.142 748.571 l 1
 292.571 856 l 2
 296.38 871.619 306.095 881.334 321.714 885.143 c 0
 337.333 889.714 350.667 886.095 361.714 874.286 c 2
 438.857 794.857 l 1
 516 874.286 l 2
 527.047 885.715 540.381 889.334 556 885.143 c 0
 571.619 881.334 581.334 871.619 585.143 856 c 2
 612.572 748.571 l 1
 718.858 778.857 l 2
 734.477 783.428 747.811 779.809 758.858 768 c 0
 770.667 756.953 774.286 743.619 769.715 728 c 2
 739.429 621.714 l 1
 846.858 594.285 l 2
 862.096 590.476 872.001 580.761 876.572 565.142 c 0
 880.381 549.142 876.572 535.809 865.143 525.142 c 2
 786.286 448 l 1
EndSplineSet
Validated: 33
EndChar

StartChar: uniE60E
Encoding: 137 58894 137
Width: 951
Flags: W
LayerCount: 2
Fore
SplineSet
219.429 118.857 m 0
 219.429 128.762 215.81 137.333 208.572 144.571 c 0
 201.334 151.809 192.763 155.428 182.858 155.428 c 0
 172.953 155.428 164.382 151.809 157.144 144.571 c 0
 149.906 137.333 146.287 128.762 146.287 118.857 c 0
 146.287 108.952 149.906 100.381 157.144 93.143 c 0
 164.382 85.905 172.953 82.286 182.858 82.286 c 0
 192.763 82.286 201.334 85.905 208.572 93.143 c 0
 215.81 100.381 219.429 108.952 219.429 118.857 c 0
587.429 358.857 m 1
 197.715 -30.857 l 2
 183.62 -44.9523 166.477 -52 146.286 -52 c 0
 126.477 -52 109.143 -44.9523 94.286 -30.857 c 2
 33.715 30.857 l 2
 19.239 44.571 12.001 61.714 12.001 82.286 c 0
 12.001 102.477 19.239 119.81 33.715 134.286 c 2
 422.858 523.429 l 1
 437.715 486.096 459.525 453.048 488.287 424.286 c 0
 517.049 395.524 550.097 373.714 587.43 358.857 c 1
 587.429 358.857 l 1
949.714 607.429 m 1
 949.714 592.572 945.333 572.381 936.571 546.858 c 0
 918.666 495.811 887.333 454.382 842.571 422.572 c 0
 797.809 390.762 748.571 374.857 694.857 374.858 c 0
 624.381 374.858 564.095 399.906 514 450.001 c 0
 463.905 500.096 438.857 560.382 438.857 630.858 c 0
 438.857 701.334 463.905 761.62 514 811.715 c 0
 564.095 861.81 624.381 886.858 694.857 886.858 c 0
 716.952 886.858 740.095 883.715 764.286 877.429 c 0
 788.477 871.143 808.953 862.286 825.715 850.858 c 0
 831.81 846.667 834.858 841.334 834.858 834.858 c 0
 834.858 828.382 831.81 823.049 825.715 818.858 c 2
 658.286 722.287 l 1
 658.286 594.287 l 1
 768.572 533.144 l 2
 770.477 534.287 785.524 543.525 813.715 560.858 c 0
 841.906 578.191 867.715 593.62 891.144 607.144 c 0
 914.573 620.668 928.001 627.43 931.43 627.43 c 0
 937.144 627.43 941.62 625.525 944.859 621.716 c 0
 948.098 617.907 949.717 613.145 949.716 607.43 c 1
 949.714 607.429 l 1
EndSplineSet
Validated: 37
EndChar

StartChar: uniE60F
Encoding: 138 58895 138
Width: 951
Flags: W
LayerCount: 2
Fore
SplineSet
832 265.143 m 1
 832 280.381 826.667 293.333 816 304 c 2
 697.143 422.857 l 2
 686.476 433.524 673.524 438.857 658.286 438.857 c 0
 642.286 438.857 628.572 432.762 617.143 420.571 c 0
 618.286 419.428 621.905 415.905 628 410 c 0
 634.095 404.095 638.191 400 640.286 397.714 c 0
 642.381 395.428 645.238 391.809 648.857 386.857 c 0
 652.476 381.905 654.952 377.048 656.286 372.286 c 0
 657.62 367.524 658.287 362.286 658.286 356.572 c 0
 658.286 341.334 652.953 328.382 642.286 317.715 c 0
 631.619 307.048 618.667 301.715 603.429 301.715 c 0
 597.715 301.715 592.477 302.382 587.715 303.715 c 0
 582.953 305.048 578.096 307.525 573.144 311.144 c 0
 568.192 314.763 564.573 317.62 562.287 319.715 c 0
 560.001 321.81 555.906 325.905 550.001 332.001 c 0
 544.096 338.097 540.573 341.716 539.43 342.858 c 0
 526.859 331.049 520.573 317.144 520.573 301.144 c 0
 520.573 285.906 525.906 272.954 536.573 262.287 c 2
 654.287 144.001 l 2
 664.573 133.715 677.525 128.572 693.144 128.572 c 0
 708.382 128.572 721.334 133.524 732.001 143.429 c 2
 816.001 226.858 l 2
 826.668 237.525 832.001 250.287 832.001 265.144 c 1
 832 265.143 l 1
430.286 668 m 1
 430.286 683.238 424.953 696.19 414.286 706.857 c 2
 296.572 825.143 l 2
 285.905 835.81 272.953 841.143 257.715 841.143 c 0
 242.858 841.143 229.905 836 218.858 825.714 c 2
 134.858 742.285 l 2
 124.191 731.618 118.858 718.856 118.858 703.999 c 0
 118.858 688.761 124.191 675.809 134.858 665.142 c 2
 253.715 546.285 l 2
 264.001 535.999 276.953 530.856 292.572 530.856 c 0
 308.572 530.856 322.286 536.761 333.715 548.57 c 0
 332.572 549.713 328.953 553.236 322.858 559.141 c 0
 316.763 565.046 312.667 569.141 310.572 571.427 c 0
 308.477 573.713 305.62 577.332 302.001 582.284 c 0
 298.382 587.236 295.906 592.093 294.572 596.855 c 0
 293.238 601.617 292.571 606.855 292.572 612.569 c 0
 292.572 627.807 297.905 640.759 308.572 651.426 c 0
 319.239 662.093 332.191 667.426 347.429 667.426 c 0
 353.143 667.426 358.381 666.759 363.143 665.426 c 0
 367.905 664.093 372.762 661.616 377.714 657.997 c 0
 382.666 654.378 386.285 651.521 388.571 649.426 c 0
 390.857 647.331 394.952 643.236 400.857 637.14 c 0
 406.762 631.044 410.285 627.425 411.428 626.283 c 0
 423.999 638.092 430.285 651.997 430.285 667.997 c 1
 430.286 668 l 1
941.714 265.143 m 0
 941.714 219.429 925.524 180.762 893.143 149.143 c 2
 809.143 65.714 l 2
 777.524 34.0947 738.857 18.285 693.143 18.285 c 0
 647.048 18.285 608.191 34.4753 576.572 66.856 c 2
 458.858 185.142 l 2
 427.239 216.761 411.429 255.428 411.429 301.142 c 0
 411.429 347.999 428.191 387.809 461.715 420.571 c 1
 411.429 470.857 l 1
 378.667 437.333 339.048 420.571 292.572 420.571 c 0
 246.858 420.571 208.001 436.571 176.001 468.571 c 2
 57.144 587.428 l 2
 25.144 619.428 9.144 658.285 9.144 703.999 c 0
 9.144 749.713 25.3343 788.38 57.715 819.999 c 2
 141.715 903.428 l 2
 173.334 935.047 212.001 950.857 257.715 950.857 c 0
 303.81 950.857 342.667 934.667 374.286 902.286 c 2
 492 784 l 2
 523.619 752.381 539.429 713.714 539.429 668 c 0
 539.429 621.143 522.667 581.333 489.143 548.571 c 1
 539.429 498.285 l 1
 572.191 531.809 611.81 548.571 658.286 548.571 c 0
 704 548.571 742.857 532.571 774.857 500.571 c 2
 893.714 381.714 l 2
 925.714 349.714 941.714 310.857 941.714 265.143 c 0
EndSplineSet
Validated: 1
EndChar

StartChar: uniE611
Encoding: 139 58897 139
Width: 1024
LayerCount: 2
Fore
SplineSet
0 544 m 2
 0 352 l 2
 0 334.328 14.328 320 32 320 c 2
 992 320 l 2
 1009.67 320 1024 334.328 1024 352 c 2
 1024 544 l 2
 1024 561.672 1009.67 576 992 576 c 2
 32 576 l 2
 14.328 576 0 561.672 0 544 c 2
EndSplineSet
Validated: 9
EndChar

StartChar: uniE612
Encoding: 140 58898 140
Width: 1024
LayerCount: 2
Fore
SplineSet
992 576 m 6
 640 576 l 5
 640 928 l 6
 640 945.672 625.672 960 608 960 c 6
 416 960 l 6
 398.328 960 384 945.672 384 928 c 6
 384 576 l 5
 32 576 l 6
 14.328 576 0 561.672 0 544 c 6
 0 352 l 6
 0 334.328 14.328 320 32 320 c 6
 384 320 l 5
 384 -32 l 6
 384 -49.672 398.328 -64 416 -64 c 6
 608 -64 l 6
 625.672 -64 640 -49.672 640 -32 c 6
 640 320 l 5
 992 320 l 6
 1009.67 320 1024 334.328 1024 352 c 6
 1024 544 l 6
 1024 561.672 1009.67 576 992 576 c 6
EndSplineSet
Validated: 9
EndChar

StartChar: uniE613
Encoding: 141 58899 141
Width: 1024
LayerCount: 2
Fore
SplineSet
254.976 296.96 m 1
 254.976 564.224 l 1
 358.4 564.224 l 1
 179.2 768 l 1
 0 564.224 l 1
 103.424 564.224 l 1
 103.424 256 l 2
 103.424 199.475 149.248 153.6 205.824 153.6 c 2
 665.6 153.6 l 1
 534.426 296.96 l 1
 254.976 296.96 l 1
920.525 357.376 m 1
 920.525 665.6 l 2
 920.525 722.125 874.65 768 818.125 768 c 2
 358.4 768 l 1
 489.523 624.64 l 1
 769.024 624.64 l 1
 769.024 357.376 l 1
 665.6 357.376 l 1
 844.8 153.6 l 1
 1024 357.376 l 1
 920.525 357.376 l 1
EndSplineSet
Validated: 9
EndChar

StartChar: uniE614
Encoding: 142 58900 142
Width: 1024
LayerCount: 2
Fore
SplineSet
286.704 80.998 m 1
 272.982 67.123 272.982 44.748 286.704 30.873 c 0
 300.426 16.998 322.595 16.998 336.317 30.873 c 2
 737.213 435.711 l 2
 750.935 449.586 750.935 472.012 737.213 485.836 c 2
 336.317 890.726 l 2
 322.595 904.601 300.426 904.601 286.704 890.726 c 0
 272.982 876.851 272.982 854.476 286.704 840.601 c 2
 652.272 460.799 l 1
 286.704 80.997 l 1
 286.704 80.998 l 1
EndSplineSet
Validated: 41
EndChar

StartChar: uniE615
Encoding: 143 58901 143
Width: 1024
LayerCount: 2
Fore
SplineSet
976 -64 m 2
 304 -64 l 2
 277.49 -64 256 -42.51 256 -16 c 0
 256 52.862 285.068 136.204 333.758 206.942 c 0
 374.45 266.06 424.442 310.562 478.436 336.552 c 1
 454.638 358.196 434.142 384.578 417.928 414.674 c 0
 391.928 462.936 378.182 518.722 378.182 576.002 c 0
 378.182 655.608 404.386 730.824 451.968 787.792 c 0
 501.632 847.252 568.41 880 640 880 c 0
 711.59 880 778.368 847.252 828.034 787.79 c 0
 875.614 730.822 901.82 655.608 901.82 576 c 0
 901.82 518.72 888.076 462.934 862.076 414.672 c 0
 845.862 384.576 825.366 358.194 801.566 336.55 c 1
 855.56 310.56 905.552 266.058 946.244 206.94 c 0
 994.932 136.204 1024 52.862 1024 -16 c 0
 1024 -42.51 1002.51 -64 976 -64 c 2
358.074 32 m 1
 921.926 32 l 1
 912.7 71.34 893.406 114.384 867.164 152.51 c 0
 825.71 212.736 773.988 252.132 721.526 263.436 c 0
 699.42 268.2 683.638 287.746 683.638 310.36 c 2
 683.638 344.652 l 2
 683.638 361.912 692.904 377.842 707.908 386.374 c 0
 767.386 420.206 805.82 494.64 805.82 576 c 0
 805.82 690.692 731.436 784 640.002 784 c 0
 548.568 784 474.184 690.692 474.184 576 c 0
 474.184 494.64 512.618 420.208 572.098 386.374 c 0
 587.1 377.84 596.366 361.912 596.366 344.652 c 2
 596.366 310.36 l 2
 596.366 287.746 580.582 268.2 558.478 263.436 c 0
 506.016 252.132 454.294 212.736 412.838 152.51 c 0
 386.592 114.384 367.302 71.34 358.074 32 c 1
197.114 96 m 1
 102.074 96 l 1
 111.302 135.34 130.592 178.384 156.834 216.51 c 0
 198.29 276.736 250.012 316.132 302.474 327.436 c 0
 324.58 332.2 340.362 351.746 340.362 374.36 c 2
 340.362 408.652 l 2
 340.362 425.912 331.096 441.842 316.094 450.374 c 0
 256.614 484.208 218.18 558.64 218.18 640 c 0
 218.18 754.692 292.564 848 383.998 848 c 0
 390.252 848 396.424 847.548 402.5 846.698 c 1
 428.858 876.032 458.734 899.872 491.142 917.702 c 1
 457.95 934.934 421.642 944 384 944 c 0
 312.41 944 245.632 911.252 195.966 851.79 c 0
 148.386 794.822 122.182 719.606 122.182 640 c 0
 122.182 582.72 135.926 526.934 161.928 478.672 c 0
 178.142 448.576 198.638 422.196 222.436 400.55 c 1
 168.442 374.56 118.45 330.058 77.758 270.94 c 0
 29.068 200.204 -4.26326e-14 116.862 -4.26326e-14 48 c 0
 -4.26326e-14 21.49 21.49 -1.13687e-13 48 -1.13687e-13 c 2
 180.386 -1.13687e-13 l 1
 181.862 31.026 187.584 63.412 197.114 96 c 1
EndSplineSet
Validated: 9
EndChar

StartChar: uniE616
Encoding: 144 58902 144
Width: 1024
LayerCount: 2
Fore
SplineSet
256 640 m 0
 256 781.385 370.615 896 512 896 c 0
 653.385 896 768 781.385 768 640 c 0
 768 498.615 653.385 384 512 384 c 0
 370.615 384 256 498.615 256 640 c 0
768 320 m 2
 256 320 l 2
 114.616 320 0 205.382 0 64 c 2
 0 0 l 1
 1024 0 l 1
 1024 64 l 2
 1024 205.382 909.384 320 768 320 c 2
EndSplineSet
Validated: 9
EndChar

StartChar: uniE617
Encoding: 145 58903 145
Width: 1024
LayerCount: 2
Fore
SplineSet
819.302 655.36 m 2
 266.342 655.36 l 1
 266.342 768 l 1
 51.302 583.68 l 1
 266.342 399.36 l 1
 266.342 512 l 1
 778.342 512 l 1
 778.342 296.96 l 1
 112.742 296.96 l 1
 112.742 153.6 l 1
 819.302 153.6 l 2
 875.827 153.6 921.702 199.475 921.702 256 c 2
 921.702 552.96 l 2
 921.702 609.536 875.776 655.36 819.302 655.36 c 2
EndSplineSet
Validated: 9
EndChar

StartChar: uniE618
Encoding: 146 58904 146
Width: 1024
LayerCount: 2
Fore
SplineSet
737.229 80.998 m 5
 750.951 67.123 750.951 44.748 737.229 30.873 c 4
 723.507 16.998 701.338 16.998 687.616 30.873 c 6
 286.72 435.711 l 6
 272.998 449.586 272.998 472.012 286.72 485.836 c 6
 687.616 890.726 l 6
 701.338 904.601 723.507 904.601 737.229 890.726 c 4
 750.951 876.851 750.951 854.476 737.229 840.601 c 6
 371.661 460.799 l 5
 737.229 80.997 l 5
 737.229 80.998 l 5
EndSplineSet
Validated: 33
EndChar

StartChar: uniE619
Encoding: 147 58905 147
Width: 1024
LayerCount: 2
Fore
SplineSet
132.198 686.029 m 1
 118.323 699.751 95.897 699.751 82.073 686.029 c 0
 68.249 672.359 68.249 650.138 82.073 636.416 c 2
 486.963 235.52 l 2
 500.838 221.798 523.213 221.798 537.088 235.52 c 2
 941.978 636.416 l 2
 955.802 650.138 955.853 672.307 941.978 686.029 c 0
 928.103 699.751 905.626 699.751 891.853 686.08 c 2
 512 320.461 l 1
 132.198 686.029 l 1
EndSplineSet
Validated: 41
EndChar

StartChar: uniE61A
Encoding: 148 58906 148
Width: 1024
LayerCount: 2
Fore
SplineSet
891.802 235.571 m 1
 905.677 221.849 928.103 221.849 941.927 235.571 c 0
 955.802 249.293 955.802 271.462 941.927 285.184 c 2
 537.037 686.08 l 2
 523.213 699.802 500.787 699.802 486.963 686.08 c 2
 82.073 285.184 l 2
 68.249 271.462 68.198 249.293 82.073 235.571 c 0
 95.948 221.849 118.323 221.849 132.198 235.571 c 2
 512 601.19 l 1
 891.802 235.571 l 1
EndSplineSet
Validated: 41
EndChar

StartChar: uniE628
Encoding: 149 58920 149
Width: 1024
LayerCount: 2
Fore
SplineSet
299.857 437.921 m 1
 520.772 671.075 l 1
 741.687 437.921 l 1
 299.889 437.921 l 1
 299.857 437.921 l 1
606.609 437.921 m 1
 434.937 437.921 l 1
 434.937 176.701 l 1
 606.609 176.701 l 1
 606.609 437.921 l 1
606.609 176.701 m 1
 434.937 176.701 l 1
 434.937 81.828 511.737 5.029 606.609 5.029 c 1
 606.609 176.701 l 1
1323.86 176.701 m 1
 606.609 176.701 l 1
 606.609 5.029 l 1
 1323.86 5.029 l 1
 1323.86 176.701 l 1
EndSplineSet
Validated: 5
EndChar

StartChar: uniF1C3
Encoding: 150 61891 150
Width: 1024
LayerCount: 2
Fore
SplineSet
960 0 m 2
 576 0 l 2
 558.667 0 543.667 6.16667 531 18.5 c 0
 518.333 30.8333 512 45.8333 512 63.5 c 0
 512 81.1667 518.333 96.3333 531 109 c 0
 543.667 121.667 558.667 128 576 128 c 2
 960 128 l 2
 978 128 993.167 121.667 1005.5 109 c 0
 1017.83 96.3333 1024 81.1667 1024 63.5 c 0
 1024 45.8333 1017.83 30.8333 1005.5 18.5 c 0
 993.167 6.16667 978 -8.88178e-16 960 0 c 2
832 256 m 2
 576 256 l 2
 558.667 256 543.667 262.167 531 274.5 c 0
 518.333 286.833 512 301.833 512 319.5 c 0
 512 337.167 518.333 352.167 531 364.5 c 0
 543.667 376.833 558.667 383 576 383 c 2
 832 383 l 2
 850 383 865.167 376.833 877.5 364.5 c 0
 889.833 352.167 896 337.167 896 319.5 c 0
 896 301.833 889.833 286.833 877.5 274.5 c 0
 865.167 262.167 850 256 832 256 c 2
704 511 m 2
 576 511 l 2
 558.667 511 543.667 517.333 531 530 c 0
 518.333 542.667 512 557.833 512 575.5 c 0
 512 593.167 518.333 608.167 531 620.5 c 0
 543.667 632.833 558.667 639 576 639 c 2
 704 639 l 2
 722 639 737.167 632.833 749.5 620.5 c 0
 761.833 608.167 768 593.167 768 575.5 c 0
 768 557.833 761.833 542.667 749.5 530 c 0
 737.167 517.333 722 511 704 511 c 2
576.5 767 m 0
 558.833 767 543.667 773.333 531 786 c 0
 518.333 798.667 512 813.833 512 831.5 c 0
 512 849.167 518.333 864.167 531 876.5 c 0
 543.667 888.833 558.833 895 576.5 895 c 0
 594.167 895 609.167 888.667 621.5 876 c 0
 633.833 863.333 640 848.333 640 831 c 0
 640 813.667 633.833 798.667 621.5 786 c 0
 609.167 773.333 594.167 767 576.5 767 c 0
218 -56 m 2
 210.667 -61.3333 202 -64 192 -64 c 0
 182 -64 173.333 -61.3333 166 -56 c 1
 11 151 l 1
 3.66667 156.333 4.44089e-16 163 0 171 c 0
 0 179 3.66667 185.667 11 191 c 1
 129 191 l 1
 129 895 l 2
 129 912.333 135.167 927.333 147.5 940 c 0
 159.833 952.667 174.833 959 192.5 959 c 0
 210.167 959 225.333 952.667 238 940 c 0
 250.667 927.333 257 912.333 257 895 c 2
 257 191 l 1
 374 191 l 1
 380.667 185.667 384 179 384 171 c 0
 384 163 380.667 156.333 374 151 c 2
 218 -56 l 2
EndSplineSet
Validated: 1
EndChar

StartChar: uniF1C4
Encoding: 151 61892 151
Width: 1024
Flags: W
HStem: 0 128<531.596 620.92> 256 127<531.595 748.92> 511 128<531.595 876.92> 767 128<531.595 1004.92>
VStem: 129 128<191 939.405> 512 256<275.08 363.92> 512 128<19.0801 108.404>
LayerCount: 2
Fore
SplineSet
960 767 m 2xfa
 576 767 l 2
 558.667 767 543.667 773.333 531 786 c 0
 518.333 798.667 512 813.833 512 831.5 c 0
 512 849.167 518.333 864.167 531 876.5 c 0
 543.667 888.833 558.667 895 576 895 c 2
 960 895 l 2
 978 895 993.167 888.667 1005.5 876 c 0
 1017.83 863.333 1024 848.333 1024 831 c 0
 1024 813.667 1017.83 798.667 1005.5 786 c 0
 993.167 773.333 978 767 960 767 c 2xfa
218 -56 m 2
 210.667 -61.3333 202 -64 192 -64 c 0
 182 -64 173.333 -61.3333 166 -56 c 1
 11 151 l 1
 3.66667 156.333 4.44089e-16 163 0 171 c 0
 0 179 3.66667 185.667 11 191 c 1
 129 191 l 1
 129 895 l 2
 129 912.333 135.167 927.333 147.5 940 c 0
 159.833 952.667 174.833 959 192.5 959 c 0
 210.167 959 225.333 952.667 238 940 c 0
 250.667 927.333 257 912.333 257 895 c 2
 257 191 l 1
 374 191 l 1
 380.667 185.667 384 179 384 171 c 0
 384 163 380.667 156.333 374 151 c 2
 218 -56 l 2
576 639 m 2
 832 639 l 2
 850 639 865.167 632.833 877.5 620.5 c 0
 889.833 608.167 896 593.167 896 575.5 c 0
 896 557.833 889.833 542.667 877.5 530 c 0
 865.167 517.333 850 511 832 511 c 2
 576 511 l 2
 558.667 511 543.667 517.333 531 530 c 0
 518.333 542.667 512 557.833 512 575.5 c 0
 512 593.167 518.333 608.167 531 620.5 c 0
 543.667 632.833 558.667 639 576 639 c 2
576 383 m 2
 704 383 l 2
 722 383 737.167 376.833 749.5 364.5 c 0
 761.833 352.167 768 337.167 768 319.5 c 0
 768 301.833 761.833 286.833 749.5 274.5 c 0
 737.167 262.167 722 256 704 256 c 2
 576 256 l 2
 558.667 256 543.667 262.167 531 274.5 c 0
 518.333 286.833 512 301.833 512 319.5 c 0xfc
 512 337.167 518.333 352.167 531 364.5 c 0
 543.667 376.833 558.667 383 576 383 c 2
576.5 128 m 0
 594.167 128 609.167 121.667 621.5 109 c 0
 633.833 96.3333 640 81.1667 640 63.5 c 0
 640 45.8333 633.833 30.8333 621.5 18.5 c 0
 609.167 6.16667 594.167 -8.88178e-16 576.5 0 c 0
 558.833 0 543.667 6.16667 531 18.5 c 0
 518.333 30.8333 512 45.8333 512 63.5 c 0xfa
 512 81.1667 518.333 96.3333 531 109 c 0
 543.667 121.667 558.833 128 576.5 128 c 0
EndSplineSet
Validated: 1
EndChar

StartChar: uniF1C5
Encoding: 152 61893 152
Width: 1024
Flags: W
HStem: 16.4736 98.4512<37.4672 121.214 214.476 298.223> 180.56 98.4512<37.4672 121.214 214.476 298.223> 344.645 98.4521<37.4672 121.214 214.476 298.223> 509.091 98.4502<37.4672 121.214 214.476 298.223> 673.176 98.4521<37.4672 121.214 214.476 298.223> 837.262 98.4531<37.4672 121.214 214.476 298.223>
VStem: 28.8428 100.995<24.8803 106.518 188.967 270.604 353.052 434.689 517.497 599.134 681.583 763.221 845.669 927.307> 205.851 100.997<24.8803 106.518 188.967 270.604 353.052 434.689 517.497 599.134 681.583 763.221 845.669 927.307>
LayerCount: 2
Fore
SplineSet
205.851 393.87 m 0
 205.851 366.686 228.462 344.645 256.351 344.645 c 0
 284.238 344.645 306.848 366.686 306.848 393.87 c 0
 306.848 421.057 284.238 443.097 256.351 443.097 c 0
 228.462 443.097 205.851 421.057 205.851 393.87 c 0
205.851 229.785 m 0
 205.851 202.599 228.462 180.56 256.351 180.56 c 0
 284.238 180.56 306.848 202.599 306.848 229.785 c 0
 306.848 256.971 284.238 279.011 256.351 279.011 c 0
 228.462 279.011 205.851 256.971 205.851 229.785 c 0
205.851 65.6982 m 0
 205.851 38.5117 228.461 16.4736 256.351 16.4736 c 0
 284.238 16.4736 306.848 38.5117 306.848 65.6982 c 0
 306.848 92.8848 284.238 114.925 256.351 114.925 c 0
 228.462 114.925 205.851 92.8848 205.851 65.6982 c 0
28.8428 393.87 m 0
 28.8428 366.686 51.4521 344.645 79.3398 344.645 c 0
 107.229 344.645 129.838 366.686 129.838 393.87 c 0
 129.838 421.057 107.229 443.097 79.3398 443.097 c 0
 51.4521 443.097 28.8428 421.057 28.8428 393.87 c 0
28.8428 229.785 m 0
 28.8428 202.599 51.4521 180.56 79.3398 180.56 c 0
 107.229 180.56 129.838 202.599 129.838 229.785 c 0
 129.838 256.971 107.229 279.011 79.3398 279.011 c 0
 51.4521 279.011 28.8428 256.971 28.8428 229.785 c 0
28.8428 65.6982 m 0
 28.8428 38.5117 51.4512 16.4736 79.3398 16.4736 c 0
 107.229 16.4736 129.838 38.5117 129.838 65.6982 c 0
 129.838 92.8848 107.229 114.925 79.3398 114.925 c 0
 51.4521 114.925 28.8428 92.8848 28.8428 65.6982 c 0
205.851 886.487 m 0
 205.851 859.302 228.462 837.262 256.351 837.262 c 0
 284.238 837.262 306.848 859.302 306.848 886.487 c 0
 306.848 913.675 284.238 935.715 256.351 935.715 c 0
 228.462 935.715 205.851 913.675 205.851 886.487 c 0
205.851 722.403 m 0
 205.851 695.216 228.462 673.176 256.351 673.176 c 0
 284.238 673.176 306.848 695.216 306.848 722.403 c 0
 306.848 749.588 284.238 771.628 256.351 771.628 c 0
 228.462 771.628 205.851 749.588 205.851 722.403 c 0
205.851 558.316 m 0
 205.851 531.129 228.461 509.091 256.351 509.091 c 0
 284.238 509.091 306.848 531.129 306.848 558.316 c 0
 306.848 585.502 284.238 607.541 256.351 607.541 c 0
 228.462 607.541 205.851 585.502 205.851 558.316 c 0
28.8428 886.487 m 0
 28.8428 859.302 51.4521 837.262 79.3398 837.262 c 0
 107.229 837.262 129.838 859.302 129.838 886.487 c 0
 129.838 913.675 107.229 935.715 79.3398 935.715 c 0
 51.4521 935.715 28.8428 913.675 28.8428 886.487 c 0
28.8428 722.403 m 0
 28.8428 695.216 51.4521 673.176 79.3398 673.176 c 0
 107.229 673.176 129.838 695.216 129.838 722.403 c 0
 129.838 749.588 107.229 771.628 79.3398 771.628 c 0
 51.4521 771.628 28.8428 749.588 28.8428 722.403 c 0
28.8428 558.316 m 0
 28.8428 531.129 51.4512 509.091 79.3398 509.091 c 0
 107.229 509.091 129.838 531.129 129.838 558.316 c 0
 129.838 585.502 107.229 607.541 79.3398 607.541 c 0
 51.4521 607.541 28.8428 585.502 28.8428 558.316 c 0
EndSplineSet
Validated: 9
EndChar

StartChar: NameMe.153
Encoding: 153 61894 153
Width: 1040
Flags: W
HStem: 435.76 36.4336<391.855 503.962 541.333 653.43>
VStem: 503.962 37.3711<326.47 435.76 472.193 581.494>
LayerCount: 2
Back
SplineSet
652.454 463.085 m 6
 652.454 444.867 l 6
 652.82 440.779 652.82 440.779 650.268 438.27 c 132
 647.715 435.76 647.715 435.76 643.109 435.76 c 6
 540.333 435.76 l 5
 540.333 335.565 l 6
 540.457 331.721 540.457 331.721 537.308 329.088 c 132
 534.157 326.455 534.157 326.455 530.99 326.455 c 6
 512.306 326.455 l 6
 508.511 326.213 508.511 326.213 505.736 328.43 c 132
 502.962 330.646 502.962 330.646 502.962 335.565 c 6
 502.962 435.76 l 5
 400.186 435.76 l 6
 397.25 435.271 397.25 435.271 394.048 437.936 c 132
 390.845 440.602 390.845 440.602 390.845 444.867 c 6
 390.845 463.085 l 6
 390.64 468.319 390.64 468.319 395.047 469.972 c 132
 399.453 471.624 399.453 471.624 400.186 472.193 c 6
 502.962 472.193 l 5
 502.962 572.388 l 6
 503.003 576.275 503.003 576.275 505.61 578.886 c 132
 508.217 581.496 508.217 581.496 512.306 581.496 c 6
 530.99 581.496 l 6
 534.949 581.784 534.949 581.784 537.642 579.09 c 132
 540.333 576.396 540.333 576.396 540.333 572.388 c 6
 540.333 472.193 l 5
 643.109 472.193 l 6
 647.312 472.726 647.312 472.726 650.066 469.972 c 132
 652.82 467.218 652.82 467.218 652.454 463.085 c 6
EndSplineSet
Refer: 142 58900 N -0.899161 0 0 0.892688 677.794 42.1963 2
Refer: 142 58900 S 0.899161 0 0 0.892688 352.54 42.1963 2
Fore
SplineSet
653.454 463.085 m 2
 653.454 444.867 l 2
 653.82 440.779 653.82 440.779 650.825 438.319 c 0
 648.715 435.76 648.715 435.76 644.109 435.76 c 2
 541.333 435.76 l 1
 541.333 335.565 l 2
 541.457 331.721 541.457 331.721 538.288 328.912 c 0
 535.157 326.455 535.157 326.455 531.99 326.455 c 2
 513.306 326.455 l 2
 509.511 326.213 509.511 326.213 506.588 329.018 c 0
 503.962 330.646 503.962 330.646 503.962 335.565 c 2
 503.962 435.76 l 1
 401.186 435.76 l 2
 398.25 435.271 398.25 435.271 394.471 438.319 c 0
 391.845 440.602 391.845 440.602 391.845 444.867 c 2
 391.845 463.085 l 2
 391.64 468.319 391.64 468.319 394.471 469.631 c 0
 400.453 471.624 400.453 471.624 401.186 472.193 c 2
 503.962 472.193 l 1
 503.962 572.388 l 2
 504.003 576.275 504.003 576.275 506.588 578.935 c 0
 509.217 581.496 509.217 581.496 513.306 581.496 c 2
 531.99 581.496 l 2
 535.949 581.784 535.949 581.784 538.707 578.935 c 0
 541.333 576.396 541.333 576.396 541.333 572.388 c 2
 541.333 472.193 l 1
 644.109 472.193 l 2
 648.312 472.726 648.312 472.726 650.825 469.631 c 0
 653.82 467.218 653.82 467.218 653.454 463.085 c 2
EndSplineSet
Refer: 142 58900 N 0.737253 0 0 0.733006 477.233 123.464 2
Refer: 142 58900 N -0.737253 0 0 0.733006 558.767 123.464 2
Validated: 25
EndChar

StartChar: NameMe.154
Encoding: 154 61895 154
Width: 1024
Flags: HW
VStem: 343.964 148.518<266.563 419.681 744.431 761.518> 343.964 139.825<214.575 387.118>
LayerCount: 2
Fore
SplineSet
918.252 803.672 m 1x00
 1016.24 803.672 l 1
 869.689 950.006 l 1
 724.002 803.672 l 1
 821.127 803.672 l 1
 821.127 547.592 l 1
 918.252 547.592 l 1
 918.252 803.672 l 1x00
810.475 463.409 m 2
 525.639 463.409 l 1
 525.639 715.834 l 2
 525.639 728.51 514.045 738.783 499.746 738.783 c 2
 344.383 738.783 l 2
 330.084 738.783 318.488 728.51 318.488 715.834 c 2x80
 318.488 463.409 l 1x40
 33.6543 463.409 l 2
 19.3574 463.409 7.76172 453.135 7.76172 440.463 c 2
 7.76172 302.777 l 2
 7.76172 290.104 19.3574 279.829 33.6543 279.829 c 2
 318.488 279.829 l 1x80
 318.488 27.4033 l 2
 318.488 14.7295 330.084 4.45605 344.383 4.45605 c 2
 499.746 4.45605 l 2
 514.045 4.45605 513.49 17.8555 513.516 30.5361 c 2x40
 514.012 279.333 l 1x80
 810.475 279.829 l 2
 824.773 279.854 836.367 290.104 836.367 302.777 c 2
 836.367 440.463 l 2
 836.367 453.135 824.773 463.409 810.475 463.409 c 2
EndSplineSet
EndChar

StartChar: uniF1C8
Encoding: 155 61896 155
Width: 1024
VWidth: 0
Flags: H
LayerCount: 2
Fore
SplineSet
226.251953125 -58.431640625 m 5
 30.5859375 -58.431640625 l 6
 16.7705078125 -58.431640625 5.4677734375 -47.1611328125 5.4677734375 -33.388671875 c 6
 5.4677734375 903.783203125 l 6
 5.4677734375 917.555664062 16.7705078125 928.82421875 30.5859375 928.82421875 c 6
 226.251953125 928.82421875 l 6
 240.06640625 928.82421875 251.37109375 917.555664062 251.37109375 903.783203125 c 6
 251.37109375 -33.388671875 l 6
 251.365234375 -47.1611328125 240.0625 -58.431640625 226.251953125 -58.431640625 c 5
 226.251953125 -58.431640625 l 5
46.171875 879.133789062 m 5
 46.171875 857.603515625 l 5
 210.659179688 857.603515625 l 5
 210.659179688 879.133789062 l 5
 46.171875 879.133789062 l 5
 46.171875 879.133789062 l 5
46.171875 813.342773438 m 5
 46.171875 791.8125 l 5
 210.659179688 791.8125 l 5
 210.659179688 813.342773438 l 5
 46.171875 813.342773438 l 5
 46.171875 813.342773438 l 5
46.171875 747.55078125 m 5
 46.171875 726.013671875 l 5
 210.659179688 726.013671875 l 5
 210.659179688 747.55078125 l 5
 46.171875 747.55078125 l 5
 46.171875 747.55078125 l 5
189.926757812 -25.29296875 m 5
 203.7421875 -25.29296875 215.046875 -14.025390625 215.046875 -0.255859375 c 6
 215.046875 80.5205078125 l 6
 215.046875 94.2919921875 203.7421875 105.563476562 189.926757812 105.563476562 c 6
 66.8974609375 105.563476562 l 6
 53.083984375 105.563476562 41.78515625 94.2919921875 41.78515625 80.5205078125 c 6
 41.78515625 -0.255859375 l 6
 41.78515625 -14.025390625 53.0888671875 -25.29296875 66.8974609375 -25.29296875 c 6
 189.926757812 -25.29296875 l 5
 189.926757812 -25.29296875 l 5
527.442382812 -58.431640625 m 5
 331.78125 -58.431640625 l 6
 317.966796875 -58.431640625 306.662109375 -47.1611328125 306.662109375 -33.388671875 c 6
 306.662109375 903.783203125 l 6
 306.662109375 917.555664062 317.966796875 928.82421875 331.78125 928.82421875 c 6
 527.442382812 928.82421875 l 6
 541.256835938 928.82421875 552.560546875 917.555664062 552.560546875 903.783203125 c 6
 552.560546875 -33.388671875 l 6
 552.560546875 -47.1611328125 541.256835938 -58.431640625 527.442382812 -58.431640625 c 5
 527.442382812 -58.431640625 l 5
347.36328125 879.133789062 m 5
 347.36328125 857.603515625 l 5
 511.854492188 857.603515625 l 5
 511.854492188 879.133789062 l 5
 347.36328125 879.133789062 l 5
 347.36328125 879.133789062 l 5
347.36328125 813.342773438 m 5
 347.36328125 791.8125 l 5
 511.854492188 791.8125 l 5
 511.854492188 813.342773438 l 5
 347.36328125 813.342773438 l 5
 347.36328125 813.342773438 l 5
347.36328125 747.55078125 m 5
 347.36328125 726.013671875 l 5
 511.854492188 726.013671875 l 5
 511.854492188 747.55078125 l 5
 347.36328125 747.55078125 l 5
 347.36328125 747.55078125 l 5
491.122070312 -25.29296875 m 5
 504.939453125 -25.29296875 516.248046875 -14.025390625 516.248046875 -0.255859375 c 6
 516.248046875 80.5205078125 l 6
 516.248046875 94.2919921875 504.939453125 105.563476562 491.122070312 105.563476562 c 6
 368.092773438 105.563476562 l 6
 354.278320312 105.563476562 342.974609375 94.2919921875 342.974609375 80.5205078125 c 6
 342.974609375 -0.255859375 l 6
 342.974609375 -14.025390625 354.278320312 -25.29296875 368.092773438 -25.29296875 c 6
 491.122070312 -25.29296875 l 5
 491.122070312 -25.29296875 l 5
991.21875 -24.1728515625 m 5
 798.526367188 -58.05078125 l 6
 784.920898438 -60.443359375 771.828125 -51.294921875 769.427734375 -37.73828125 c 6
 606.204101562 885.197265625 l 6
 603.798828125 898.763671875 612.97265625 911.822265625 626.580078125 914.209960938 c 6
 819.270507812 948.081054688 l 6
 832.870117188 950.47265625 845.970703125 941.33203125 848.370117188 927.767578125 c 6
 1011.59863281 4.8369140625 l 6
 1013.99902344 -8.7275390625 1004.82421875 -21.78125 991.21875 -24.1728515625 c 5
 991.21875 -24.1728515625 l 5
650.575195312 867.974609375 m 5
 654.328125 846.76953125 l 5
 816.31640625 875.245117188 l 5
 812.5703125 896.450195312 l 5
 650.575195312 867.974609375 l 5
 650.575195312 867.974609375 l 5
662.040039062 803.1796875 m 5
 665.791992188 781.969726562 l 5
 827.779296875 810.4453125 l 5
 824.033203125 831.654296875 l 5
 662.040039062 803.1796875 l 5
 662.040039062 803.1796875 l 5
673.498046875 738.384765625 m 5
 677.249023438 717.173828125 l 5
 839.237304688 745.650390625 l 5
 835.485351562 766.859375 l 5
 673.498046875 738.384765625 l 5
 673.498046875 738.384765625 l 5
949.680664062 2.1669921875 m 6
 963.291992188 4.56640625 972.453125 17.6201171875 970.0546875 31.1767578125 c 6
 955.9921875 110.73046875 l 6
 953.590820312 124.294921875 940.5 133.436523438 926.88671875 131.049804688 c 6
 805.733398438 109.74609375 l 6
 792.126953125 107.354492188 782.965820312 94.3017578125 785.352539062 80.7353515625 c 6
 799.427734375 1.189453125 l 6
 801.8203125 -12.3798828125 814.921875 -21.5166015625 828.520507812 -19.12890625 c 6
 949.680664062 2.1669921875 l 6
EndSplineSet
Comment: "Credit to https://thenounproject.com/Aleksandr_Vector for this Creative Commons icon available here: https://thenounproject.com/term/books/925083/"
EndChar
